<?xml version="1.0" encoding="utf-8"?>
<!-- Generator: Adobe Illustrator 28.0.0, SVG Export Plug-In . SVG Version: 6.00 Build 0)  -->
<svg version="1.1" id="Capa_1" xmlns="http://www.w3.org/2000/svg" xmlns:xlink="http://www.w3.org/1999/xlink" x="0px" y="0px"
	 viewBox="0 0 266.6 128.8" style="enable-background:new 0 0 266.6 128.8;" xml:space="preserve">
<style type="text/css">
	.st0{fill:#FFFFFF;}
	.st1{fill-rule:evenodd;clip-rule:evenodd;fill:#FFFFFF;}
	.st2{fill:#CAA358;}
</style>
<g>
	<path class="st0" d="M61.6,36H3.5c-0.6,0-1-0.5-1-1s0.5-1,1-1h58.1c0.6,0,1,0.5,1,1S62.2,36,61.6,36z"/>
</g>
<g>
	<path class="st0" d="M261.9,36H204c-0.6,0-1-0.5-1-1s0.5-1,1-1h57.9c0.6,0,1,0.5,1,1S262.5,36,261.9,36z"/>
</g>
<path class="st1" d="M65,105.5c-2.7,0.4-4.3,0.8-6.1,2.2c-3.2,2.6-1.2,8.9,6.3,4.3c1-0.6,1.6-1.1,2.4-1.8c0.9-0.8,1.2-1.4,2.1-2.2
	c1.9,0.6,3.5,1.5,6.4,2.4c1.1,0.3,2.3,0.6,3.5,0.9c0.8,0.2,3.1,0.5,3.7,0.8c-0.5,0.3-8.1,2.3-7.3,7.4c0.2,1.3,1.3,2.2,2.6,2.4
	c3.5,0.5,7.4-3.4,9.1-5.9c0.8-1.2,1-2.1,1.6-3.4c2.5-0.1,4.9,0,7.4-0.2c3.4-0.2,5.8,0,5.2-2.1c-1.1-0.5-4.4,0.2-6,0.3
	c-2.2,0.1-4.5,0.2-6.8,0.1c-0.6-2.6-3.4-8-5.9-9.2c-2.4-1.2-6,0.6-3.9,5.8c0.4,1.1,1,1.6,1.5,2.4c-4-0.4-8.3-2.8-10.5-3.3
	c-0.1-3.5-1.8-10-5-10.6C61.7,95.2,60.2,100.8,65,105.5L65,105.5L65,105.5L65,105.5z"/>
<path class="st1" d="M190,110.6c0.4-0.2,0.8-0.7,1.2-1.1c0.9-0.9,0.9-0.7,1.1-1.4c-2,0.3-4.3,1.6-6.5,1.7c0.3-0.7,0.9-1.2,1.4-2.3
	c2.1-5-1.1-7.2-3.8-5.9c-2,0.9-5.3,6.2-5.9,9.2c-2.3,0-4.5,0-6.8-0.1c-1.6-0.1-4.9-0.8-6-0.3c-0.4,1.5,0.3,1.6,1.7,1.7
	c4.4,0.5,7.1,0.3,10.9,0.5c0.9,1.6,1.5,3.9,3.9,6c1.4,1.2,3.7,3.6,6.7,3.3c3.4-0.4,4.3-5.3-1-8.4c-1.8-1.1-3-1.2-3.5-1.5
	C183.9,112,189.1,110.9,190,110.6L190,110.6L190,110.6L190,110.6z"/>
<path class="st1" d="M192.3,108.1c-0.2,0.7-0.2,0.6-1.1,1.4c-0.4,0.4-0.8,0.9-1.2,1.1c2.9-0.9,5-1.9,6.9-2.5
	c1.4,1.4,1.8,2.4,4.4,3.9c7.9,4.5,9.5-1.7,6.5-4.2c-1.5-1.3-3.7-2-6.2-2.2c1-1.3,2.4-2.2,2.9-5c0.4-2.5-0.4-5-3-4.7
	c-3.5,0.4-5.2,7.2-5.2,10.6L192.3,108.1L192.3,108.1L192.3,108.1L192.3,108.1z"/>
<path class="st1" d="M126.6,111.8c0.2,1.3,2.4,3.7,3.1,4.6c0.4,0.5,0.4,0.5,0.9,1c2.4,2.3,2.4,5.4,6.9-1.3c1-1.5,2.1-3.1,2.9-5
	l-1.8-1.8c-0.6-0.8-0.7-0.6-1.3-1.3c-0.2-0.2-0.3-0.4-0.5-0.6c-0.8-0.7-0.6-0.4-1.2-1.5c-0.7,0.4-1.3,1.7-1.8,2.4
	c-1-1-0.9-2-1.5-2.4c-0.1,0.5-1,1.2-1.7,2c-0.2,0.2-0.3,0.3-0.4,0.3c-0.3,0.3-0.4,0.4-0.7,0.6L126.6,111.8L126.6,111.8L126.6,111.8z
	 M126.6,111.8l2.8-2.8c0.2-0.3,0.4-0.4,0.7-0.6c0.1-0.1,0.2-0.2,0.4-0.3c0.7-0.8,1.6-1.5,1.7-2c-0.2-1.2-2.8-5.6-5.8-2.2
	C124.4,106.1,125.4,110.6,126.6,111.8L126.6,111.8L126.6,111.8z M135.5,106c0.6,1.1,0.4,0.7,1.2,1.5c0.3,0.2,0.4,0.4,0.5,0.6
	c0.6,0.7,0.6,0.5,1.3,1.3l1.8,1.8c0.3-1.2,0.8-1.8,1-3.3c0.2-2.2-0.9-6.1-3.8-4.1C137,104.1,135.5,105.3,135.5,106L135.5,106
	L135.5,106L135.5,106z M154.1,108.8L154.1,108.8z"/>
<path class="st1" d="M107.8,111.2c0.1,1,1.7,2.6,2.2,3.3c0.3,0.3,0.2,0.3,0.6,0.7c1.7,1.7,1.7,3.9,4.9-0.9c0.7-1.1,1.5-2.2,2.1-3.6
	l-1.3-1.3c-0.4-0.6-0.5-0.4-0.9-0.9c-0.1-0.2-0.2-0.3-0.4-0.4c-0.6-0.5-0.4-0.3-0.9-1c-0.5,0.3-0.9,1.2-1.3,1.7
	c-0.7-0.7-0.6-1.5-1.1-1.7c-0.1,0.4-0.7,0.9-1.2,1.4c-0.1,0.1-0.2,0.2-0.2,0.2c-0.2,0.2-0.3,0.3-0.5,0.4L107.8,111.2L107.8,111.2
	L107.8,111.2L107.8,111.2z M107.8,111.2l2-2c0.2-0.2,0.3-0.3,0.5-0.4c0,0,0.2-0.1,0.2-0.2c0.5-0.5,1.2-1,1.2-1.4
	c-0.1-0.9-2-4-4.1-1.6C106.2,107.2,106.9,110.4,107.8,111.2L107.8,111.2L107.8,111.2L107.8,111.2z M114.1,107.1
	c0.4,0.8,0.3,0.5,0.9,1c0.2,0.2,0.2,0.3,0.4,0.4c0.4,0.5,0.4,0.3,0.9,0.9l1.3,1.3c0.2-0.8,0.6-1.3,0.7-2.4c0.2-1.6-0.6-4.4-2.7-2.9
	C115.1,105.8,114.1,106.6,114.1,107.1L114.1,107.1L114.1,107.1z M127.4,109.1L127.4,109.1z"/>
<path class="st1" d="M150.4,111.2c0.1,1,1.7,2.6,2.2,3.3c0.3,0.3,0.2,0.3,0.6,0.7c1.7,1.7,1.7,3.9,4.9-0.9c0.7-1.1,1.5-2.2,2.1-3.6
	l-1.3-1.3c-0.4-0.6-0.5-0.4-0.9-0.9c-0.1-0.2-0.2-0.3-0.4-0.4c-0.6-0.5-0.4-0.3-0.9-1c-0.5,0.3-0.9,1.2-1.3,1.7
	c-0.7-0.7-0.6-1.5-1.1-1.7c-0.1,0.4-0.7,0.9-1.2,1.4c-0.1,0.1-0.2,0.2-0.2,0.2c-0.2,0.2-0.3,0.3-0.5,0.4L150.4,111.2L150.4,111.2
	L150.4,111.2L150.4,111.2z M150.4,111.2l2-2c0.2-0.2,0.3-0.3,0.5-0.4c0,0,0.2-0.1,0.2-0.2c0.5-0.5,1.2-1,1.2-1.4
	c-0.1-0.9-2-4-4.1-1.6C148.8,107.2,149.5,110.4,150.4,111.2L150.4,111.2C150.4,111.3,150.4,111.2,150.4,111.2z M156.8,107.1
	c0.4,0.8,0.3,0.5,0.9,1c0.2,0.2,0.2,0.3,0.4,0.4c0.4,0.5,0.4,0.3,0.9,0.9l1.3,1.3c0.2-0.8,0.6-1.3,0.7-2.4c0.2-1.6-0.6-4.4-2.7-2.9
	C157.8,105.8,156.8,106.6,156.8,107.1L156.8,107.1L156.8,107.1z M170,109.1L170,109.1z"/>
<path class="st1" d="M86.7,113.6c-2.2,0-4.2,0.7-5.8,1.7c-1,0.6-4.3,2.6-2.7,4.4S86,117,86.7,113.6L86.7,113.6z"/>
<path class="st1" d="M180,113.6c0.2,1.5,2.1,3.7,3.1,4.4c5.6,4.4,8.5,0.6,2.8-2.7C184.2,114.3,182.4,113.7,180,113.6L180,113.6
	L180,113.6L180,113.6z"/>
<path class="st1" d="M179.7,110.7c2.8-0.1,3.4-0.7,4.8-2.2c2.8-3.1,1.7-7-1.2-4.7C181.7,105,180.1,108.8,179.7,110.7L179.7,110.7
	L179.7,110.7z"/>
<path class="st1" d="M86.9,110.7c-0.2-1.3-1.4-4-2-5c-0.5-0.8-2.7-3.8-4.1-2.1c-1,1.2,0.7,4.2,1.3,4.9
	C83.5,110,84.2,110.5,86.9,110.7L86.9,110.7L86.9,110.7L86.9,110.7z"/>
<path class="st1" d="M199.1,107.5c1,2.3,6.7,5.3,8,3.8C208.8,109.6,203.9,106.9,199.1,107.5L199.1,107.5z"/>
<path class="st1" d="M59.8,111.7c3.2,0.2,7.2-2.6,7.7-4.2c-2.7-0.2-5.8,0.2-7.7,2.1C58.7,110.6,59.2,110.8,59.8,111.7L59.8,111.7
	L59.8,111.7z"/>
<path class="st1" d="M198.3,105.4c2.3-0.3,5.9-5.4,4.1-7.1C200.2,96.1,198.5,103,198.3,105.4L198.3,105.4z"/>
<path class="st1" d="M68.4,105.4c-0.2-1.7-0.5-3.5-1.1-4.9c-2.2-5.1-5.1-1.6-2.3,2.2C65.6,103.6,67,105,68.4,105.4L68.4,105.4z"/>
<g>
	<g>
		<path class="st2" d="M11.2,89.3c-1.4,0-2.7-0.3-3.9-0.8c-1.5-0.6-2.6-1.6-3.5-2.8c-0.9-1.2-1.5-2.6-1.8-4.1
			c-0.4-1.5-0.5-3-0.5-4.5s0.3-3,0.7-4.3c0.5-1.4,1.2-2.8,2.1-4c0.9-1.2,2-2.3,3.2-3.1c1.2-0.8,2.6-1.4,4-1.8
			c0.8-0.2,1.5-0.3,2.3-0.3c0.7,0,1.5,0.1,2.2,0.2c0.3,0.1,0.6,0.2,1,0.3s0.8,0.3,1.2,0.5c0.4,0.2,0.8,0.4,1.2,0.7
			c0.4,0.3,0.8,0.7,1.1,1.1c0.4,0.6,0.3,1,0.1,1.3c-0.1,0.2-0.4,0.6-1.1,0.6h-0.6c-0.2,0-0.4,0-0.6,0c-1,0-2,0.1-3,0.4
			c-1.2,0.3-2.3,0.8-3.4,1.4s-2,1.4-2.9,2.3c-0.8,0.9-1.6,1.9-2.1,3c-0.3,0.6-0.5,1.2-0.8,1.8c-0.2,0.6-0.4,1.2-0.4,1.9
			c-0.1,0.6-0.1,1.3,0,1.9s0.2,1.2,0.5,1.7c0.4,1,1,1.7,1.9,2.1c0.7,0.3,1.5,0.5,2.3,0.5c0.2,0,0.4,0,0.6,0c1-0.1,1.8-0.4,2.6-1.1
			c0.8-0.8,1.5-1.6,2.1-2.4c0.8-1.2,1.5-2.4,2.1-3.7c0.6-1.3,1.2-2.7,1.8-4.1s1.1-2.8,1.6-4.2c0.5-1.4,1.1-2.8,1.6-4.2
			c0.6-1.4,1.2-2.8,1.8-4.2c0.6-1.4,1.4-2.7,2.3-4c0.1-0.1,0.1-0.2,0.2-0.3c-0.2,0-0.4,0-0.6,0c-0.9,0-1.7,0.1-2.6,0.1
			c-0.8,0.1-1.7,0.2-2.5,0.3s-1.5,0.3-2.3,0.6c-0.7,0.2-1.3,0.5-1.8,0.8c-0.6,0.3-1.2,0.6-1.8,1c-0.3,0.1-0.5,0.2-0.7,0.2
			c-0.5,0-0.9-0.3-1.1-0.7c-0.1-0.3-0.2-0.6-0.2-1c0-0.3,0-0.5,0.1-0.8c0-0.1,0-0.3,0-0.3s0-0.1,0-0.2c0.2-1.1,0.7-2.2,1.4-3.1
			c0.7-0.9,1.6-1.6,2.7-2.1c1-0.5,2.1-0.8,3.2-0.8c0.2,0,0.3,0,0.5,0c1.1,0,2.2,0.2,3.1,0.6c1,0.4,2,0.7,3,1c0.6,0.2,1.3,0.3,2,0.3
			l0,0c0.7,0,1.3-0.1,1.8-0.4c0.2-0.1,0.5-0.3,0.9-0.4c0.4-0.2,0.7-0.3,1-0.4c0.6-0.2,1.2-0.3,1.8-0.4c0.1,0,0.2,0,0.3,0
			c0.6,0,1.1,0.1,1.6,0.3c0.6,0.2,0.9,0.7,0.9,1.2s-0.3,0.9-0.7,1.1c-0.5,0.2-1,0.5-1.4,0.8s-0.8,0.7-1.1,1.2
			c-0.3,0.4-0.6,0.9-0.9,1.4c-0.3,0.6-0.6,1.1-0.8,1.6c-0.6,1.3-1.2,2.6-1.7,3.8c-0.5,1.3-1.1,2.6-1.6,3.9c-1.1,2.8-2.3,5.7-3.5,8.4
			c-0.6,1.3-1.3,2.6-1.9,3.8c-0.7,1.3-1.5,2.5-2.3,3.7c-0.9,1.2-1.9,2.3-3,3.3c-1.2,1.1-2.5,1.9-3.9,2.5
			C13.9,89.1,12.6,89.3,11.2,89.3z"/>
		<path class="st0" d="M21.4,52.2c1,0,1.9,0.2,2.8,0.5c1,0.4,2,0.8,3.1,1.1c0.7,0.2,1.5,0.3,2.3,0.3h0.1c0.8,0,1.5-0.2,2.2-0.5
			c0.3-0.1,0.6-0.3,0.9-0.4c0.3-0.2,0.6-0.3,0.9-0.4c0.5-0.2,1-0.3,1.5-0.3c0.1,0,0.1,0,0.2,0c0.4,0,0.9,0.1,1.3,0.2
			c0.1,0.1,0.2,0.1,0.2,0.2c0,0.1-0.1,0.2-0.2,0.2c-0.6,0.2-1.1,0.6-1.5,0.9c-0.5,0.4-0.9,0.8-1.2,1.3c-0.4,0.5-0.7,1-1,1.6
			s-0.6,1.1-0.8,1.6c-0.6,1.3-1.2,2.6-1.7,3.9c-0.5,1.3-1.1,2.6-1.6,3.9c-1.1,2.8-2.3,5.6-3.5,8.3c-0.6,1.3-1.2,2.5-1.9,3.8
			c-0.7,1.2-1.4,2.4-2.2,3.6c-0.8,1.1-1.8,2.2-2.9,3.2s-2.3,1.7-3.6,2.3c-1.1,0.4-2.3,0.6-3.5,0.6c-1.3,0-2.4-0.2-3.5-0.7
			c-1.3-0.5-2.3-1.4-3.1-2.5c-0.9-0.9-1.5-2.2-1.9-3.5c-0.3-1.4-0.5-2.8-0.5-4.2c0-1.5,0.3-2.8,0.7-4c0.4-1.3,1.1-2.6,1.9-3.7
			s1.8-2.1,3-2.8c1.1-0.8,2.4-1.3,3.7-1.6c0.7-0.2,1.4-0.2,2.1-0.2s1.3,0.1,2,0.2c0.3,0.1,0.6,0.1,0.9,0.3c0.4,0.1,0.7,0.3,1.1,0.4
			c0.4,0.2,0.7,0.4,1.1,0.6c0.3,0.2,0.6,0.5,0.8,0.9c0.2,0.3,0.1,0.4-0.1,0.4s-0.4,0-0.6,0s-0.4,0-0.6,0c-1.1,0-2.2,0.1-3.3,0.4
			c-1.3,0.3-2.5,0.8-3.6,1.5s-2.2,1.5-3.1,2.5c-0.9,1-1.7,2.1-2.3,3.3c-0.3,0.6-0.6,1.3-0.8,1.9C5,78,4.8,78.7,4.7,79.4
			s-0.1,1.4,0,2.1s0.3,1.4,0.5,2.1c0.5,1.2,1.3,2.1,2.4,2.6c0.9,0.4,1.8,0.6,2.8,0.6c0.2,0,0.5,0,0.7,0c1.2-0.1,2.3-0.5,3.1-1.3
			c0.9-0.8,1.6-1.7,2.3-2.6c0.8-1.2,1.6-2.5,2.2-3.9s1.2-2.7,1.8-4.1c0.6-1.4,1.1-2.8,1.6-4.2c0.5-1.4,1-2.8,1.6-4.2
			c0.6-1.4,1.2-2.8,1.8-4.1c0.6-1.3,1.4-2.6,2.2-3.9c0.5-0.7,0.9-1.4,1.4-1.9c-0.9,0.1-1.8,0.1-2.6,0.1c-0.9,0-1.7,0.1-2.6,0.1
			c-0.9,0.1-1.7,0.2-2.5,0.3s-1.7,0.3-2.5,0.6c-0.7,0.2-1.3,0.5-2,0.8c-0.6,0.3-1.2,0.6-1.8,1c-0.1,0-0.1,0-0.2,0s-0.1,0-0.2-0.1
			s-0.1-0.3-0.1-0.6c0-0.2,0-0.4,0-0.7c0-0.2,0-0.4,0-0.4c0.2-1,0.6-1.9,1.2-2.6c0.6-0.8,1.4-1.4,2.3-1.8c0.9-0.4,1.8-0.7,2.8-0.8
			C21.2,52.2,21.3,52.2,21.4,52.2 M21.4,50.2c-0.2,0-0.3,0-0.5,0c-1.3,0.1-2.5,0.4-3.6,0.9c-1.2,0.6-2.2,1.4-3,2.3c0,0,0,0-0.1,0.1
			c-0.8,1-1.3,2.2-1.5,3.5c0,0.1,0,0.2,0,0.3s0,0.1,0,0.2c0,0.3-0.1,0.6-0.1,0.9c0,0.5,0.1,1,0.3,1.4c0.4,0.8,1.1,1.3,2,1.3
			c0.4,0,0.7-0.1,1.1-0.3c0,0,0.1,0,0.1-0.1c0.6-0.3,1.1-0.6,1.7-0.9c0.5-0.3,1.1-0.5,1.7-0.7c0.7-0.3,1.5-0.4,2.2-0.6
			c0.8-0.1,1.6-0.2,2.4-0.3c0.4,0,0.8,0,1.2-0.1c-0.5,0.9-1.1,1.9-1.5,2.8c-0.6,1.4-1.3,2.8-1.9,4.2c-0.1,0.3-0.3,0.7-0.4,1
			c-0.1-0.1-0.1-0.2-0.2-0.3c-0.3-0.5-0.8-1-1.3-1.4c-0.5-0.3-0.9-0.6-1.4-0.8c-0.4-0.2-0.9-0.4-1.3-0.5s-0.8-0.2-1.1-0.3
			c-0.8-0.2-1.7-0.3-2.5-0.3s-1.7,0.1-2.5,0.3c-1.6,0.4-3,1-4.4,1.9c-1.3,0.9-2.5,2-3.5,3.3s-1.7,2.7-2.2,4.3
			c-0.5,1.4-0.7,2.9-0.8,4.6c0,1.6,0.1,3.2,0.5,4.8c0.4,1.6,1.1,3.1,2,4.4c1,1.4,2.4,2.5,4,3.2c1.3,0.6,2.8,0.9,4.3,0.9
			s2.9-0.3,4.2-0.7c1.6-0.6,3-1.5,4.3-2.7c1.2-1.1,2.3-2.3,3.2-3.5c0.9-1.2,1.7-2.5,2.4-3.8c0.7-1.3,1.3-2.6,1.9-3.8
			c1.3-2.8,2.4-5.6,3.5-8.5c0.5-1.3,1-2.6,1.6-3.9c0.5-1.3,1.1-2.6,1.7-3.8c0.2-0.5,0.5-1,0.8-1.6c0.2-0.5,0.5-0.9,0.8-1.3
			c0.3-0.4,0.6-0.7,0.9-1c0.3-0.3,0.6-0.5,1-0.6c0.1,0,0.1,0,0.2-0.1c0.8-0.4,1.3-1.2,1.3-2c0-0.9-0.6-1.7-1.5-2.1h-0.1
			c-0.6-0.2-1.3-0.3-2-0.3c-0.1,0-0.2,0-0.3,0c-0.7,0-1.4,0.2-2.1,0.4c-0.3,0.1-0.7,0.3-1.1,0.5c-0.3,0.2-0.6,0.3-0.8,0.4
			c-0.4,0.2-0.9,0.3-1.3,0.3h-0.1c-0.6,0-1.2-0.1-1.8-0.3c-1-0.3-2-0.6-2.9-1C23.8,50.4,22.7,50.2,21.4,50.2L21.4,50.2z M18.9,69.6
			h0.6c0.3,0,0.6,0,0.8-0.1c0,0.1-0.1,0.2-0.1,0.3c-0.5,1.4-1,2.8-1.6,4.1c-0.5,1.4-1.1,2.7-1.7,4s-1.3,2.5-2,3.6
			c-0.5,0.8-1.2,1.6-2,2.3c-0.6,0.5-1.2,0.8-1.9,0.8c-0.2,0-0.4,0-0.5,0c-0.7,0-1.3-0.1-1.9-0.4c-0.6-0.3-1.1-0.8-1.4-1.5
			c-0.2-0.5-0.3-0.9-0.4-1.5c-0.1-0.6-0.1-1.1,0-1.7s0.2-1.1,0.4-1.7s0.4-1.1,0.7-1.7c0.5-1,1.2-2,2-2.8s1.7-1.5,2.6-2.1
			c1-0.6,2-1,3.1-1.3c0.9-0.2,1.8-0.3,2.8-0.3C18.5,69.6,18.7,69.6,18.9,69.6L18.9,69.6L18.9,69.6z"/>
	</g>
	<g>
		<path class="st2" d="M41.8,83.1c-1.3,0-2.4-0.4-3.2-1.1c-0.3-0.3-0.5-0.6-0.7-0.9c-0.3,0.4-0.6,0.7-1,0.9c-0.9,0.7-1.9,1-3.1,1
			c-2.3,0-3.9-1.1-4.7-3.3c-0.7-2-0.5-4.6,0.5-8c0.3-1,0.7-2,1.1-3c0.4-1,1-1.9,1.6-2.7c0.6-0.8,1.4-1.5,2.2-2
			c0.9-0.6,1.9-0.8,2.9-0.8h1.3c0.3,0,0.7,0.2,0.8,0.5s0.2,0.7,0.1,1c-0.9,1.8-1.7,3.7-2.4,5.6s-1.3,3.7-1.7,5.2s-0.6,2.8-0.7,3.8
			c0,0.2,0,0.3,0,0.4c0.1-0.1,0.2-0.1,0.2-0.2c0.3-0.3,0.7-0.7,1-1.2c0.4-0.5,0.7-1.2,1.1-1.8c0.3-0.6,0.6-1.2,0.8-1.8
			c0-0.1,0.1-0.2,0.1-0.4l2.5-7.4c0.4-1.1,1-1.9,1.9-2.6c0.9-0.7,1.9-1,3-1h2.3c0.3,0,0.6,0.2,0.8,0.4c0.2,0.3,0.2,0.6,0.1,0.9
			c-0.7,2-1.3,3.9-1.9,5.6c-0.3,0.7-0.5,1.5-0.8,2.2c-0.2,0.8-0.5,1.5-0.7,2.1c-0.2,0.7-0.4,1.2-0.6,1.8c-0.2,0.5-0.3,0.9-0.4,1.2
			c-0.3,0.9-0.4,1.4-0.4,1.6c0.1,0,0.1-0.1,0.2-0.1c0.2-0.1,0.5-0.3,1-0.8c0.4-0.4,0.8-0.9,1.2-1.6s0.8-1.5,1.2-2.5
			c0.2-0.5,0.4-0.8,0.8-1c0.2-0.1,0.5-0.2,0.7-0.2s0.3,0,0.5,0.1c0.4,0.1,0.7,0.5,0.9,0.9c0.1,0.4,0.1,0.8,0,1.3
			c-0.9,2.3-2,4.2-3.5,5.7C45.3,82.4,43.6,83.1,41.8,83.1z"/>
		<path class="st0" d="M47.7,64.3c-0.7,2-1.3,3.9-1.9,5.6c-0.3,0.7-0.5,1.5-0.8,2.2c-0.2,0.8-0.5,1.5-0.7,2.1
			c-0.2,0.7-0.4,1.3-0.6,1.8c-0.2,0.5-0.3,0.9-0.4,1.2c-0.4,1.1-0.5,1.8-0.4,2.3s0.4,0.7,0.8,0.7c0.2,0,0.5-0.1,0.9-0.3
			c0.4-0.2,0.8-0.5,1.2-0.9s0.9-1,1.4-1.7s0.9-1.6,1.3-2.7c0.1-0.2,0.2-0.4,0.3-0.5c0.1,0,0.2-0.1,0.3-0.1s0.1,0,0.1,0
			c0.1,0,0.2,0.1,0.3,0.3c0.1,0.2,0,0.4,0,0.6c-0.8,2.2-1.9,4-3.3,5.3c-1.4,1.3-2.9,2-4.4,2c-1.1,0-1.9-0.3-2.5-0.8s-1-1.4-1-2.5
			c-0.6,1.1-1.3,1.9-2,2.5c-0.7,0.5-1.5,0.8-2.5,0.8c-1.9,0-3.1-0.9-3.7-2.6c-0.6-1.7-0.4-4.2,0.5-7.4c0.3-1,0.6-1.9,1.1-2.9
			c0.4-1,0.9-1.8,1.5-2.5s1.2-1.3,1.9-1.8s1.5-0.7,2.4-0.7h1.3c-0.9,1.8-1.7,3.7-2.4,5.6s-1.3,3.7-1.7,5.3c-0.4,1.6-0.7,2.9-0.7,4
			c0,1,0.2,1.6,0.7,1.6c0.4,0,0.8-0.2,1.2-0.6s0.8-0.8,1.2-1.4s0.8-1.2,1.1-1.9c0.4-0.7,0.7-1.4,0.9-2.1c0-0.1,0-0.1,0.1-0.3
			l2.5-7.5c0.3-0.9,0.8-1.5,1.5-2.1c0.7-0.5,1.5-0.8,2.4-0.8h2.1 M47.7,62.3h-2.3c-1.3,0-2.5,0.4-3.6,1.2c-0.5,0.3-0.9,0.7-1.2,1.2
			c0.1-0.5,0-1-0.3-1.4c-0.4-0.6-1-0.9-1.7-0.9h-1.3c-1.2,0-2.4,0.3-3.4,1c-0.9,0.6-1.7,1.3-2.4,2.3c-0.7,0.9-1.2,1.9-1.7,3
			c-0.4,1-0.8,2.1-1.1,3.1c-1.1,3.6-1.2,6.4-0.5,8.6c0.9,2.5,2.9,3.9,5.6,3.9c1.4,0,2.6-0.4,3.7-1.2c0.1-0.1,0.2-0.1,0.3-0.2
			c0,0,0.1,0.1,0.2,0.1c1,0.9,2.3,1.3,3.8,1.3c2.1,0,4.1-0.9,5.8-2.5c1.6-1.5,2.9-3.6,3.8-6.1c0.3-0.8,0.2-1.5,0.1-1.9
			c-0.3-0.7-0.8-1.3-1.5-1.5c-0.2-0.1-0.5-0.1-0.8-0.1c-0.4,0-0.8,0.1-1.2,0.3c-0.4,0.2-0.9,0.6-1.3,1.4c0.1-0.3,0.2-0.6,0.3-0.9
			c0.2-0.7,0.5-1.5,0.7-2.2c0.6-1.7,1.2-3.6,1.9-5.6c0.2-0.6,0.1-1.3-0.3-1.8C49,62.6,48.3,62.3,47.7,62.3L47.7,62.3z M36.5,75.4
			c0.4-1.4,0.9-3,1.6-4.7c0.3-0.7,0.5-1.4,0.8-2L37.1,74c-0.1,0.2-0.1,0.3-0.2,0.4C36.9,74.7,36.7,75,36.5,75.4L36.5,75.4z"/>
	</g>
	<g>
		<path class="st2" d="M51.2,83.1c-0.9,0-1.8-0.2-2.5-0.6s-1.3-1-1.7-1.9c-0.3-0.8-0.4-1.7-0.4-2.8c0.1-1,0.3-2.3,0.8-3.6l5.9-17.5
			c0.5-1.7,1.3-2.9,2.3-3.7s2.4-1.2,4.2-1.2h1c0.3,0,0.6,0.2,0.8,0.4c0.2,0.3,0.2,0.6,0.1,0.9c-1.5,4.4-2.8,8.3-3.9,11.7
			c-0.5,1.5-1,2.9-1.5,4.4c-0.5,1.4-0.9,2.7-1.3,3.9c-0.4,1.2-0.7,2.1-1,2.9c-0.2,0.7-0.4,1.1-0.4,1.2v0.1c-0.3,0.9-0.4,1.3-0.4,1.5
			c0.1,0,0.1-0.1,0.2-0.1c0.3-0.1,0.6-0.4,1-0.8s0.8-0.9,1.2-1.6s0.8-1.5,1.2-2.5c0.2-0.5,0.4-0.8,0.8-1c0.2-0.1,0.5-0.2,0.7-0.2
			s0.3,0,0.5,0.1c0.4,0.1,0.7,0.5,0.9,0.9c0.1,0.4,0.1,0.8,0,1.3c-0.9,2.3-2,4.2-3.5,5.7C54.7,82.4,53,83.1,51.2,83.1z"/>
		<path class="st0" d="M60.9,53c-1.5,4.4-2.8,8.3-3.9,11.7c-0.5,1.5-1,2.9-1.5,4.4c-0.5,1.4-0.9,2.7-1.3,3.9c-0.4,1.2-0.7,2.1-1,2.9
			s-0.4,1.2-0.4,1.3c-0.4,1.1-0.5,1.8-0.4,2.3s0.3,0.7,0.7,0.7c0.2,0,0.5-0.1,0.9-0.3c0.4-0.2,0.8-0.5,1.2-0.9s0.9-1,1.3-1.7
			c0.5-0.7,0.9-1.6,1.3-2.7c0.1-0.2,0.2-0.4,0.3-0.5c0.1,0,0.2-0.1,0.3-0.1s0.1,0,0.1,0c0.1,0,0.2,0.1,0.3,0.3c0.1,0.2,0,0.4,0,0.6
			c-0.8,2.2-1.9,4-3.3,5.3c-1.4,1.3-2.9,2-4.4,2c-0.8,0-1.4-0.1-2-0.4c-0.5-0.3-0.9-0.8-1.2-1.4S47.5,79,47.6,78
			c0.1-1,0.3-2.1,0.7-3.4l5.9-17.5c0.5-1.5,1.1-2.6,2-3.2c0.8-0.6,2-0.9,3.6-0.9L60.9,53 M60.9,51h-1c-2,0-3.6,0.5-4.8,1.4
			s-2,2.3-2.7,4.2L46.5,74c-0.5,1.5-0.8,2.8-0.8,3.9c-0.1,1.3,0.1,2.3,0.5,3.3s1.2,1.9,2.1,2.4c0.8,0.4,1.8,0.7,2.9,0.7
			c2.1,0,4.1-0.9,5.8-2.5c1.6-1.5,2.9-3.6,3.8-6.1c0.3-0.8,0.2-1.5,0-2c-0.3-0.7-0.8-1.3-1.5-1.5c-0.2-0.1-0.5-0.1-0.8-0.1
			c-0.4,0-0.8,0.1-1.2,0.3c-0.4,0.2-0.8,0.5-1.1,1.2c0.4-1.1,0.8-2.3,1.2-3.7c0.5-1.4,1-2.9,1.5-4.4c1.1-3.5,2.5-7.4,3.9-11.7
			c0.2-0.6,0.1-1.3-0.3-1.8C62.2,51.3,61.6,51,60.9,51L60.9,51z"/>
	</g>
	<g>
		<path class="st2" d="M60.7,83.1c-0.9,0-1.8-0.2-2.5-0.6s-1.3-1-1.7-1.9c-0.3-0.6-0.4-1.6-0.3-2.7c0.1-1,0.3-2.3,0.8-3.6l2.5-7.5
			c0.4-1.1,1-1.9,1.9-2.6c0.7-0.5,1.5-0.8,2.3-1c-0.2-0.1-0.3-0.3-0.5-0.4c-0.7-0.7-1-1.7-1-2.7s0.4-2,1.1-2.7
			c0.8-0.8,1.6-1.3,2.6-1.3c0.1,0,0.2,0,0.3,0c0.9,0,1.7,0.3,2.3,1c0.7,0.7,1,1.7,1,2.7s-0.4,2-1.1,2.7c-0.4,0.4-0.8,0.7-1.2,0.9
			c0.1,0.1,0.2,0.1,0.2,0.2c0.2,0.3,0.2,0.6,0.1,0.9c-0.7,2-1.3,3.9-1.9,5.6c-0.3,0.7-0.5,1.5-0.8,2.2c-0.2,0.8-0.5,1.5-0.7,2.1
			c-0.2,0.7-0.4,1.2-0.6,1.8c-0.2,0.5-0.3,0.9-0.4,1.2c-0.3,0.9-0.4,1.4-0.4,1.6c0.1,0,0.1-0.1,0.2-0.1c0.2-0.1,0.5-0.3,1-0.8
			c0.4-0.4,0.8-0.9,1.2-1.6c0.4-0.7,0.8-1.5,1.2-2.5c0.2-0.5,0.4-0.8,0.8-1c0.2-0.1,0.5-0.2,0.7-0.2s0.3,0,0.5,0.1
			c0.4,0.1,0.7,0.5,0.9,0.9c0.1,0.4,0.1,0.8,0,1.3c-0.9,2.3-2,4.2-3.5,5.7C64.2,82.4,62.5,83.1,60.7,83.1z"/>
		<path class="st0" d="M66.2,57.1c0.6,0,1.1,0.2,1.6,0.7s0.7,1.2,0.7,2s-0.3,1.5-0.9,2.1s-1.2,1-1.9,1c-0.1,0-0.2,0-0.2,0
			c-0.6,0-1.1-0.2-1.6-0.7s-0.7-1.2-0.7-2s0.3-1.5,0.9-2.1s1.2-1,1.9-1C66.1,57.1,66.1,57.1,66.2,57.1 M66.6,64.3
			c-0.7,2-1.3,3.9-1.9,5.6c-0.3,0.7-0.5,1.5-0.8,2.2c-0.2,0.8-0.5,1.5-0.7,2.1c-0.2,0.7-0.4,1.3-0.6,1.8s-0.3,0.9-0.4,1.2
			c-0.4,1.1-0.5,1.8-0.4,2.3s0.4,0.7,0.8,0.7c0.2,0,0.5-0.1,0.9-0.3c0.4-0.2,0.8-0.5,1.2-0.9c0.4-0.4,0.9-1,1.4-1.7s0.9-1.6,1.3-2.7
			c0.1-0.2,0.2-0.4,0.3-0.5c0.1,0,0.2-0.1,0.3-0.1c0.1,0,0.1,0,0.1,0c0.1,0,0.2,0.1,0.3,0.3c0.1,0.2,0,0.4,0,0.6
			c-0.8,2.2-1.9,4-3.3,5.3s-2.9,2-4.4,2c-0.8,0-1.4-0.1-2-0.4c-0.5-0.3-0.9-0.8-1.2-1.4c-0.3-0.7-0.4-1.5-0.3-2.4
			c0.1-1,0.3-2.1,0.7-3.4l2.5-7.5c0.3-0.9,0.8-1.5,1.5-2.1c0.7-0.5,1.5-0.8,2.4-0.8h2.3 M66.2,55.1c-0.1,0-0.3,0-0.4,0
			c-1.2,0.1-2.3,0.7-3.2,1.6l0,0c-0.9,1-1.3,2.1-1.4,3.4c0,1,0.2,1.9,0.6,2.7c-0.4,0.2-0.8,0.4-1.1,0.7c-1,0.8-1.7,1.8-2.2,3
			c0,0,0,0,0,0.1L56,74c-0.5,1.5-0.8,2.7-0.8,3.9c-0.1,1.3,0.1,2.3,0.5,3.3s1.2,1.9,2.1,2.4c0.8,0.4,1.8,0.7,2.9,0.7
			c2.1,0,4.1-0.9,5.8-2.5c1.6-1.5,2.9-3.6,3.8-6.1c0.3-0.8,0.2-1.5,0.1-1.9c-0.3-0.7-0.8-1.3-1.5-1.5c-0.2-0.1-0.5-0.1-0.8-0.1
			c-0.4,0-0.8,0.1-1.2,0.3c-0.4,0.2-0.9,0.6-1.3,1.4c0.1-0.3,0.2-0.6,0.3-0.9c0.2-0.7,0.5-1.5,0.7-2.2c0.6-1.7,1.2-3.6,1.9-5.6
			c0.1-0.4,0.1-0.8,0-1.2c0.2-0.2,0.4-0.3,0.6-0.5l0,0c0.9-1,1.3-2.1,1.4-3.4c0-1.3-0.4-2.5-1.2-3.4l0,0
			C68.4,55.5,67.4,55.1,66.2,55.1L66.2,55.1z"/>
	</g>
	<g>
		<path class="st2" d="M74.9,83.4c-2.3,0-4.2-0.5-5.6-1.6c-1.4-1-2.3-2.4-2.7-4c-0.4-1.5-0.5-3.2-0.1-4.9c0.4-1.7,1.1-3.3,2.1-4.8
			c1.1-1.5,2.4-2.7,4.1-3.7s3.7-1.5,5.8-1.5c1.7,0,3,0.3,3.9,1c1,0.7,1.6,1.6,1.7,2.7c0.2,1,0,2.1-0.6,3.3c-0.5,1.1-1.3,2.1-2.3,3
			s-2.3,1.7-3.8,2.4c-1.2,0.5-2.6,0.9-4.1,1.1c0.1,0.3,0.1,0.6,0.2,0.8c0.1,0.5,0.4,0.9,0.7,1.3c0.3,0.4,0.6,0.6,1,0.9
			c0.4,0.2,0.9,0.3,1.5,0.3c0.5,0,1.1-0.1,1.7-0.3c0.6-0.2,1.2-0.6,1.8-1c0.6-0.5,1.2-1.1,1.8-1.8c0.6-0.7,1.1-1.5,1.5-2.5
			c0.2-0.5,0.5-0.8,0.8-0.9c0.2-0.1,0.5-0.2,0.7-0.2s0.3,0,0.5,0.1c0.4,0.2,0.8,0.5,0.9,1c0.1,0.4,0.1,0.8-0.1,1.2
			c-0.5,1.2-1.1,2.3-1.9,3.3s-1.7,1.9-2.7,2.6s-2.1,1.3-3.3,1.7C77.5,83.2,76.2,83.4,74.9,83.4z M78,66.2c-0.5,0-1.1,0.2-1.5,0.6
			c-0.6,0.5-1.1,1.1-1.5,1.8c-0.5,0.8-0.8,1.7-1.1,2.7c-0.2,0.6-0.3,1.1-0.4,1.7c0.4-0.1,0.7-0.3,1-0.5c0.7-0.4,1.4-1,2-1.6
			s1-1.2,1.4-1.9c0.3-0.6,0.6-1.2,0.6-1.8c0-0.3,0.1-0.7-0.1-0.9C78.4,66.2,78.3,66.2,78,66.2z"/>
		<path class="st0" d="M78.6,63.8c1.5,0,2.6,0.3,3.3,0.8c0.8,0.5,1.2,1.2,1.3,2c0.1,0.8,0,1.7-0.5,2.7s-1.2,1.9-2.1,2.7
			c-0.9,0.9-2.1,1.6-3.6,2.2s-3,1-4.8,1.1c0.1,0.7,0.2,1.4,0.4,2c0.2,0.6,0.5,1.2,0.8,1.7c0.4,0.5,0.8,0.8,1.4,1.1
			c0.5,0.3,1.2,0.4,1.9,0.4c0.6,0,1.3-0.1,2-0.4c0.7-0.2,1.4-0.6,2.1-1.1s1.3-1.2,2-1.9c0.6-0.8,1.2-1.7,1.7-2.7
			c0.1-0.2,0.2-0.4,0.4-0.5c0.1,0,0.2-0.1,0.3-0.1c0.1,0,0.1,0,0.1,0c0.1,0,0.2,0.1,0.3,0.3c0,0.2,0,0.4-0.1,0.6
			c-0.5,1.1-1,2.1-1.8,3.1c-0.7,0.9-1.5,1.7-2.5,2.4c-0.9,0.7-1.9,1.2-3,1.5c-1.1,0.4-2.2,0.5-3.4,0.5c-2.1,0-3.7-0.5-5-1.4
			c-1.2-0.9-2-2.1-2.4-3.4C67,76,67,74.5,67.3,72.9s1-3.1,2-4.5s2.2-2.5,3.8-3.4C74.9,64.3,76.6,63.8,78.6,63.8 M72.4,74.2
			c0.9-0.1,1.8-0.4,2.7-0.9c0.8-0.5,1.6-1.1,2.2-1.7c0.6-0.7,1.1-1.4,1.5-2.1c0.4-0.8,0.7-1.4,0.8-2.1c0.1-0.6,0-1.2-0.2-1.6
			s-0.6-0.6-1.2-0.6c-0.8,0-1.5,0.3-2.2,0.8s-1.3,1.2-1.8,2.1c-0.6,0.9-1,1.8-1.3,2.9C72.6,72.1,72.4,73.1,72.4,74.2 M78.6,61.8
			c-2.4,0-4.5,0.6-6.4,1.6c-1.8,1.1-3.3,2.4-4.4,4s-1.9,3.3-2.3,5.2c-0.4,1.9-0.4,3.7,0.1,5.4c0.5,1.8,1.6,3.3,3.1,4.5
			c1.6,1.2,3.6,1.8,6.2,1.8c1.4,0,2.7-0.2,4-0.6s2.5-1,3.6-1.8s2.1-1.7,2.9-2.8c0.8-1.1,1.5-2.3,2-3.5c0,0,0,0,0-0.1
			c0.2-0.6,0.3-1.2,0.1-1.8c-0.2-0.8-0.8-1.4-1.5-1.7c-0.3-0.1-0.5-0.1-0.8-0.1c-0.4,0-0.8,0.1-1.2,0.3c-0.5,0.3-1,0.7-1.3,1.4
			c-0.4,0.9-0.9,1.7-1.4,2.3c-0.5,0.6-1.1,1.2-1.6,1.6s-1.1,0.7-1.6,0.9c-0.5,0.2-0.9,0.3-1.3,0.3s-0.8-0.1-1-0.2
			c-0.3-0.1-0.5-0.3-0.7-0.6c-0.2-0.2-0.3-0.4-0.4-0.7c1.1-0.2,2.2-0.5,3.2-1c1.6-0.7,3-1.6,4.1-2.5c1.1-1,2-2.2,2.6-3.4
			c0.6-1.3,0.9-2.6,0.7-3.9c-0.2-1.3-1-2.5-2.1-3.4C82,62.2,80.6,61.8,78.6,61.8L78.6,61.8z M75,70.9c0.2-0.7,0.5-1.3,0.8-1.8
			c0.4-0.7,0.8-1.2,1.3-1.6c0.1-0.1,0.2-0.2,0.3-0.2c-0.1,0.4-0.3,0.8-0.5,1.2c-0.3,0.6-0.7,1.2-1.2,1.7
			C75.5,70.4,75.3,70.7,75,70.9L75,70.9z"/>
	</g>
	<g>
		<path class="st2" d="M87.3,83.1c-0.9,0-1.8-0.2-2.5-0.6c-0.8-0.4-1.3-1-1.7-1.9c-0.3-0.8-0.4-1.7-0.4-2.8c0.1-1,0.3-2.3,0.8-3.6
			c0.2-0.5,0.4-1.2,0.6-1.9c0.2-0.7,0.5-1.4,0.7-2.2c0.3-0.8,0.5-1.6,0.8-2.4c0.1-0.3,0.2-0.7,0.4-1h-0.4c-0.3,0-0.7-0.2-0.8-0.5
			s-0.2-0.6-0.1-1l0.6-1.2c0.2-0.4,0.5-0.6,0.9-0.6h1l0.2-0.4c0.3-1,0.7-1.9,1.1-2.6c0.5-0.8,1-1.4,1.7-1.9c0.6-0.5,1.4-0.8,2.2-1
			c0.8-0.2,1.7-0.3,2.8-0.3c0.3,0,0.6,0.2,0.8,0.4s0.3,0.6,0.2,0.9c-0.2,0.6-0.4,1.2-0.6,1.8s-0.4,1.2-0.7,2
			c-0.1,0.3-0.2,0.6-0.3,0.9l1.3-0.1H96c0.3,0,0.6,0.2,0.8,0.4c0.2,0.3,0.2,0.7,0,1L96,66c-0.2,0.3-0.5,0.5-0.9,0.5h-1.7l-3.6,10.7
			c-0.3,0.9-0.4,1.3-0.4,1.6c0.1,0,0.1-0.1,0.2-0.1c0.3-0.1,0.6-0.4,1-0.8s0.8-0.9,1.2-1.6c0.4-0.7,0.8-1.5,1.2-2.5
			c0.2-0.5,0.4-0.8,0.8-1c0.2-0.1,0.5-0.2,0.7-0.2s0.3,0,0.5,0.1c0.3,0.1,0.6,0.3,0.9,0.8c0.1,0.3,0.2,0.7,0,1.3
			c-0.9,2.3-2,4.3-3.5,5.7C90.9,82.4,89.1,83.1,87.3,83.1z"/>
		<path class="st0" d="M95.3,58.4c-0.2,0.6-0.4,1.2-0.6,1.8s-0.4,1.2-0.7,2c-0.3,0.8-0.5,1.6-0.8,2.4l2.8-0.3l-0.8,1.5h-2.4L89,77.1
			c-0.4,1.1-0.5,1.8-0.4,2.3s0.3,0.7,0.7,0.7c0.2,0,0.5-0.1,0.9-0.3c0.4-0.2,0.8-0.5,1.2-0.9c0.4-0.4,0.9-1,1.3-1.7
			c0.5-0.7,0.9-1.6,1.3-2.7c0.1-0.2,0.2-0.4,0.3-0.5c0.1,0,0.2-0.1,0.3-0.1c0.1,0,0.1,0,0.1,0c0.1,0,0.2,0.1,0.3,0.3
			c0.1,0.2,0.1,0.4,0,0.6c-0.8,2.2-1.9,4-3.3,5.3s-2.9,2-4.4,2c-0.8,0-1.4-0.1-2-0.4s-1-0.8-1.2-1.4c-0.3-0.6-0.4-1.4-0.3-2.4
			s0.3-2.1,0.8-3.4c0.2-0.6,0.4-1.2,0.6-1.9c0.2-0.7,0.5-1.4,0.7-2.2c0.3-0.8,0.5-1.6,0.8-2.4s0.6-1.6,0.8-2.4h-1.8l0.6-1.2h1.6
			l0.4-1.1c0.3-1,0.7-1.8,1.1-2.4c0.4-0.7,0.9-1.2,1.4-1.6c0.5-0.4,1.2-0.7,1.9-0.8C93.4,58.5,94.2,58.4,95.3,58.4L95.3,58.4
			 M95.3,56.4L95.3,56.4c-1.2,0-2.2,0.1-3,0.3c-1,0.2-1.8,0.6-2.6,1.1c-0.8,0.5-1.4,1.3-2,2.2c-0.4,0.7-0.8,1.6-1.1,2.6h-0.2
			c-0.8,0-1.5,0.5-1.8,1.2L83.9,65c-0.3,0.6-0.2,1.3,0.1,1.9c0.2,0.3,0.5,0.5,0.8,0.7c-0.3,0.8-0.5,1.6-0.8,2.3
			c-0.3,0.8-0.5,1.5-0.7,2.2s-0.4,1.3-0.6,1.9c-0.5,1.4-0.8,2.7-0.8,3.8c-0.1,1.3,0,2.4,0.4,3.3c0.4,1,1.2,1.9,2.1,2.4
			c0.8,0.4,1.8,0.7,2.9,0.7c2.1,0,4-0.9,5.8-2.5c1.6-1.5,2.9-3.6,3.8-6.1c0.3-0.9,0.2-1.6,0-2.1c-0.3-0.7-0.8-1.2-1.5-1.4
			C95.2,72,94.9,72,94.6,72c-0.4,0-0.8,0.1-1.2,0.3c-0.4,0.2-0.8,0.5-1.2,1.2l1.9-5.6h1c0.7,0,1.4-0.4,1.8-1l0.8-1.5
			c0.4-0.6,0.3-1.4-0.1-2.1c-0.4-0.5-0.9-0.9-1.6-0.9c0.2-0.5,0.4-1,0.5-1.4c0.2-0.7,0.5-1.3,0.6-1.9c0.2-0.6,0.1-1.3-0.3-1.8
			C96.5,56.7,95.9,56.4,95.3,56.4L95.3,56.4z"/>
	</g>
	<g>
		<path class="st2" d="M107.1,83.1c-1.3,0-2.4-0.4-3.2-1.1c-0.4-0.3-0.7-0.7-0.9-1.2c-0.4,0.4-0.8,0.7-1.2,1
			c-1.1,0.8-2.4,1.3-3.8,1.3c-1.6,0-2.8-0.6-3.7-1.7c-0.8-1-1.3-2.3-1.4-3.8c-0.1-1.4,0.1-3,0.6-4.7s1.3-3.2,2.4-4.6
			s2.6-2.6,4.3-3.6c1.8-1,3.9-1.4,6.3-1.4c1.7,0,3.1,0.2,4.1,0.7c1,0.5,1.9,1.3,2.5,2.3c0.2,0.2,0.2,0.6,0.1,0.8
			c-0.6,1.8-1.1,3.4-1.6,4.8c-0.2,0.6-0.4,1.2-0.6,1.8c-0.2,0.6-0.4,1.2-0.6,1.7l-0.5,1.3c-0.1,0.3-0.2,0.5-0.2,0.6v0.1
			c-0.3,0.9-0.4,1.3-0.4,1.5c0.1,0,0.1-0.1,0.2-0.1c0.3-0.1,0.6-0.4,1-0.8s0.8-0.9,1.2-1.6c0.4-0.7,0.8-1.5,1.2-2.5
			c0.2-0.6,0.6-0.9,0.9-1c0.2-0.1,0.5-0.2,0.7-0.2s0.3,0,0.5,0.1s0.6,0.3,0.8,0.8c0.1,0.3,0.2,0.7,0,1.3c-0.9,2.3-2,4.3-3.5,5.7
			C110.6,82.4,108.9,83.1,107.1,83.1z M105.8,66.5c-0.6,0-1.1,0.3-1.7,0.8c-0.7,0.7-1.3,1.5-1.9,2.5s-1.1,2.2-1.5,3.4
			c-0.4,1.2-0.7,2.4-0.9,3.4c-0.2,1-0.2,1.8-0.1,2.4c0,0.1,0,0.2,0.1,0.2s0.3-0.1,0.4-0.2c0.2-0.1,0.5-0.4,0.7-0.6
			c0.3-0.3,0.5-0.7,0.8-1.1s0.5-0.9,0.7-1.3c0.5-1.1,1.1-2.3,1.6-3.7l2-5.8C106,66.5,105.9,66.5,105.8,66.5z"/>
		<path class="st0" d="M106.3,64.3c1.5,0,2.8,0.2,3.6,0.6c0.9,0.4,1.6,1.1,2.1,2c-0.6,1.8-1.1,3.4-1.6,4.8c-0.2,0.6-0.4,1.2-0.6,1.8
			c-0.2,0.6-0.4,1.2-0.6,1.7s-0.3,0.9-0.5,1.3c-0.1,0.4-0.2,0.6-0.2,0.7c-0.4,1.1-0.5,1.8-0.4,2.3s0.3,0.7,0.7,0.7
			c0.2,0,0.5-0.1,0.9-0.3c0.4-0.2,0.8-0.5,1.2-0.9c0.4-0.4,0.9-1,1.3-1.7c0.5-0.7,0.9-1.6,1.3-2.7c0.1-0.2,0.2-0.4,0.4-0.5
			c0.1,0,0.2-0.1,0.3-0.1h0.1c0.1,0,0.2,0.1,0.3,0.3c0.1,0.2,0.1,0.4,0,0.6c-0.8,2.2-1.9,4-3.3,5.3s-2.9,2-4.4,2
			c-1.1,0-1.9-0.3-2.5-0.8s-0.9-1.4-1-2.6c-0.7,0.9-1.4,1.6-2.4,2.3c-0.9,0.7-2,1.1-3.2,1.1c-1.3,0-2.2-0.4-2.9-1.3
			c-0.7-0.9-1.1-2-1.2-3.3s0.1-2.8,0.5-4.3s1.2-3,2.2-4.3s2.4-2.4,4-3.3C102.2,64.7,104.1,64.3,106.3,64.3 M99.7,80.2
			c0.3,0,0.7-0.1,1-0.3c0.3-0.2,0.6-0.5,0.9-0.8c0.3-0.4,0.6-0.8,0.9-1.2c0.3-0.5,0.5-0.9,0.8-1.4c0.5-1.1,1.1-2.3,1.6-3.8l2.2-6.4
			c-0.1-0.1-0.2-0.3-0.4-0.5c-0.2-0.2-0.5-0.3-0.9-0.3c-0.8,0-1.6,0.4-2.4,1.1s-1.5,1.6-2.1,2.7s-1.2,2.3-1.6,3.6
			c-0.4,1.3-0.8,2.5-0.9,3.6c-0.2,1.1-0.2,2-0.1,2.7C98.9,79.8,99.2,80.2,99.7,80.2 M106.3,62.3c-2.6,0-4.8,0.5-6.7,1.6
			c-1.9,1-3.4,2.3-4.6,3.8s-2.1,3.2-2.6,5s-0.7,3.5-0.6,5c0.1,1.7,0.7,3.2,1.7,4.4c1.1,1.4,2.6,2.1,4.5,2.1c1.7,0,3.1-0.5,4.4-1.5
			c0.1-0.1,0.3-0.2,0.4-0.3c0.1,0.2,0.3,0.3,0.4,0.4c1,0.9,2.3,1.3,3.9,1.3c2.1,0,4-0.9,5.8-2.5c1.6-1.5,2.9-3.6,3.8-6.1
			c0.3-0.9,0.2-1.6,0-2.1c-0.3-0.7-0.8-1.1-1.4-1.4c-0.2-0.1-0.5-0.2-0.8-0.2c-0.4,0-0.7,0.1-1.1,0.3c-0.4,0.2-0.9,0.5-1.2,1.2
			c0.1-0.4,0.2-0.7,0.4-1.1c0.5-1.4,1-2.9,1.6-4.8c0.2-0.6,0.1-1.2-0.2-1.7c-0.7-1.2-1.7-2.1-3-2.7
			C109.7,62.5,108.2,62.3,106.3,62.3L106.3,62.3z M100.8,76.9L100.8,76.9c0.2-1.1,0.4-2.1,0.8-3.3s0.9-2.2,1.5-3.2
			c0.3-0.6,0.7-1.1,1-1.5l-1.1,3.3c-0.5,1.3-1,2.5-1.5,3.5C101.3,76,101.1,76.4,100.8,76.9C100.8,76.8,100.8,76.8,100.8,76.9
			L100.8,76.9z"/>
	</g>
</g>
<g>
	<g>
		<path class="st2" d="M172.5,89.3c-1.7,0-3.3-0.3-4.7-0.8c-1.8-0.6-3.2-1.5-4.3-2.8c-1.1-1.2-1.8-2.6-2.3-4.1s-0.7-3-0.6-4.6
			c0.1-1.6,0.4-3,0.9-4.3c0.6-1.4,1.4-2.8,2.6-4c1.1-1.2,2.4-2.2,3.9-3s3.1-1.4,4.9-1.7c0.9-0.2,1.8-0.3,2.7-0.3s1.8,0.1,2.7,0.2
			c0.4,0.1,0.8,0.2,1.2,0.3c0.5,0.1,1,0.3,1.5,0.5s1,0.4,1.5,0.7c0.5,0.3,1,0.7,1.3,1.1c0.5,0.6,0.4,1.1,0.2,1.4
			c-0.1,0.2-0.4,0.7-1.1,0.7h-0.7c-0.3,0-0.5,0-0.8,0c-1.3,0-2.6,0.1-3.9,0.4c-1.5,0.3-2.9,0.8-4.3,1.4c-1.3,0.6-2.5,1.4-3.6,2.3
			c-1,0.9-1.9,1.9-2.7,3.1c-0.4,0.6-0.7,1.2-0.9,1.8c-0.3,0.6-0.4,1.2-0.5,1.8c-0.1,0.6-0.1,1.2,0,1.9c0.1,0.6,0.3,1.2,0.6,1.7
			c0.5,1,1.3,1.7,2.5,2.1c1,0.4,2,0.5,3.1,0.5c0.3,0,0.5,0,0.8,0c1.3-0.1,2.4-0.5,3.4-1.2c1-0.8,1.9-1.6,2.7-2.5
			c1-1.2,1.9-2.4,2.6-3.7c0.8-1.3,1.5-2.7,2.2-4.1s1.3-2.8,2-4.2c0.6-1.4,1.3-2.8,2-4.2c0.7-1.4,1.5-2.8,2.3-4.2s1.7-2.7,2.8-4
			c0.1-0.1,0.1-0.1,0.2-0.2c-0.3,0-0.6,0-0.9,0c-1.1,0-2.1,0.1-3.2,0.1c-1,0.1-2.1,0.2-3.1,0.3s-2,0.3-3,0.6
			c-0.8,0.2-1.6,0.5-2.3,0.8s-1.5,0.6-2.2,1c-0.2,0.1-0.4,0.1-0.6,0.1c-0.5,0-0.9-0.2-1.1-0.6c-0.2-0.3-0.3-0.7-0.3-1.1
			c0-0.3,0-0.5,0.1-0.8c0-0.1,0-0.2,0-0.3c0,0,0-0.1,0-0.2c0.3-1.1,0.8-2.2,1.7-3.1c0.9-0.9,2-1.6,3.2-2.1s2.5-0.8,3.8-0.8
			c0.2,0,0.4,0,0.6,0c1.3,0,2.6,0.2,3.8,0.6c1.2,0.4,2.5,0.7,3.7,1c0.8,0.2,1.7,0.3,2.6,0.3h0.1c0.8,0,1.6-0.1,2.4-0.4
			c0.3-0.1,0.7-0.3,1.1-0.4c0.5-0.2,0.8-0.3,1.2-0.4c0.7-0.2,1.4-0.3,2.1-0.4c0.1,0,0.2,0,0.3,0c0.6,0,1.3,0.1,1.9,0.3
			c0.9,0.3,1,1,1,1.2c0,0.5-0.3,1-0.8,1.2c-0.7,0.2-1.2,0.5-1.7,0.8c-0.5,0.4-1,0.8-1.4,1.2s-0.8,0.9-1.1,1.4
			c-0.4,0.6-0.7,1.1-1,1.6c-0.7,1.3-1.4,2.6-2.1,3.8c-0.7,1.3-1.3,2.6-1.9,3.9c-1.4,2.8-2.8,5.7-4.4,8.4c-0.8,1.3-1.6,2.6-2.4,3.8
			c-0.8,1.3-1.8,2.5-2.9,3.7c-1.1,1.2-2.3,2.3-3.7,3.3s-3,1.9-4.8,2.4C175.7,89.1,174.1,89.3,172.5,89.3z"/>
		<path class="st0" d="M185.2,52.2c1.2,0,2.3,0.2,3.4,0.5c1.2,0.4,2.5,0.8,3.8,1.1c0.9,0.2,1.8,0.3,2.8,0.3h0.1
			c0.9,0,1.8-0.2,2.7-0.5c0.3-0.1,0.7-0.3,1.1-0.4c0.4-0.2,0.8-0.3,1.1-0.4c0.6-0.2,1.2-0.3,1.9-0.3c0.1,0,0.2,0,0.3,0
			c0.5,0,1.1,0.1,1.6,0.2c0.2,0.1,0.3,0.1,0.3,0.2s-0.1,0.2-0.2,0.2c-0.7,0.2-1.4,0.6-1.9,0.9c-0.6,0.4-1.1,0.8-1.5,1.3
			s-0.8,1-1.2,1.6s-0.7,1.1-1,1.6c-0.7,1.3-1.5,2.6-2.1,3.9c-0.7,1.3-1.3,2.6-1.9,3.9c-1.4,2.8-2.8,5.6-4.3,8.3
			c-0.7,1.3-1.5,2.5-2.4,3.8c-0.8,1.3-1.7,2.4-2.8,3.6c-1,1.1-2.2,2.2-3.6,3.2c-1.4,1-2.8,1.7-4.5,2.3c-1.4,0.4-2.8,0.6-4.4,0.6
			s-3-0.2-4.4-0.7c-1.6-0.5-2.9-1.4-3.9-2.5s-1.7-2.4-2.1-3.8c-0.4-1.4-0.6-2.8-0.6-4.2s0.3-2.8,0.8-4c0.5-1.3,1.3-2.6,2.4-3.7
			c1.1-1.1,2.3-2.1,3.7-2.8c1.4-0.8,2.9-1.3,4.6-1.6c0.8-0.2,1.7-0.2,2.6-0.2c0.8,0,1.6,0.1,2.5,0.2c0.3,0.1,0.7,0.1,1.1,0.3
			c0.4,0.1,0.9,0.3,1.4,0.4c0.5,0.2,0.9,0.4,1.3,0.6c0.4,0.3,0.8,0.5,1,0.9c0.2,0.3,0.2,0.4-0.1,0.4s-0.5,0-0.7,0
			c-0.3,0-0.5,0-0.7,0c-1.4,0-2.7,0.1-4.1,0.4c-1.6,0.3-3.1,0.8-4.5,1.5s-2.7,1.5-3.8,2.5s-2.1,2.1-2.9,3.3c-0.4,0.6-0.7,1.3-1,1.9
			c-0.3,0.7-0.5,1.4-0.6,2.1s-0.1,1.4,0,2.1s0.3,1.4,0.7,2.1c0.6,1.2,1.6,2.1,3,2.6c1.1,0.4,2.2,0.6,3.4,0.6c0.3,0,0.6,0,0.8,0
			c1.5-0.1,2.8-0.5,3.9-1.3c1.1-0.8,2-1.7,2.8-2.6c1-1.2,1.9-2.5,2.7-3.9s1.5-2.7,2.2-4.1s1.4-2.8,2-4.2c0.6-1.4,1.3-2.8,2-4.2
			c0.7-1.4,1.5-2.8,2.2-4.1c0.8-1.3,1.7-2.6,2.7-3.9c0.6-0.7,1.2-1.4,1.8-1.9c-1.1,0.1-2.2,0.1-3.3,0.1s-2.2,0.1-3.2,0.1
			c-1.1,0.1-2.1,0.2-3.2,0.3c-1,0.1-2.1,0.3-3.1,0.6c-0.9,0.2-1.7,0.5-2.4,0.8c-0.8,0.3-1.5,0.6-2.3,1c-0.1,0-0.2,0-0.2,0
			c-0.1,0-0.2,0-0.2-0.1c-0.1-0.1-0.1-0.3-0.1-0.6c0-0.2,0-0.4,0.1-0.7c0-0.2,0.1-0.4,0.1-0.4c0.2-1,0.7-1.9,1.4-2.6
			c0.8-0.8,1.7-1.4,2.9-1.8c1.1-0.4,2.3-0.7,3.5-0.8C184.8,52.2,185,52.2,185.2,52.2 M185.2,50.2c-0.2,0-0.4,0-0.6,0
			c-1.4,0.1-2.8,0.4-4.1,0.9c-1.4,0.5-2.6,1.3-3.5,2.2c0,0,0,0-0.1,0.1c-1,1.1-1.6,2.3-1.9,3.6c0,0.1,0,0.2,0,0.3s0,0.1,0,0.2
			c-0.1,0.3-0.1,0.6-0.1,1c0,0.6,0.1,1.1,0.4,1.6c0.4,0.7,1.1,1.1,1.9,1.1c0.3,0,0.7-0.1,1-0.2h0.1c0.7-0.3,1.4-0.7,2.2-0.9
			c0.7-0.3,1.4-0.5,2.2-0.7c1-0.3,1.9-0.5,2.8-0.6c1-0.1,2-0.2,3-0.3c0.6,0,1.3-0.1,2-0.1c-0.6,0.9-1.2,1.8-1.8,2.7
			c-0.8,1.4-1.6,2.8-2.3,4.2c-0.4,0.8-0.8,1.7-1.2,2.5c0.1-0.5,0-1.1-0.6-1.8c-0.4-0.5-0.9-0.9-1.6-1.3c-0.5-0.3-1.1-0.6-1.6-0.8
			s-1.1-0.4-1.6-0.5s-0.9-0.2-1.3-0.3c-1-0.2-1.9-0.2-2.8-0.2c-1,0-2,0.1-2.9,0.3c-1.9,0.3-3.6,1-5.2,1.8c-1.6,0.9-3,2-4.2,3.2
			c-1.2,1.3-2.1,2.8-2.8,4.3c-0.6,1.4-0.9,3-1,4.7s0.2,3.3,0.7,4.9s1.4,3.1,2.5,4.5c1.2,1.4,2.8,2.4,4.8,3.1c1.5,0.5,3.2,0.8,5,0.8
			s3.4-0.2,5-0.7c1.9-0.6,3.6-1.5,5.1-2.6s2.8-2.2,3.9-3.5c1.1-1.2,2.1-2.5,3-3.8c0.8-1.3,1.6-2.6,2.4-3.9c1.6-2.8,3-5.6,4.4-8.5
			c0.6-1.3,1.3-2.6,1.9-3.9c0.6-1.3,1.3-2.6,2.1-3.8c0.3-0.5,0.6-1,1-1.6c0.3-0.5,0.6-0.9,1-1.3c0.3-0.4,0.7-0.7,1.2-1
			c0.4-0.3,0.9-0.5,1.4-0.7c0,0,0.1,0,0.1-0.1c0.9-0.4,1.4-1.2,1.4-2.1c0-0.8-0.4-1.7-1.6-2.1c0,0,0,0-0.1,0
			c-0.7-0.2-1.4-0.3-2.2-0.3c-0.1,0-0.2,0-0.4,0c-0.8,0-1.6,0.2-2.3,0.4c-0.4,0.1-0.8,0.3-1.3,0.5c-0.4,0.2-0.7,0.3-1,0.4
			c-0.6,0.2-1.3,0.3-2,0.3h-0.1c-0.9,0-1.7-0.1-2.4-0.3c-1.3-0.3-2.5-0.6-3.7-1C188,50.4,186.6,50.2,185.2,50.2L185.2,50.2z
			 M182.1,69.6h0.7c0.7,0,1.3-0.3,1.7-0.7c-0.1,0.2-0.2,0.5-0.3,0.7c-0.6,1.4-1.3,2.8-1.9,4.1c-0.7,1.4-1.4,2.7-2.2,4
			c-0.7,1.3-1.6,2.5-2.5,3.6c-0.7,0.8-1.5,1.6-2.5,2.3c-0.8,0.6-1.7,0.9-2.8,1c-0.3,0-0.5,0-0.7,0c-0.9,0-1.9-0.2-2.7-0.5
			c-0.9-0.3-1.5-0.8-1.9-1.6c-0.2-0.5-0.4-0.9-0.4-1.4c-0.1-0.5-0.1-1.1,0-1.6s0.2-1.1,0.5-1.6c0.2-0.6,0.5-1.1,0.9-1.6
			c0.7-1,1.5-2,2.5-2.8s2.1-1.6,3.4-2.2c1.3-0.6,2.6-1.1,4-1.3c1.2-0.2,2.4-0.4,3.7-0.4C181.6,69.6,181.8,69.6,182.1,69.6
			L182.1,69.6L182.1,69.6z"/>
	</g>
	<g>
		<path class="st2" d="M210.4,83.1c-1.5,0-2.8-0.3-3.7-1c-0.5-0.3-0.8-0.7-1.1-1.2c-0.5,0.5-1,0.9-1.5,1.2c-1,0.6-2.2,1-3.6,1
			c-3.5,0-4.9-1.7-5.6-3.2c-0.9-2-0.7-4.7,0.6-8.1c0.4-1,0.8-2,1.4-3c0.6-1,1.2-2,2-2.7c0.8-0.8,1.7-1.5,2.6-2
			c1-0.5,2.2-0.8,3.4-0.8h1.6c0.4,0,0.7,0.2,0.9,0.5s0.2,0.7,0,1c-1.1,1.8-2.1,3.6-3,5.6c-0.9,1.9-1.6,3.6-2.1,5.2
			c-0.5,1.5-0.8,2.8-0.8,3.7c0,0.2,0,0.4,0,0.5c0.2,0,0.5-0.1,0.8-0.3c0.4-0.3,0.9-0.7,1.3-1.3c0.5-0.6,0.9-1.2,1.3-1.8
			c0.4-0.6,0.7-1.2,1-1.8c0-0.2,0.1-0.3,0.2-0.4l3.1-7.4c0.5-1.1,1.3-1.9,2.3-2.5s2.2-0.9,3.5-0.9h2.8c0.3,0,0.6,0.2,0.8,0.4
			c0.2,0.3,0.2,0.6,0.1,0.9c-0.9,2-1.6,3.9-2.3,5.6c-0.3,0.7-0.6,1.5-0.9,2.2c-0.3,0.8-0.6,1.5-0.9,2.1c-0.3,0.7-0.5,1.2-0.7,1.8
			c-0.2,0.5-0.4,0.9-0.5,1.2c-0.4,1-0.5,1.4-0.5,1.6c0.1,0,0.3-0.1,0.7-0.2c0.4-0.2,0.8-0.4,1.3-0.8s1-0.9,1.5-1.6s1-1.5,1.5-2.5
			c0.3-0.6,0.7-0.8,1-1c0.2-0.1,0.5-0.1,0.7-0.1s0.3,0,0.4,0.1c0.4,0.1,0.8,0.4,1,0.9c0.1,0.3,0.2,0.8-0.1,1.4
			c-1.1,2.3-2.5,4.3-4.4,5.7C214.6,82.4,212.6,83.1,210.4,83.1z"/>
		<path class="st0" d="M217.8,64.3c-0.9,2-1.6,3.9-2.3,5.6c-0.3,0.7-0.6,1.5-0.9,2.2s-0.6,1.5-0.9,2.1s-0.5,1.2-0.7,1.8
			c-0.2,0.5-0.4,0.9-0.5,1.2c-0.5,1.1-0.6,1.8-0.5,2.3s0.4,0.7,0.9,0.7c0.3,0,0.7-0.1,1.1-0.3c0.5-0.2,1-0.5,1.5-0.9
			c0.6-0.4,1.1-1,1.7-1.7c0.6-0.7,1.1-1.6,1.6-2.7c0.1-0.2,0.2-0.4,0.4-0.5c0.1,0,0.2-0.1,0.3-0.1s0.1,0,0.2,0
			c0.2,0,0.3,0.1,0.3,0.3c0.1,0.2,0.1,0.4-0.1,0.6c-1,2.2-2.4,4-4.1,5.3c-1.7,1.3-3.5,2-5.5,2c-1.3,0-2.4-0.3-3.1-0.8
			c-0.8-0.5-1.2-1.4-1.3-2.5c-0.7,1.1-1.6,1.9-2.4,2.5c-0.9,0.5-1.9,0.8-3.1,0.8c-2.3,0-3.9-0.9-4.6-2.6c-0.7-1.7-0.5-4.2,0.6-7.4
			c0.4-1,0.8-1.9,1.3-2.9s1.1-1.8,1.8-2.5s1.5-1.3,2.4-1.8s1.9-0.7,2.9-0.7h1.6c-1.1,1.8-2.1,3.7-3,5.6s-1.6,3.7-2.2,5.3
			c-0.5,1.6-0.8,2.9-0.9,4c-0.1,1,0.2,1.6,0.9,1.6c0.5,0,1-0.2,1.5-0.6s1-0.8,1.5-1.4s0.9-1.2,1.4-1.9c0.4-0.7,0.8-1.4,1.1-2.1
			c0-0.1,0-0.1,0.1-0.3l3.1-7.5c0.4-0.9,1-1.5,1.9-2.1c0.9-0.5,1.9-0.8,3-0.8h3 M217.8,62.3H215c-1.5,0-2.8,0.4-4,1.1
			c-1.2,0.7-2.1,1.7-2.7,2.9c0,0,0,0,0,0.1l-3.1,7.3c-0.1,0.2-0.1,0.3-0.2,0.5c-0.3,0.5-0.6,1.1-0.9,1.7c-0.4,0.6-0.8,1.2-1.3,1.7
			l0,0c0.1-0.5,0.3-1.1,0.5-1.7c0.5-1.5,1.2-3.3,2.1-5.1c0.9-1.9,1.9-3.7,2.9-5.5c0.4-0.6,0.4-1.4,0-2s-1-1-1.7-1H205
			c-1.4,0-2.7,0.3-3.8,0.9c-1.1,0.6-2.1,1.3-2.9,2.2c-0.8,0.9-1.5,1.9-2.1,3c-0.6,1-1,2.1-1.4,3.2c-1.4,3.7-1.6,6.6-0.6,8.8
			c0.7,1.7,2.5,3.8,6.5,3.8c1.6,0,2.9-0.4,4.1-1.1c0.3-0.2,0.6-0.4,0.8-0.6c0.2,0.2,0.4,0.4,0.6,0.5c1.1,0.8,2.5,1.2,4.3,1.2
			c2.4,0,4.7-0.8,6.7-2.4c2-1.5,3.5-3.6,4.7-6.1c0.3-0.7,0.4-1.5,0.1-2.2c-0.3-0.7-0.9-1.2-1.7-1.4c-0.2-0.1-0.5-0.1-0.7-0.1
			c-0.4,0-0.7,0.1-1.1,0.2c-0.4,0.2-1.1,0.6-1.5,1.5s-0.9,1.7-1.4,2.3c-0.3,0.4-0.6,0.7-0.9,1c0-0.1,0-0.1,0.1-0.2
			c0.2-0.5,0.5-1.1,0.7-1.7c0.3-0.7,0.6-1.4,0.9-2.2c0.3-0.7,0.6-1.4,0.9-2.2c0.7-1.7,1.5-3.6,2.4-5.6c0.3-0.6,0.2-1.3-0.2-1.9
			C219.1,62.6,218.4,62.3,217.8,62.3L217.8,62.3z"/>
	</g>
	<g>
		<path class="st2" d="M222.1,83.1c-1.1,0-2.1-0.2-2.9-0.5c-0.9-0.4-1.6-1-2-1.8s-0.6-1.8-0.5-2.9s0.4-2.3,1-3.7l7.3-17.5
			c0.7-1.7,1.6-2.9,2.9-3.7c1.2-0.7,2.8-1.1,5-1.1h1.3c0.3,0,0.6,0.2,0.8,0.4s0.2,0.6,0.1,0.9c-1.8,4.4-3.4,8.3-4.9,11.7
			c-0.6,1.5-1.2,2.9-1.8,4.4c-0.6,1.4-1.1,2.7-1.6,3.9c-0.5,1.2-0.9,2.1-1.2,2.9c-0.3,0.7-0.5,1.1-0.5,1.2v0.1
			c-0.4,1-0.5,1.4-0.5,1.5c0.1,0,0.3-0.1,0.7-0.2c0.4-0.2,0.8-0.4,1.3-0.8s1-0.9,1.5-1.6s1-1.5,1.5-2.5c0.3-0.6,0.7-0.8,1-1
			c0.2-0.1,0.5-0.1,0.7-0.1s0.3,0,0.5,0.1c0.4,0.1,0.8,0.4,1,0.9c0.1,0.3,0.2,0.8-0.1,1.4c-1.1,2.3-2.5,4.2-4.4,5.7
			C226.3,82.4,224.3,83.1,222.1,83.1z"/>
		<path class="st0" d="M234.2,53c-1.8,4.4-3.4,8.3-4.9,11.7c-0.6,1.5-1.2,2.9-1.8,4.4c-0.6,1.4-1.1,2.7-1.6,3.9s-0.9,2.1-1.2,2.9
			s-0.5,1.2-0.5,1.3c-0.5,1.1-0.6,1.8-0.5,2.3s0.4,0.7,0.9,0.7c0.3,0,0.7-0.1,1.1-0.3c0.5-0.2,1-0.5,1.5-0.9s1.1-1,1.7-1.7
			s1.1-1.6,1.6-2.7c0.1-0.2,0.2-0.4,0.4-0.5c0.1,0,0.2-0.1,0.3-0.1s0.1,0,0.2,0c0.2,0,0.3,0.1,0.3,0.3c0.1,0.2,0.1,0.4-0.1,0.6
			c-1,2.2-2.4,4-4.1,5.3c-1.7,1.3-3.5,2-5.5,2c-1,0-1.8-0.1-2.5-0.4s-1.2-0.8-1.5-1.4s-0.4-1.4-0.4-2.4c0.1-1,0.4-2.1,0.9-3.4
			l7.3-17.5c0.6-1.5,1.4-2.6,2.5-3.2c1-0.6,2.5-0.9,4.4-0.9L234.2,53 M234.2,51h-1.3c-2.3,0-4.1,0.4-5.5,1.2
			c-1.4,0.9-2.5,2.3-3.3,4.2l-7.3,17.4c-0.6,1.5-1,2.8-1.1,4c-0.1,1.3,0.1,2.5,0.6,3.4c0.5,1,1.4,1.8,2.5,2.3c0.9,0.4,2,0.6,3.3,0.6
			c2.4,0,4.7-0.8,6.7-2.4c2-1.5,3.5-3.6,4.7-6.1c0.3-0.7,0.4-1.5,0.1-2.2c-0.3-0.7-0.9-1.2-1.7-1.4c-0.2-0.1-0.5-0.1-0.7-0.1
			c-0.4,0-0.7,0.1-1.1,0.2c-0.5,0.2-1.1,0.6-1.5,1.5s-0.9,1.7-1.4,2.3c-0.3,0.4-0.6,0.7-0.9,1c0-0.1,0.1-0.1,0.1-0.2
			c0.3-0.8,0.7-1.7,1.2-2.9c0.5-1.2,1-2.5,1.6-3.9s1.2-2.9,1.8-4.4c1.4-3.5,3.1-7.4,4.9-11.7c0.3-0.6,0.2-1.3-0.2-1.9
			C235.5,51.3,234.8,51,234.2,51L234.2,51z"/>
	</g>
	<g>
		<path class="st2" d="M233.9,83.1c-1.1,0-2.1-0.2-2.9-0.5c-0.9-0.4-1.6-1-2-1.8s-0.6-1.8-0.5-2.9s0.4-2.3,1-3.7l3.1-7.5
			c0.5-1.1,1.3-1.9,2.3-2.5c0.8-0.5,1.8-0.8,2.8-0.9c-0.2-0.1-0.3-0.2-0.5-0.3c-0.9-0.7-1.3-1.7-1.2-2.8c0-1.1,0.5-2,1.4-2.8
			s1.9-1.2,3-1.3c0.1,0,0.2,0,0.3,0c1,0,1.9,0.3,2.6,0.9c0.9,0.7,1.3,1.7,1.2,2.8c0,1.1-0.5,2-1.4,2.8c-0.4,0.4-0.9,0.7-1.4,0.9
			c0.1,0.1,0.2,0.2,0.2,0.3c0.2,0.3,0.2,0.6,0.1,0.9c-0.9,2-1.6,3.9-2.3,5.6c-0.3,0.7-0.6,1.5-0.9,2.2c-0.3,0.8-0.6,1.5-0.9,2.1
			c-0.3,0.7-0.5,1.2-0.7,1.8c-0.2,0.5-0.4,0.9-0.5,1.2c-0.4,1-0.5,1.4-0.5,1.6c0.1,0,0.3-0.1,0.7-0.2c0.4-0.2,0.8-0.4,1.3-0.8
			s1-0.9,1.5-1.6s1-1.5,1.5-2.5c0.3-0.6,0.7-0.8,1-1c0.2-0.1,0.5-0.1,0.7-0.1s0.3,0,0.5,0.1c0.4,0.1,0.8,0.4,1,0.9
			c0.1,0.3,0.2,0.8-0.1,1.4c-1.1,2.3-2.5,4.3-4.4,5.7C238.1,82.4,236,83.1,233.9,83.1z"/>
		<path class="st0" d="M240.7,57.1c0.8,0,1.4,0.2,2,0.7s0.9,1.2,0.9,2s-0.4,1.5-1.1,2.1c-0.7,0.6-1.5,1-2.4,1c-0.1,0-0.2,0-0.3,0
			c-0.8,0-1.4-0.2-2-0.7s-0.9-1.2-0.9-2s0.4-1.5,1.1-2.1c0.7-0.6,1.5-1,2.4-1C240.6,57.1,240.7,57.1,240.7,57.1 M241.2,64.3
			c-0.9,2-1.6,3.9-2.4,5.6c-0.3,0.7-0.6,1.5-0.9,2.2c-0.3,0.8-0.6,1.5-0.9,2.1c-0.3,0.7-0.5,1.2-0.7,1.8c-0.2,0.5-0.4,0.9-0.5,1.2
			c-0.5,1.1-0.6,1.8-0.5,2.3s0.4,0.7,0.9,0.7c0.3,0,0.7-0.1,1.1-0.3c0.5-0.2,1-0.5,1.5-0.9c0.6-0.4,1.1-1,1.7-1.7s1.1-1.6,1.6-2.7
			c0.1-0.2,0.2-0.4,0.4-0.5c0.1,0,0.2-0.1,0.3-0.1s0.1,0,0.2,0c0.2,0,0.3,0.1,0.3,0.3c0.1,0.2,0.1,0.4-0.1,0.6c-1,2.2-2.4,4-4.1,5.3
			c-1.7,1.3-3.5,2-5.5,2c-1,0-1.8-0.1-2.5-0.4s-1.2-0.8-1.5-1.4s-0.4-1.4-0.4-2.4c0.1-1,0.4-2.1,0.9-3.4l3.1-7.5
			c0.4-0.9,1-1.5,1.9-2.1c0.9-0.5,1.9-0.8,3-0.8h3.1 M240.7,55.1c-0.1,0-0.3,0-0.4,0c-1.3,0.1-2.5,0.6-3.6,1.5l0,0
			c-1.1,1-1.7,2.2-1.7,3.5c0,1,0.2,1.8,0.7,2.6c-0.5,0.2-0.9,0.4-1.3,0.6c-1.2,0.7-2.1,1.7-2.7,2.9c0,0,0,0,0,0.1l-3.1,7.5
			c-0.6,1.5-1,2.8-1.1,4c-0.1,1.3,0.1,2.5,0.6,3.4c0.5,1,1.4,1.8,2.5,2.3c0.9,0.4,2,0.6,3.3,0.6c2.4,0,4.7-0.8,6.7-2.4
			c2-1.5,3.5-3.6,4.7-6.1c0.3-0.7,0.4-1.5,0.1-2.2c-0.3-0.7-0.9-1.2-1.7-1.4c-0.2-0.1-0.5-0.1-0.7-0.1c-0.4,0-0.7,0.1-1.1,0.2
			c-0.5,0.2-1.1,0.6-1.5,1.5s-0.9,1.7-1.4,2.3c-0.3,0.4-0.6,0.8-0.9,1c0-0.1,0-0.1,0.1-0.2c0.2-0.5,0.5-1.1,0.7-1.7
			c0.3-0.7,0.6-1.4,0.9-2.2c0.3-0.7,0.6-1.5,0.9-2.2c0.7-1.7,1.5-3.6,2.4-5.6c0.2-0.4,0.2-0.8,0.1-1.2c0.2-0.1,0.4-0.3,0.6-0.5l0,0
			c1.1-1,1.7-2.2,1.7-3.5c0.1-1.4-0.5-2.6-1.5-3.6l0,0C243.1,55.5,242,55.1,240.7,55.1L240.7,55.1z"/>
	</g>
	<g>
		<path class="st2" d="M250.3,83.4c-0.4,0-0.7,0-1.1,0c-2.5-0.1-4.4-0.8-5.7-1.9c-1.3-1.2-2.1-2.6-2.4-4.2c-0.2-1.6,0-3.3,0.7-5
			s1.8-3.2,3.2-4.6s3.1-2.5,5.1-3.4c1.7-0.7,3.6-1.1,5.6-1.1c0.4,0,0.7,0,1.1,0c2.5,0.2,4.5,0.8,5.8,1.9c1.3,1.1,2.1,2.6,2.4,4.2
			c0.2,1.6,0,3.2-0.8,5c-0.7,1.7-1.8,3.2-3.2,4.6c-1.4,1.4-3.1,2.5-5.1,3.4C254.2,83,252.3,83.4,250.3,83.4z M254.5,66.5
			c-0.7,0-1.3,0.4-2,1c-0.7,0.7-1.3,1.6-1.8,2.7s-0.9,2.3-1.1,3.6c-0.2,1.2-0.3,2.4-0.2,3.4s0.3,1.7,0.7,2.3
			c0.3,0.4,0.6,0.6,1.1,0.6h0.2c0.7-0.1,1.3-0.4,2-1c0.7-0.7,1.3-1.6,1.8-2.7s0.9-2.3,1.1-3.5s0.3-2.4,0.3-3.4
			c-0.1-0.9-0.3-1.7-0.7-2.3c-0.3-0.4-0.6-0.6-1.2-0.6L254.5,66.5z"/>
		<path class="st0" d="M255.7,64.1c0.3,0,0.7,0,1,0c2.3,0.1,4,0.7,5.2,1.7s1.8,2.2,2,3.6s0,2.9-0.7,4.5s-1.6,3-3,4.3
			c-1.3,1.3-2.9,2.3-4.8,3.2c-1.6,0.7-3.4,1-5.2,1c-0.3,0-0.7,0-1,0c-2.3-0.1-4-0.7-5.1-1.7s-1.8-2.2-2-3.6s0-2.9,0.7-4.5
			s1.6-3,2.9-4.3c1.3-1.3,2.9-2.3,4.8-3.2C252.1,64.4,253.8,64.1,255.7,64.1 M251.3,81c0.1,0,0.1,0,0.2,0c1-0.1,1.8-0.5,2.6-1.3
			s1.4-1.8,2-3s0.9-2.4,1.2-3.8c0.3-1.4,0.4-2.6,0.3-3.7c-0.1-1.1-0.4-2.1-0.9-2.8c-0.5-0.7-1.1-1-2-1c-0.1,0-0.1,0-0.2,0
			c-1,0.1-1.8,0.5-2.6,1.3s-1.4,1.8-2,3c-0.5,1.2-0.9,2.4-1.2,3.8c-0.3,1.3-0.3,2.6-0.2,3.7s0.4,2.1,0.9,2.8
			C249.8,80.7,250.4,81,251.3,81 M255.7,62.1L255.7,62.1c-2.1,0-4.2,0.4-6,1.2c-2.1,0.9-4,2.1-5.4,3.6c-1.5,1.5-2.6,3.1-3.4,4.9
			c-0.8,1.9-1.1,3.8-0.8,5.5c0.3,1.9,1.2,3.5,2.7,4.8s3.6,2,6.3,2.2c0.4,0,0.8,0,1.1,0c2.1,0,4.2-0.4,6-1.2c2.1-0.9,4-2.1,5.5-3.6
			s2.6-3.1,3.4-5s1.1-3.8,0.8-5.5c-0.3-1.9-1.2-3.5-2.7-4.8c-1.5-1.3-3.6-2-6.4-2.2C256.5,62.1,256.1,62.1,255.7,62.1L255.7,62.1z
			 M251.3,79c-0.2,0-0.2,0-0.3-0.1c-0.3-0.4-0.5-1.1-0.6-1.9c-0.1-0.9,0-2,0.2-3.1c0.2-1.2,0.6-2.3,1.1-3.3c0.4-1,1-1.8,1.6-2.4
			s1-0.7,1.3-0.7h0.1c0.2,0,0.3,0,0.3,0.1c0.3,0.4,0.5,1,0.5,1.8c0.1,0.9,0,2-0.2,3.2s-0.6,2.3-1.1,3.3c-0.4,0.9-1,1.8-1.6,2.4
			C252.1,78.8,251.6,79,251.3,79L251.3,79L251.3,79z"/>
	</g>
</g>
<g>
	<g>
		<path class="st0" d="M87.4,36.5c0,1.2-0.1,2.2-0.2,3.1c-0.1,0.9-0.4,1.7-0.8,2.4c-0.5,0.9-1.1,1.5-1.9,2s-1.7,0.7-2.7,0.7
			c-1.1,0-2.1-0.3-3-1c-0.9-0.6-1.6-1.5-2-2.6c-0.2-0.6-0.4-1.3-0.5-2s-0.2-1.5-0.2-2.4c0-1.1,0.1-2.1,0.2-3s0.3-1.7,0.6-2.3
			c0.4-1.1,1.1-1.9,1.9-2.4c0.8-0.6,1.8-0.8,3-0.8c0.8,0,1.4,0.1,2.1,0.4c0.6,0.2,1.2,0.6,1.6,1.1c0.5,0.5,0.9,1.1,1.2,1.8
			C87.1,32.5,87.4,34.2,87.4,36.5z M84.4,36.2c0-1.3-0.1-2.5-0.2-3.3C84,32,83.8,31.4,83.4,31s-0.9-0.7-1.6-0.7c-1,0-1.6,0.5-2,1.5
			c-0.4,1-0.6,2.5-0.6,4.5c0,1.4,0.1,2.5,0.2,3.4s0.4,1.6,0.8,2s0.9,0.7,1.6,0.7s1.2-0.2,1.6-0.7s0.7-1.1,0.8-2
			C84.3,38.8,84.4,37.7,84.4,36.2z"/>
	</g>
	<g>
		<path class="st0" d="M94.7,34.6c0.7,0,1.3-0.2,1.8-0.6c0.5-0.4,0.7-1,0.7-1.7c0-0.6-0.2-1.1-0.6-1.5s-0.9-0.6-1.6-0.6
			c-0.4,0-0.8,0.1-1.1,0.2c-0.3,0.1-0.5,0.3-0.7,0.5s-0.3,0.5-0.5,0.8s-0.3,0.6-0.4,0.9c-0.1,0.2-0.2,0.3-0.4,0.4
			c-0.2,0.1-0.4,0.1-0.7,0.1c-0.3,0-0.6-0.1-0.8-0.4c-0.2-0.2-0.4-0.6-0.4-1c0-0.4,0.1-0.8,0.3-1.2s0.6-0.8,1-1.2
			c0.4-0.4,1-0.7,1.7-0.9s1.4-0.3,2.2-0.3c0.7,0,1.4,0.1,2,0.3c0.6,0.2,1.1,0.5,1.5,0.8c0.4,0.4,0.8,0.8,1,1.3s0.3,1,0.3,1.6
			c0,0.7-0.2,1.4-0.5,1.9s-0.8,1-1.4,1.5c0.6,0.3,1.1,0.7,1.5,1.1c0.4,0.4,0.7,0.8,0.9,1.3c0.2,0.5,0.3,1,0.3,1.6
			c0,0.7-0.1,1.3-0.4,1.9c-0.3,0.6-0.7,1.2-1.2,1.7s-1.1,0.9-1.9,1.1c-0.7,0.3-1.5,0.4-2.4,0.4s-1.7-0.2-2.4-0.5
			c-0.7-0.3-1.3-0.7-1.7-1.2c-0.5-0.5-0.8-1-1-1.5s-0.3-0.9-0.3-1.3c0-0.4,0.1-0.8,0.4-1c0.3-0.3,0.6-0.4,1-0.4
			c0.2,0,0.4,0.1,0.6,0.2c0.2,0.1,0.3,0.3,0.4,0.4c0.4,1,0.8,1.8,1.2,2.3c0.4,0.5,1.1,0.7,1.9,0.7c0.5,0,0.9-0.1,1.3-0.3
			s0.8-0.6,1.1-1c0.3-0.4,0.4-1,0.4-1.5c0-0.9-0.2-1.5-0.7-2s-1.1-0.7-2-0.7c-0.1,0-0.4,0-0.7,0s-0.5,0-0.6,0
			c-0.4,0-0.7-0.1-0.9-0.3s-0.3-0.5-0.3-0.8c0-0.4,0.1-0.6,0.4-0.9c0.3-0.2,0.7-0.3,1.2-0.3h0.5V34.6z"/>
	</g>
	<g>
		<path class="st0" d="M107.7,30.2l-3.1,12.7c-0.1,0.4-0.2,0.8-0.3,1c-0.1,0.2-0.2,0.4-0.4,0.6c-0.2,0.1-0.4,0.2-0.7,0.2
			c-0.8,0-1.1-0.3-1.1-1c0-0.2,0.1-0.6,0.2-1.3l3.1-12.7c0.2-0.7,0.3-1.1,0.5-1.4s0.4-0.4,0.9-0.4c0.4,0,0.6,0.1,0.8,0.3
			s0.3,0.4,0.3,0.7C108,29.2,107.9,29.6,107.7,30.2z"/>
	</g>
	<g>
		<path class="st0" d="M120.6,36.5c0,1.2-0.1,2.2-0.2,3.1c-0.1,0.9-0.4,1.7-0.8,2.4c-0.5,0.9-1.1,1.5-1.9,2s-1.7,0.7-2.7,0.7
			c-1.1,0-2.1-0.3-3-1c-0.9-0.6-1.6-1.5-2-2.6c-0.2-0.6-0.4-1.3-0.5-2s-0.2-1.5-0.2-2.4c0-1.1,0.1-2.1,0.2-3s0.3-1.7,0.6-2.3
			c0.4-1.1,1.1-1.9,1.9-2.4c0.8-0.6,1.8-0.8,3-0.8c0.8,0,1.4,0.1,2.1,0.4c0.6,0.2,1.2,0.6,1.6,1.1c0.5,0.5,0.9,1.1,1.2,1.8
			C120.4,32.5,120.6,34.2,120.6,36.5z M117.6,36.2c0-1.3-0.1-2.5-0.2-3.3c-0.2-0.9-0.4-1.5-0.8-1.9s-0.9-0.7-1.6-0.7
			c-1,0-1.6,0.5-2,1.5c-0.4,1-0.6,2.5-0.6,4.5c0,1.4,0.1,2.5,0.2,3.4s0.4,1.6,0.8,2s0.9,0.7,1.6,0.7s1.2-0.2,1.6-0.7s0.7-1.1,0.8-2
			C117.5,38.8,117.6,37.7,117.6,36.2z"/>
	</g>
	<g>
		<path class="st0" d="M128.1,42.9V32.8c-1.9,1.4-3.1,2.2-3.8,2.2c-0.3,0-0.6-0.1-0.8-0.4c-0.2-0.2-0.4-0.5-0.4-0.9s0.1-0.7,0.4-0.8
			s0.7-0.4,1.2-0.7c0.9-0.4,1.6-0.9,2.1-1.3s1-1,1.4-1.6c0.4-0.6,0.7-0.9,0.8-1.1c0.1-0.1,0.4-0.2,0.7-0.2c0.4,0,0.7,0.2,0.9,0.5
			s0.4,0.7,0.4,1.2v12.7c0,1.5-0.5,2.2-1.5,2.2c-0.4,0-0.8-0.2-1.1-0.5C128.2,43.9,128.1,43.5,128.1,42.9z"/>
	</g>
	<g>
		<path class="st0" d="M141,30.2l-3.1,12.7c-0.1,0.4-0.2,0.8-0.3,1s-0.2,0.4-0.4,0.6c-0.2,0.1-0.4,0.2-0.7,0.2c-0.8,0-1.1-0.3-1.1-1
			c0-0.2,0.1-0.6,0.2-1.3l3.1-12.7c0.2-0.7,0.3-1.1,0.5-1.4s0.4-0.4,0.9-0.4c0.4,0,0.7,0.1,0.8,0.3s0.3,0.4,0.3,0.7
			C141.2,29.2,141.2,29.6,141,30.2z"/>
	</g>
	<g>
		<path class="st0" d="M146.6,41.8h5.8c0.6,0,1,0.1,1.3,0.4c0.3,0.2,0.5,0.6,0.5,1s-0.1,0.7-0.4,0.9c-0.2,0.3-0.6,0.4-1.1,0.4h-8.1
			c-0.6,0-1-0.2-1.3-0.5s-0.5-0.7-0.5-1.1c0-0.3,0.1-0.6,0.3-1.1c0.2-0.4,0.4-0.8,0.7-1c1-1,1.9-1.9,2.7-2.6
			c0.8-0.7,1.4-1.2,1.7-1.4c0.6-0.4,1.1-0.9,1.5-1.3c0.4-0.4,0.7-0.9,0.9-1.3s0.3-0.9,0.3-1.3c0-0.5-0.1-0.9-0.3-1.3
			s-0.5-0.7-0.9-0.9c-0.4-0.2-0.8-0.3-1.3-0.3c-1,0-1.7,0.4-2.3,1.3c-0.1,0.1-0.2,0.4-0.4,0.9s-0.4,0.9-0.6,1.1
			c-0.2,0.3-0.5,0.4-1,0.4c-0.4,0-0.7-0.1-0.9-0.4s-0.4-0.6-0.4-1c0-0.5,0.1-1,0.3-1.6s0.6-1.1,1-1.5c0.5-0.4,1-0.8,1.7-1.1
			s1.5-0.4,2.4-0.4c1.1,0,2.1,0.2,2.9,0.5c0.5,0.2,1,0.6,1.4,1s0.7,0.9,0.9,1.4s0.3,1.1,0.3,1.7c0,0.9-0.2,1.7-0.7,2.5
			c-0.5,0.7-0.9,1.3-1.4,1.8c-0.5,0.4-1.3,1.1-2.4,2s-1.9,1.6-2.3,2.1C146.9,41.3,146.8,41.5,146.6,41.8z"/>
	</g>
	<g>
		<path class="st0" d="M167.3,36.5c0,1.2-0.1,2.2-0.2,3.1c-0.1,0.9-0.4,1.7-0.8,2.4c-0.5,0.9-1.1,1.5-1.9,2
			c-0.8,0.5-1.7,0.7-2.7,0.7c-1.1,0-2.1-0.3-3-1s-1.6-1.5-2-2.6c-0.2-0.6-0.4-1.3-0.5-2s-0.2-1.5-0.2-2.4c0-1.1,0.1-2.1,0.2-3
			c0.1-0.9,0.3-1.7,0.6-2.3c0.4-1.1,1.1-1.9,1.9-2.4c0.8-0.6,1.8-0.8,3-0.8c0.8,0,1.4,0.1,2.1,0.4s1.2,0.6,1.6,1.1
			c0.5,0.5,0.9,1.1,1.2,1.8C167.1,32.5,167.3,34.2,167.3,36.5z M164.3,36.2c0-1.3-0.1-2.5-0.2-3.3c-0.2-0.9-0.4-1.5-0.8-1.9
			c-0.4-0.4-0.9-0.7-1.6-0.7c-1,0-1.6,0.5-2,1.5c-0.4,1-0.6,2.5-0.6,4.5c0,1.4,0.1,2.5,0.2,3.4s0.4,1.6,0.8,2
			c0.4,0.5,0.9,0.7,1.6,0.7c0.7,0,1.2-0.2,1.6-0.7s0.7-1.1,0.8-2C164.2,38.8,164.3,37.7,164.3,36.2z"/>
	</g>
	<g>
		<path class="st0" d="M173.5,41.8h5.8c0.6,0,1,0.1,1.3,0.4c0.3,0.2,0.5,0.6,0.5,1s-0.1,0.7-0.4,0.9c-0.2,0.3-0.6,0.4-1.1,0.4h-8.1
			c-0.6,0-1-0.2-1.3-0.5s-0.5-0.7-0.5-1.1c0-0.3,0.1-0.6,0.3-1.1c0.2-0.4,0.4-0.8,0.7-1c1-1,1.9-1.9,2.7-2.6
			c0.8-0.7,1.4-1.2,1.7-1.4c0.6-0.4,1.1-0.9,1.5-1.3c0.4-0.4,0.7-0.9,0.9-1.3s0.3-0.9,0.3-1.3c0-0.5-0.1-0.9-0.3-1.3
			s-0.5-0.7-0.9-0.9c-0.4-0.2-0.8-0.3-1.3-0.3c-1,0-1.7,0.4-2.3,1.3c-0.1,0.1-0.2,0.4-0.4,0.9s-0.4,0.9-0.6,1.1
			c-0.2,0.3-0.5,0.4-1,0.4c-0.4,0-0.7-0.1-0.9-0.4s-0.4-0.6-0.4-1c0-0.5,0.1-1,0.3-1.6s0.6-1.1,1-1.5c0.5-0.4,1-0.8,1.7-1.1
			s1.5-0.4,2.4-0.4c1.1,0,2.1,0.2,2.9,0.5c0.5,0.2,1,0.6,1.4,1s0.7,0.9,0.9,1.4s0.3,1.1,0.3,1.7c0,0.9-0.2,1.7-0.7,2.5
			c-0.5,0.7-0.9,1.3-1.4,1.8c-0.5,0.4-1.3,1.1-2.4,2s-1.9,1.6-2.3,2.1C173.8,41.3,173.7,41.5,173.5,41.8z"/>
	</g>
	<g>
		<path class="st0" d="M192.3,30.9h-5.2l-0.6,3.6c1-0.6,2-0.8,2.9-0.8c0.7,0,1.4,0.1,2,0.4c0.6,0.3,1.2,0.6,1.6,1.1
			c0.5,0.5,0.8,1,1.1,1.7c0.3,0.6,0.4,1.3,0.4,2.1c0,1.1-0.2,2-0.7,2.9s-1.2,1.6-2.1,2.1c-0.9,0.5-1.9,0.8-3.1,0.8
			c-1.3,0-2.4-0.2-3.2-0.7s-1.4-1-1.7-1.7c-0.3-0.6-0.5-1.2-0.5-1.7c0-0.3,0.1-0.6,0.4-0.8c0.2-0.3,0.5-0.4,0.9-0.4
			c0.6,0,1.1,0.4,1.4,1.1c0.3,0.7,0.7,1.2,1.2,1.5s1.1,0.5,1.7,0.5c0.6,0,1.1-0.1,1.5-0.4c0.4-0.3,0.8-0.7,1-1.2s0.3-1.1,0.3-1.8
			s-0.1-1.3-0.4-1.8c-0.3-0.5-0.6-0.9-1-1.1c-0.4-0.2-0.9-0.4-1.4-0.4c-0.6,0-1.1,0.1-1.4,0.2c-0.3,0.2-0.7,0.4-1.2,0.8
			s-0.9,0.6-1.3,0.6c-0.4,0-0.7-0.1-1-0.4c-0.3-0.3-0.4-0.6-0.4-0.9c0,0,0-0.3,0.1-0.8l0.9-5.3c0.1-0.6,0.3-1.1,0.6-1.4
			s0.7-0.4,1.4-0.4h5.8c1.1,0,1.7,0.4,1.7,1.3c0,0.4-0.1,0.7-0.4,0.9S192.9,30.9,192.3,30.9z"/>
	</g>
</g>
<g>
	<path class="st2" d="M134.2,85.6c-6.7,0-12.3-5-12.9-11.7c-0.3-3.6,0.9-7.2,3.3-9.9c2.4-2.7,5.9-4.2,9.6-4.2c0.1,0,0.3,0,0.4,0
		c6.3,0.2,11.6,5,12.4,11.2c0.3,2.6-0.1,5.2-1.3,7.6c-0.2,0.4-0.4,0.5-0.8,0.5c-0.1,0-0.2,0-0.3-0.1c-0.7-0.2-1.4-0.5-2.1-0.7
		c-0.2-0.1-0.3-0.2-0.3-0.4c0-0.1,0-0.3,0.1-0.4c1.6-2.9,1.8-5.8,0.6-8.7c-1.4-3.4-4.9-5.7-8.6-5.7c-0.3,0-0.7,0-1,0.1
		c-4.3,0.5-7.6,3.6-8.3,7.8c-0.5,2.8,0.3,5.6,2.1,7.7s4.4,3.3,7.2,3.3c0.2,0,0.4,0,0.7,0c1.9-0.1,3.7-0.8,5.2-2
		c0.2-0.2,0.4-0.2,0.6-0.2c0.2,0,0.4,0.1,0.5,0.2c0.6,0.3,1.2,0.6,1.9,0.9l0.2,0.1c0.1,0.1,0.2,0.2,0.3,0.4c0,0.2,0,0.3-0.1,0.4
		c-0.7,0.8-1.6,1.5-2.6,2C138.7,85,136.5,85.6,134.2,85.6z"/>
	<path class="st0" d="M134.2,60.3c0.1,0,0.3,0,0.4,0c6,0.2,11.1,4.8,11.9,10.8c0.3,2.6-0.1,5-1.3,7.3c-0.1,0.2-0.2,0.3-0.3,0.3
		c0,0-0.1,0-0.2,0c-0.7-0.2-1.4-0.5-2.1-0.7l0,0c1.7-3.1,2-6.1,0.7-9.2c-1.5-3.6-5.2-6-9-6c-0.4,0-0.7,0-1.1,0.1
		c-4.5,0.5-8,3.8-8.8,8.2c-1,6.1,3.7,11.6,9.8,11.6c0.2,0,0.5,0,0.7,0c2-0.1,3.9-0.9,5.5-2.1c0.1-0.1,0.2-0.1,0.3-0.1s0.2,0,0.3,0.1
		c0.7,0.4,1.4,0.7,2.1,1c-0.7,0.8-1.6,1.4-2.5,2c-2,1.2-4.1,1.7-6.2,1.7c-6.1,0-11.8-4.6-12.4-11.3
		C121.1,66.5,126.9,60.3,134.2,60.3 M134.2,59.3c-3.8,0-7.4,1.6-9.9,4.4c-2.5,2.8-3.8,6.5-3.5,10.3c0.6,6.9,6.4,12.2,13.4,12.2
		c2.4,0,4.7-0.6,6.8-1.9c1-0.6,2-1.3,2.7-2.1c0.2-0.2,0.3-0.6,0.3-0.9c-0.1-0.3-0.3-0.6-0.6-0.7l-0.3-0.1c-0.6-0.3-1.2-0.6-1.8-0.9
		c-0.1-0.1-0.4-0.2-0.7-0.2s-0.6,0.1-0.9,0.4c-1.4,1.1-3.1,1.8-4.9,1.9c-0.2,0-0.4,0-0.6,0c-2.6,0-5.1-1.2-6.8-3.2s-2.4-4.7-2-7.3
		c0.7-3.9,3.8-6.9,7.9-7.4c0.3,0,0.6-0.1,0.9-0.1c3.5,0,6.8,2.2,8.1,5.4c1.2,2.8,1,5.5-0.6,8.3c-0.1,0.2-0.2,0.5-0.1,0.7
		c0.1,0.3,0.3,0.6,0.7,0.7c0.7,0.2,1.4,0.5,2.1,0.7c0.2,0.1,0.3,0.1,0.5,0.1c0.3,0,0.9-0.1,1.2-0.8c1.3-2.5,1.7-5.2,1.4-7.9
		c-0.8-6.5-6.3-11.5-12.9-11.7C134.5,59.3,134.3,59.3,134.2,59.3L134.2,59.3z"/>
</g>
<g>
	<path class="st2" d="M146.4,81.9c-4.1,0-7.9-2.3-9.7-6c-2.3-4.5-0.9-9.3,1.4-12c0.1-0.1,0.2-0.2,0.4-0.2c0.1,0,0.1,0,0.2,0
		c0.1,0,0.1,0.1,0.2,0.1l1.6,1.1c0.1,0.1,0.2,0.2,0.2,0.4c0,0.1,0,0.3-0.1,0.4c-1.6,1.7-2.3,4-1.9,6.3c0.3,2.4,1.7,4.4,3.7,5.6
		c1.2,0.7,2.6,1.1,4,1.1c2.8,0,5.3-1.4,6.7-3.8c1.1-1.9,1.4-4.1,0.8-6.2c-0.6-2.1-2-3.9-4.1-4.9c-0.2-0.1-0.3-0.2-0.3-0.4
		s0.1-0.3,0.2-0.4l1.9-1.3c0.1-0.1,0.2-0.1,0.3-0.1s0.2,0,0.3,0.1c3.7,2.3,5.7,6.8,4.9,11.1c-0.8,4.6-4.5,8.2-9.1,8.9
		C147.4,81.9,146.9,81.9,146.4,81.9z"/>
	<path class="st0" d="M152,62.2c3.2,2,5.5,6.1,4.7,10.6c-0.8,4.4-4.3,7.8-8.7,8.4c-0.5,0.1-1,0.1-1.5,0.1c-3.9,0-7.5-2.2-9.3-5.7
		c-2.1-4.1-1.1-8.7,1.4-11.5l0,0c0.6,0.4,1.1,0.7,1.7,1.1c-3.6,4-2.4,10.1,1.9,12.7c1.3,0.8,2.8,1.2,4.3,1.2c2.8,0,5.6-1.4,7.1-4
		c2.5-4.1,1-9.5-3.4-11.8C150.7,63.1,151.3,62.7,152,62.2 M152,61.2c-0.2,0-0.4,0.1-0.6,0.2c-0.3,0.2-0.6,0.4-0.9,0.6
		c-0.3,0.2-0.6,0.4-1,0.7c-0.3,0.2-0.5,0.5-0.4,0.9c0,0.4,0.2,0.7,0.5,0.8c1.9,1,3.2,2.6,3.8,4.6s0.3,4-0.8,5.8
		c-1.3,2.2-3.7,3.5-6.3,3.5c-1.3,0-2.6-0.4-3.8-1.1c-1.9-1.1-3.1-3-3.5-5.2c-0.3-2.2,0.3-4.3,1.8-5.9c0.2-0.2,0.3-0.5,0.3-0.8
		s-0.2-0.5-0.4-0.7l-0.9-0.6l-0.8-0.5c-0.1-0.1-0.2-0.1-0.3-0.2c-0.1,0-0.2-0.1-0.4-0.1c-0.3,0-0.6,0.1-0.7,0.3
		c-2.5,2.8-3.9,7.8-1.5,12.6c2,3.8,5.9,6.2,10.2,6.2c0.5,0,1.1,0,1.6-0.1c4.8-0.7,8.7-4.4,9.6-9.3c0.8-4.6-1.2-9.2-5.1-11.6
		C152.3,61.3,152.1,61.2,152,61.2L152,61.2z"/>
</g>
<g>
	<path class="st2" d="M143.2,63.8c-0.1,0-0.3,0-0.5-0.1c-0.4-0.3-0.8-0.7-1.2-1l-0.4-0.3c-0.1-0.1-0.2-0.2-0.2-0.4
		c0-0.1,0.1-0.3,0.2-0.4l0.1-0.1c1.4-0.7,2.8-1.2,4.3-1.3h0.1c0.3,0,0.6,0.1,0.8,0.5s0.4,0.7,0.6,1.1l0.3,0.6c0.1,0.1,0.1,0.3,0,0.5
		s-0.2,0.2-0.4,0.2s-0.3,0-0.5,0c-0.3,0-0.7,0-1,0.1c-0.4,0.1-0.8,0.2-1.2,0.3c-0.3,0.1-0.5,0.1-0.8,0.2
		C143.4,63.8,143.3,63.8,143.2,63.8z"/>
	<path class="st0" d="M145.6,60.6c0.2,0,0.3,0.1,0.3,0.2c0.3,0.6,0.6,1.2,0.9,1.8c-0.5,0-1,0-1.5,0.1c-0.7,0.1-1.3,0.3-2,0.5
		c0,0-0.1,0-0.2,0c-0.1,0-0.1,0-0.2,0c-0.5-0.4-1.1-0.9-1.6-1.3l0,0C142.7,61.2,144,60.8,145.6,60.6
		C145.5,60.6,145.5,60.6,145.6,60.6 M145.6,59.6c-0.1,0-0.1,0-0.2,0c-1.6,0.2-3.1,0.6-4.5,1.4c-0.1,0-0.2,0.1-0.2,0.2
		c-0.2,0.2-0.3,0.5-0.3,0.8s0.1,0.5,0.4,0.7l0.4,0.3c0.4,0.4,0.8,0.7,1.3,1c0.2,0.2,0.5,0.3,0.8,0.3c0.1,0,0.3,0,0.4-0.1
		c0.3-0.1,0.5-0.1,0.8-0.2c0.4-0.1,0.8-0.2,1.1-0.3c0.3,0,0.6-0.1,0.9-0.1c0.2,0,0.3,0,0.5,0c0.3,0,0.6-0.2,0.8-0.5s0.2-0.6,0-0.9
		l-0.3-0.6c-0.2-0.4-0.4-0.8-0.6-1.2C146.6,60,146.1,59.6,145.6,59.6L145.6,59.6z"/>
</g>
<g>
	<path class="st2" d="M149,63.6c-0.1,0-0.3,0-0.4-0.1l0.4-0.4l-0.4,0.3c-0.1-0.1-0.2-0.4-0.1-0.6v-0.1l0,0l1.2-1.9
		c0.5-0.9,1.1-1.8,1.6-2.6c0.1-0.2,0.4-0.4,0.7-0.4c0,0,0.1,0,0.2,0c0.6,0.1,2.9,0.8,2.9,0.8c0.2,0,0.3,0.2,0.4,0.4
		c0,0.2,0,0.4-0.2,0.5l-5.9,4C149.2,63.5,149.1,63.6,149,63.6z"/>
	<path class="st0" d="M151.9,58.3L151.9,58.3c1,0.2,1.9,0.5,2.9,0.8c-2,1.4-3.9,2.7-5.9,4c0,0,0,0-0.1-0.1l0,0
		c0.9-1.5,1.8-3.1,2.7-4.6C151.7,58.4,151.8,58.3,151.9,58.3 M151.9,57.3L151.9,57.3c-0.4,0-0.8,0.2-1.1,0.6
		c-0.6,0.9-1.1,1.8-1.6,2.7c-0.4,0.6-0.7,1.2-1.1,1.9c0,0.1-0.1,0.1-0.1,0.2c-0.2,0.4-0.1,0.8,0.2,1.1c0.2,0.2,0.5,0.3,0.8,0.3
		c0.2,0,0.4,0,0.5-0.2c1-0.7,2.1-1.4,3.1-2.1l2.8-1.9c0.3-0.2,0.5-0.6,0.4-1s-0.4-0.7-0.7-0.8l-1.1-0.3c-0.6-0.2-1.2-0.3-1.8-0.5
		C152.1,57.3,152,57.3,151.9,57.3L151.9,57.3z"/>
</g>
<g>
	<path class="st2" d="M148,63.3c-0.2,0-0.4-0.1-0.4-0.3l-3.2-6.4c-0.1-0.2-0.1-0.3,0-0.5c0.1-0.1,0.3-0.2,0.4-0.2h0.1l0.3,0.1
		c0.9,0.2,1.8,0.5,2.6,0.7c0.4,0.1,0.5,0.5,0.5,0.8c0,1.7,0.1,3.5,0.1,5.3C148.4,63,148.2,63.2,148,63.3C148,63.3,148,63.3,148,63.3
		z"/>
	<path class="st0" d="M144.8,56.4c1,0.3,2,0.5,2.9,0.8c0.1,0,0.2,0.2,0.2,0.3c0.1,1.8,0.1,3.5,0.1,5.3
		C146.9,60.7,145.9,58.6,144.8,56.4L144.8,56.4 M144.8,55.4L144.8,55.4c-0.4,0-0.7,0.2-0.9,0.5s-0.2,0.7,0,1l1.6,3.2l1.6,3.2
		c0.2,0.3,0.5,0.6,0.9,0.6c0.1,0,0.2,0,0.2,0c0.5-0.1,0.8-0.5,0.8-1c0-1.8,0-3.7-0.1-5.3c0-0.5-0.3-1.1-0.9-1.2
		c-0.8-0.2-1.7-0.5-2.7-0.7l-0.2-0.1C145,55.5,144.9,55.4,144.8,55.4L144.8,55.4z"/>
</g>
<g>
	<path class="st2" d="M148.7,62.4h-0.1c-0.2-0.1-0.4-0.2-0.4-0.4c-0.1-1-0.4-4.5-0.4-4.5c0-0.1,0-0.3,0.1-0.4s0.2-0.2,0.4-0.2h0.1
		c1,0.3,1.9,0.5,2.8,0.7l0.2,0.1c0.2,0,0.3,0.2,0.3,0.3c0.1,0.2,0,0.3-0.1,0.5l-1,1.4c-0.5,0.8-1.1,1.6-1.7,2.4
		C149.1,62.3,148.9,62.4,148.7,62.4z"/>
	<path class="st0" d="M148.3,57.4c1,0.3,2,0.5,3,0.8c-0.9,1.2-1.7,2.5-2.6,3.8C148.6,60.3,148.4,58.9,148.3,57.4L148.3,57.4
		 M148.3,56.4L148.3,56.4c-0.3,0-0.6,0.1-0.8,0.3s-0.3,0.5-0.3,0.8l0.2,1.6c0.1,1,0.2,1.9,0.3,2.9c0,0.4,0.3,0.8,0.7,0.9
		c0.1,0,0.2,0,0.3,0c0.3,0,0.6-0.2,0.8-0.4c0.6-0.8,1.1-1.6,1.6-2.3l1-1.4c0.2-0.3,0.2-0.6,0.1-0.9c-0.1-0.3-0.4-0.5-0.7-0.6
		c-1-0.3-2-0.5-3-0.8C148.5,56.4,148.4,56.4,148.3,56.4L148.3,56.4z"/>
</g>
<g>
	<path class="st2" d="M147.8,57.3h-0.1l-2.9-0.8c-0.2,0-0.3-0.2-0.4-0.4s0-0.4,0.1-0.5c0,0,1.6-1.5,2.2-2.1c0.1-0.1,0.2-0.1,0.3-0.1
		h0.1c0.2,0,0.3,0.2,0.4,0.3l0.1,0.2c0.2,0.8,0.5,1.6,0.7,2.6c0,0.1,0,0.2,0,0.3C148.3,57.1,148,57.3,147.8,57.3L147.8,57.3z"/>
	<path class="st0" d="M147,54c0.2,0.9,0.5,1.8,0.8,2.8c-1-0.3-2-0.5-2.9-0.8C145.6,55.3,146.3,54.7,147,54 M147.8,56.8L147.8,56.8
		L147.8,56.8L147.8,56.8 M147,53c-0.3,0-0.5,0.1-0.7,0.3c-0.6,0.6-1.2,1.2-1.8,1.8l-0.3,0.3c-0.3,0.3-0.4,0.6-0.3,1
		c0.1,0.4,0.4,0.6,0.7,0.7c0.5,0.1,0.9,0.2,1.4,0.4c0.5,0.1,1,0.3,1.5,0.4c0.1,0,0.2,0.1,0.3,0.1c0.5,0,0.9-0.4,1-0.9
		c0-0.2,0-0.3-0.1-0.5c-0.2-0.9-0.5-1.8-0.7-2.6v-0.2c-0.1-0.3-0.4-0.6-0.7-0.7C147.2,53,147.1,53,147,53L147,53z"/>
</g>
<g>
	<path class="st2" d="M155,59.2c-0.1,0-0.1,0-0.2,0l-1.2-0.3c-0.6-0.1-1.1-0.3-1.7-0.4c-0.2,0-0.3-0.2-0.4-0.4c0-0.2,0-0.4,0.1-0.5
		c0.7-0.7,1.4-1.4,2.2-2.1c0.1-0.1,0.2-0.1,0.3-0.1h0.1c0.2,0,0.3,0.2,0.3,0.3l0.8,2.8v0.1l0,0C155.5,59,155.4,59.2,155,59.2
		C155.1,59.2,155.1,59.2,155,59.2z"/>
	<path class="st0" d="M154.3,55.9c0.2,0.9,0.5,1.8,0.8,2.8c-1-0.3-2-0.5-2.9-0.8C152.9,57.3,153.6,56.6,154.3,55.9 M155,58.7
		L155,58.7L155,58.7L155,58.7 M154.3,54.9c-0.3,0-0.5,0.1-0.7,0.3c-0.7,0.7-1.4,1.4-2.2,2.1c-0.3,0.3-0.4,0.6-0.3,1
		c0.1,0.4,0.4,0.6,0.7,0.7c0.6,0.1,1.1,0.3,1.7,0.4c0.4,0.1,0.8,0.2,1.1,0.3c0.1,0,0.2,0.1,0.4,0.1h0.1c0.5-0.1,0.9-0.5,0.9-1
		c0-0.1,0-0.2,0-0.3c-0.1-0.5-0.3-1.1-0.4-1.6l-0.3-1.2c-0.1-0.3-0.4-0.6-0.7-0.7C154.5,54.9,154.4,54.9,154.3,54.9L154.3,54.9z"/>
</g>
<g>
	<path class="st2" d="M151.8,58h-0.1c-0.2,0-0.3-0.2-0.3-0.3l0.5-0.1l-0.5,0.1c-0.2-0.9-0.5-1.8-0.8-2.8c0-0.2,0-0.4,0.1-0.5
		s0.2-0.1,0.4-0.1h0.1c1,0.3,2,0.5,3,0.8c0.2,0,0.3,0.2,0.4,0.4c0,0.2,0,0.4-0.1,0.5l-2.2,2.1C152,58,151.9,58,151.8,58z"/>
	<path class="st0" d="M151,54.7c1,0.3,2,0.5,3,0.8c-0.7,0.7-1.5,1.4-2.2,2.1C151.5,56.7,151.2,55.7,151,54.7 M151,53.7
		c-0.3,0-0.5,0.1-0.7,0.3c-0.3,0.3-0.4,0.6-0.3,1c0.3,1,0.5,1.9,0.7,2.7v0.2c0.1,0.3,0.4,0.6,0.7,0.7c0.1,0,0.2,0,0.3,0
		c0.3,0,0.5-0.1,0.7-0.3l2.2-2.1c0.3-0.3,0.4-0.6,0.3-1c-0.1-0.4-0.4-0.6-0.7-0.7c-1-0.3-1.9-0.5-2.9-0.8
		C151.1,53.7,151.1,53.7,151,53.7L151,53.7z"/>
</g>
<g>
	<path class="st2" d="M151.4,58.3h-0.1l-2.9-0.8c-0.2,0-0.3-0.2-0.4-0.4c0-0.2,0-0.4,0.1-0.5l2.1-2c0.1-0.1,0.2-0.2,0.4-0.2
		s0.4,0.1,0.5,0.3v0.1l0.8,2.8c0,0.2,0,0.4-0.1,0.5C151.7,58.2,151.5,58.3,151.4,58.3z"/>
	<path class="st0" d="M150.6,54.9L150.6,54.9L150.6,54.9L150.6,54.9 M150.6,54.9c0.2,0.9,0.5,1.8,0.8,2.8c-1-0.3-2-0.5-2.9-0.8
		C149.2,56.3,149.9,55.6,150.6,54.9 M150.6,53.9L150.6,53.9c-0.3,0-0.6,0.1-0.8,0.4c-0.3,0.3-0.7,0.7-1,1l-1,1
		c-0.3,0.3-0.4,0.6-0.3,1c0.1,0.4,0.4,0.6,0.7,0.7l1.5,0.4l1.4,0.4c0.1,0,0.2,0,0.3,0c0.3,0,0.5-0.1,0.7-0.3c0.3-0.3,0.3-0.6,0.3-1
		L152,56l-0.3-1.2c0-0.1,0-0.1-0.1-0.2C151.4,54.2,151.1,53.9,150.6,53.9L150.6,53.9z"/>
</g>
<g>
	<path class="st2" d="M148.1,57.1H148c-0.2,0-0.3-0.2-0.3-0.3c-0.3-0.9-0.5-1.9-0.8-2.9c0-0.2,0-0.4,0.1-0.5s0.2-0.1,0.4-0.1h0.1
		c1,0.3,2,0.5,3,0.8c0.2,0.1,0.4,0.3,0.4,0.5c0,0.1-0.1,0.3-0.2,0.4l-2.2,2.1C148.4,57.1,148.3,57.1,148.1,57.1z"/>
	<path class="st0" d="M147.3,53.7c1,0.3,2,0.5,3,0.8l0,0c-0.8,0.7-1.5,1.4-2.2,2.1C147.9,55.7,147.6,54.8,147.3,53.7 M147.3,52.7
		c-0.3,0-0.5,0.1-0.7,0.3c-0.3,0.3-0.3,0.6-0.3,1c0.3,1,0.5,2,0.8,2.9c0.1,0.3,0.4,0.6,0.7,0.7c0.1,0,0.2,0,0.3,0
		c0.3,0,0.5-0.1,0.7-0.3l0.6-0.6l1.6-1.5c0.2-0.2,0.3-0.4,0.3-0.7c0-0.5-0.3-0.9-0.8-1c-1-0.3-2-0.5-3-0.8
		C147.5,52.8,147.4,52.7,147.3,52.7L147.3,52.7z"/>
</g>
</svg>
