<?xml version="1.0" encoding="utf-8"?>
<!-- Generator: Adobe Illustrator 28.0.0, SVG Export Plug-In . SVG Version: 6.00 Build 0)  -->
<svg version="1.1" id="Capa_1" xmlns="http://www.w3.org/2000/svg" xmlns:xlink="http://www.w3.org/1999/xlink" x="0px" y="0px"
	 viewBox="0 0 242.1 35.6" style="enable-background:new 0 0 242.1 35.6;" xml:space="preserve">
<style type="text/css">
	.st0{fill-rule:evenodd;clip-rule:evenodd;fill:#CAA358;}
	.st1{fill:#FFFFFF;}
	.st2{fill:#CAA358;}
</style>
<g>
	<path class="st0" d="M125.1,34.6c-0.2,0-0.4-0.1-0.5-0.2c-0.5-0.4-0.9-0.9-1.4-1.4c-0.2-0.2-0.4-0.4-0.6-0.6l-6.4-5.2
		c-5.8-4.3-8.3-9.8-6.7-14.8c1.2-3.8,4.7-6.4,8.3-6.4c1.4,0,2.7,0.4,3.9,1.1c0.5,0.4,1.8,1.2,2.4,2c0.2,0.2,0.4,0.5,0.6,0.8
		c0.1,0.2,0.2,0.3,0.4,0.5c0.1-0.1,0.1-0.2,0.2-0.2c1.3-1.6,3.3-4.2,6.9-4.2c1.1,0,2.2,0.2,3.3,0.7c3.5,1.4,6.7,5.5,5.5,11.2
		c-1.2,5-5.5,8.2-9.2,11.1c-0.7,0.5-1.4,1.1-2.1,1.6c-1.3,1-2.4,2.2-3.1,2.9c-0.4,0.4-0.7,0.7-0.9,0.9
		C125.4,34.5,125.3,34.6,125.1,34.6z"/>
	<path class="st1" d="M132.2,6.7c0.9,0,1.9,0.2,3,0.7c3.4,1.3,6.1,5.2,5,10.3c-1.3,5.6-6.8,8.9-11.1,12.3c-2.1,1.6-3.5,3.4-4,3.8
		c-0.6-0.5-1.3-1.3-1.9-1.9l-6.4-5.2c-12.2-8.9-5.8-19.8,1.1-19.8c1.2,0,2.4,0.3,3.5,1c0.7,0.5,1.7,1.2,2.2,1.8
		c0.5,0.6,1.1,1.6,1.6,2.1C126.2,10.7,128.2,6.7,132.2,6.7 M132.2,5.1C132.2,5.1,132.2,5.1,132.2,5.1c-3.5,0-5.7,2.3-7,4
		c-0.1-0.2-0.3-0.4-0.4-0.5c-0.7-0.8-1.9-1.7-2.6-2.2c0,0,0,0-0.1,0c-1.3-0.8-2.8-1.2-4.3-1.2c-4,0-7.7,2.9-9.1,7
		c-1.8,5.4,0.8,11.2,7,15.7l6.3,5.2c0.2,0.2,0.4,0.4,0.5,0.6c0.5,0.5,1,1,1.5,1.4c0.3,0.2,0.6,0.4,1,0.4c0.3,0,0.7-0.1,1-0.3
		c0.3-0.2,0.6-0.5,1-1c0.7-0.7,1.8-1.8,3-2.8c0.7-0.6,1.4-1.1,2.1-1.6c3.9-2.9,8.3-6.3,9.5-11.5c1.3-6.3-2.2-10.7-6-12.2
		C134.6,5.4,133.4,5.1,132.2,5.1L132.2,5.1z"/>
</g>
<g>
	<g>
		<path class="st2" d="M25.9,32.9c-1.1,0-2.2-0.2-3.2-0.6c-1.2-0.5-2.1-1.2-2.9-2.3c-0.7-1-1.2-2.1-1.5-3.3
			c-0.3-1.2-0.4-2.4-0.4-3.6c0-1.2,0.2-2.4,0.6-3.4c0.4-1.1,0.9-2.2,1.7-3.2c0.7-1,1.6-1.8,2.6-2.5c1-0.7,2.1-1.1,3.2-1.4
			c0.6-0.1,1.2-0.2,1.8-0.2c0.6,0,1.2,0.1,1.8,0.2c0.2,0.1,0.5,0.1,0.8,0.2c0.3,0.1,0.6,0.2,1,0.4c0.3,0.2,0.7,0.4,1,0.6
			c0.4,0.3,0.7,0.6,0.9,0.9c0.3,0.5,0.2,0.8,0.1,1.1c-0.1,0.1-0.3,0.5-0.9,0.5h-0.5c-0.2,0-0.3,0-0.5,0c-0.8,0-1.6,0.1-2.4,0.3
			c-0.9,0.2-1.8,0.6-2.7,1.1c-0.9,0.5-1.6,1.1-2.3,1.8c-0.7,0.7-1.3,1.5-1.7,2.4c-0.2,0.5-0.4,0.9-0.6,1.4c-0.2,0.5-0.3,1-0.3,1.5
			c-0.1,0.5-0.1,1,0,1.5c0,0.5,0.2,1,0.4,1.4c0.3,0.8,0.8,1.3,1.5,1.7c0.6,0.3,1.2,0.4,1.9,0.4c0.2,0,0.3,0,0.5,0
			c0.8-0.1,1.5-0.3,2.1-0.9c0.7-0.6,1.2-1.3,1.7-2c0.6-1,1.2-2,1.7-3c0.5-1.1,1-2.2,1.4-3.3c0.4-1.1,0.9-2.2,1.3-3.4
			c0.4-1.1,0.8-2.3,1.3-3.4c0.5-1.1,1-2.3,1.5-3.4c0.5-1.1,1.1-2.2,1.8-3.2c0-0.1,0.1-0.2,0.2-0.2c-0.2,0-0.3,0-0.5,0
			c-0.7,0-1.4,0-2.1,0.1c-0.7,0-1.3,0.1-2,0.2c-0.6,0.1-1.2,0.3-1.9,0.5c-0.5,0.2-1,0.4-1.5,0.6c-0.5,0.2-1,0.5-1.4,0.8
			c-0.2,0.1-0.4,0.2-0.5,0.2c-0.4,0-0.7-0.2-0.9-0.6c-0.1-0.2-0.2-0.5-0.2-0.8c0-0.2,0-0.4,0-0.6c0-0.1,0-0.3,0-0.4
			c0.2-0.9,0.5-1.7,1.1-2.5c0.6-0.7,1.3-1.3,2.1-1.7c0.8-0.4,1.7-0.6,2.6-0.7c0.1,0,0.3,0,0.4,0c0.9,0,1.7,0.2,2.5,0.5
			C37.4,3,38.2,3.3,39,3.5c0.5,0.1,1.1,0.2,1.6,0.2c0,0,0,0,0,0c0.6,0,1-0.1,1.5-0.3c0.2-0.1,0.4-0.2,0.7-0.3
			c0.3-0.2,0.6-0.3,0.8-0.4c0.5-0.2,1-0.3,1.5-0.3c0.1,0,0.1,0,0.2,0c0.4,0,0.9,0.1,1.3,0.2c0.5,0.2,0.7,0.5,0.7,1
			c0,0.4-0.2,0.7-0.6,0.9c-0.4,0.2-0.8,0.4-1.1,0.7c-0.3,0.3-0.6,0.6-0.9,0.9c-0.3,0.4-0.5,0.7-0.7,1.1c-0.2,0.4-0.4,0.9-0.7,1.3
			c-0.5,1-0.9,2.1-1.3,3.1c-0.4,1-0.8,2.1-1.3,3.2c-0.9,2.3-1.8,4.5-2.8,6.7c-0.5,1-1,2.1-1.5,3.1c-0.5,1-1.2,2-1.9,3
			c-0.7,1-1.5,1.9-2.4,2.7c-0.9,0.9-2,1.5-3.1,2C28,32.7,27,32.9,25.9,32.9z"/>
		<path class="st1" d="M34.1,3c0.8,0,1.5,0.1,2.2,0.4c0.8,0.3,1.6,0.6,2.5,0.9c0.6,0.2,1.2,0.3,1.8,0.3c0,0,0.1,0,0.1,0
			c0.6,0,1.2-0.1,1.7-0.4c0.2-0.1,0.4-0.2,0.7-0.4c0.3-0.1,0.5-0.2,0.7-0.3c0.4-0.1,0.8-0.2,1.2-0.2c0.1,0,0.1,0,0.2,0
			c0.4,0,0.7,0.1,1,0.2c0.1,0,0.2,0.1,0.2,0.2c0,0.1,0,0.1-0.1,0.2c-0.5,0.2-0.9,0.4-1.2,0.8c-0.4,0.3-0.7,0.7-1,1.1
			c-0.3,0.4-0.5,0.8-0.8,1.3c-0.2,0.4-0.4,0.9-0.7,1.3c-0.5,1-0.9,2.1-1.4,3.1c-0.4,1.1-0.8,2.1-1.3,3.2c-0.9,2.3-1.8,4.5-2.8,6.7
			c-0.5,1-1,2-1.5,3c-0.5,1-1.1,2-1.8,2.9c-0.7,0.9-1.4,1.8-2.3,2.6c-0.9,0.8-1.8,1.4-2.9,1.8c-0.9,0.3-1.8,0.5-2.8,0.5
			c-1,0-2-0.2-2.8-0.6c-1-0.4-1.9-1.1-2.5-2c-0.6-0.9-1.1-1.9-1.4-3c-0.3-1.1-0.4-2.2-0.4-3.4c0-1.2,0.2-2.2,0.5-3.2
			c0.3-1.1,0.9-2.1,1.5-3c0.7-0.9,1.5-1.7,2.4-2.3c0.9-0.6,1.9-1,3-1.3c0.5-0.1,1.1-0.2,1.7-0.2c0.5,0,1.1,0.1,1.6,0.2
			c0.2,0,0.5,0.1,0.7,0.2c0.3,0.1,0.6,0.2,0.9,0.4c0.3,0.1,0.6,0.3,0.9,0.5c0.3,0.2,0.5,0.4,0.7,0.7c0.1,0.2,0.1,0.3-0.1,0.3
			c-0.2,0-0.3,0-0.5,0c-0.2,0-0.3,0-0.5,0c-0.9,0-1.8,0.1-2.6,0.3c-1,0.3-2,0.7-2.9,1.2c-0.9,0.5-1.7,1.2-2.5,2
			c-0.7,0.8-1.3,1.7-1.9,2.6c-0.3,0.5-0.5,1-0.7,1.6c-0.2,0.5-0.3,1.1-0.4,1.7c-0.1,0.6-0.1,1.1,0,1.7c0.1,0.6,0.2,1.1,0.4,1.6
			c0.4,1,1.1,1.7,1.9,2.1c0.7,0.3,1.5,0.5,2.2,0.5c0.2,0,0.4,0,0.5,0c1-0.1,1.8-0.4,2.5-1.1c0.7-0.7,1.3-1.4,1.8-2.1
			c0.7-1,1.3-2,1.8-3.1c0.5-1.1,1-2.2,1.4-3.3c0.4-1.1,0.9-2.3,1.3-3.4c0.4-1.1,0.8-2.3,1.3-3.4c0.5-1.1,0.9-2.2,1.5-3.3
			c0.5-1.1,1.1-2.1,1.8-3.1c0.4-0.6,0.7-1.1,1.1-1.6c-0.7,0-1.4,0.1-2.1,0.1c-0.7,0-1.4,0-2.1,0.1c-0.7,0-1.4,0.1-2,0.2
			c-0.7,0.1-1.3,0.3-2,0.5c-0.6,0.2-1.1,0.4-1.6,0.7c-0.5,0.2-1,0.5-1.5,0.8c-0.1,0-0.1,0-0.1,0c-0.1,0-0.1,0-0.2-0.1
			c-0.1-0.1-0.1-0.3-0.1-0.4s0-0.4,0-0.5c0-0.2,0-0.3,0-0.3c0.1-0.8,0.4-1.5,0.9-2.1c0.5-0.6,1.1-1.1,1.9-1.5
			C32.2,3.3,33,3.1,33.7,3C33.9,3,34,3,34.1,3 M34.1,1.4c-0.1,0-0.3,0-0.4,0c-1,0.1-2,0.3-2.9,0.8c-0.9,0.5-1.7,1.1-2.4,1.9
			c0,0,0,0,0,0.1c-0.6,0.8-1.1,1.8-1.2,2.8c0,0.1,0,0.1,0,0.2c0,0,0,0.1,0,0.2c0,0.2,0,0.5,0,0.7c0,0.4,0.1,0.8,0.3,1.2
			c0.3,0.6,0.9,1,1.6,1c0.3,0,0.6-0.1,0.9-0.2c0,0,0.1,0,0.1,0c0.5-0.3,0.9-0.5,1.4-0.7c0.4-0.2,0.9-0.4,1.4-0.6
			c0.6-0.2,1.2-0.4,1.7-0.4c0.6-0.1,1.3-0.2,1.9-0.2c0.3,0,0.6,0,1-0.1c-0.4,0.7-0.9,1.5-1.2,2.3c-0.5,1.1-1,2.2-1.5,3.4
			c-0.1,0.3-0.2,0.5-0.3,0.8c0-0.1-0.1-0.2-0.2-0.3c-0.3-0.4-0.6-0.8-1.1-1.1c-0.4-0.3-0.7-0.5-1.1-0.7c-0.4-0.2-0.7-0.3-1.1-0.4
			c-0.3-0.1-0.6-0.2-0.9-0.3c-0.7-0.1-1.3-0.2-2-0.2c-0.7,0-1.4,0.1-2,0.2c-1.3,0.3-2.4,0.8-3.5,1.5c-1.1,0.7-2,1.6-2.8,2.7
			c-0.8,1-1.4,2.2-1.8,3.4c-0.4,1.1-0.6,2.3-0.6,3.7c0,1.3,0.1,2.6,0.4,3.8c0.3,1.3,0.9,2.5,1.6,3.5c0.8,1.2,1.9,2,3.2,2.6
			c1.1,0.5,2.2,0.7,3.4,0.7c1.2,0,2.3-0.2,3.4-0.6c1.3-0.5,2.4-1.2,3.4-2.1c1-0.9,1.8-1.8,2.5-2.8c0.7-0.9,1.4-2,1.9-3
			c0.5-1,1.1-2.1,1.6-3.1c1-2.2,2-4.5,2.9-6.8c0.4-1.1,0.8-2.1,1.3-3.2c0.4-1,0.9-2.1,1.3-3.1c0.2-0.4,0.4-0.8,0.6-1.3
			c0.2-0.4,0.4-0.7,0.6-1c0.2-0.3,0.5-0.6,0.7-0.8c0.2-0.2,0.5-0.4,0.8-0.5c0,0,0.1,0,0.1-0.1c0.6-0.3,1-0.9,1-1.6
			c0-0.7-0.4-1.4-1.2-1.7c0,0,0,0-0.1,0c-0.5-0.2-1-0.3-1.6-0.3c-0.1,0-0.2,0-0.3,0c-0.6,0-1.1,0.1-1.7,0.3
			c-0.3,0.1-0.5,0.2-0.9,0.4c-0.2,0.1-0.5,0.2-0.7,0.3C41.5,2.9,41.1,3,40.7,3l-0.1,0c-0.5,0-1-0.1-1.4-0.2
			c-0.8-0.2-1.6-0.5-2.3-0.8C36,1.6,35.1,1.4,34.1,1.4L34.1,1.4z M32.1,17h0.5c0.2,0,0.4,0,0.7-0.1c0,0.1,0,0.1-0.1,0.2
			c-0.4,1.1-0.8,2.2-1.3,3.3c-0.4,1.1-0.9,2.2-1.4,3.2c-0.5,1-1,2-1.6,2.9c-0.4,0.6-1,1.3-1.6,1.8c-0.5,0.4-0.9,0.6-1.6,0.7
			c-0.2,0-0.3,0-0.4,0c-0.5,0-1-0.1-1.6-0.3c-0.5-0.2-0.9-0.6-1.1-1.2c-0.2-0.4-0.3-0.8-0.3-1.2c0-0.5,0-0.9,0-1.4
			c0.1-0.5,0.2-0.9,0.3-1.3c0.2-0.5,0.3-0.9,0.6-1.3c0.4-0.8,1-1.6,1.6-2.3c0.6-0.7,1.3-1.2,2.1-1.7c0.8-0.5,1.6-0.8,2.5-1
			c0.7-0.2,1.5-0.3,2.2-0.3C31.7,17,31.9,17,32.1,17C32,17,32.1,17,32.1,17L32.1,17z"/>
	</g>
	<g>
		<path class="st2" d="M50.4,27.9c-1.1,0-1.9-0.3-2.6-0.9c-0.2-0.2-0.4-0.4-0.6-0.7c-0.2,0.3-0.5,0.5-0.8,0.8
			c-0.7,0.5-1.5,0.8-2.5,0.8c-1.9,0-3.2-0.9-3.8-2.6c-0.5-1.6-0.4-3.7,0.4-6.4c0.2-0.8,0.5-1.6,0.9-2.4c0.4-0.8,0.8-1.6,1.3-2.2
			c0.5-0.7,1.1-1.2,1.7-1.6c0.7-0.4,1.5-0.7,2.3-0.7h1c0.3,0,0.5,0.1,0.7,0.4c0.1,0.2,0.2,0.5,0,0.8c-0.7,1.4-1.3,2.9-1.9,4.5
			c-0.6,1.5-1,2.9-1.4,4.2c-0.3,1.2-0.5,2.3-0.5,3c0,0.1,0,0.3,0,0.3c0.1,0,0.1-0.1,0.2-0.1c0.3-0.2,0.5-0.6,0.8-1
			c0.3-0.4,0.6-0.9,0.9-1.5c0.3-0.5,0.5-1,0.7-1.5c0-0.1,0.1-0.2,0.1-0.3l2-6c0.3-0.9,0.8-1.5,1.5-2.1c0.7-0.5,1.5-0.8,2.4-0.8h1.8
			c0.3,0,0.5,0.1,0.7,0.3C56,12.5,56,12.7,56,13c-0.6,1.6-1.1,3.1-1.5,4.5c-0.2,0.6-0.4,1.2-0.6,1.8c-0.2,0.6-0.4,1.2-0.6,1.7
			c-0.2,0.5-0.3,1-0.5,1.4c-0.1,0.4-0.2,0.7-0.3,0.9c-0.3,0.7-0.3,1.1-0.3,1.3c0,0,0.1,0,0.2-0.1c0.2-0.1,0.4-0.3,0.8-0.6
			c0.3-0.3,0.6-0.7,1-1.3c0.3-0.5,0.7-1.2,1-2c0.1-0.4,0.4-0.6,0.7-0.8c0.2-0.1,0.4-0.1,0.6-0.1c0.1,0,0.3,0,0.4,0.1
			c0.3,0.1,0.6,0.4,0.7,0.7c0.1,0.3,0.1,0.7,0,1c-0.7,1.9-1.6,3.4-2.8,4.6C53.3,27.3,51.9,27.9,50.4,27.9z"/>
		<path class="st1" d="M55.2,12.7c-0.6,1.6-1.1,3.1-1.5,4.5c-0.2,0.6-0.4,1.2-0.6,1.8c-0.2,0.6-0.4,1.2-0.6,1.7
			c-0.2,0.5-0.3,1-0.5,1.4c-0.1,0.4-0.2,0.7-0.3,0.9c-0.3,0.9-0.4,1.5-0.3,1.8c0.1,0.4,0.3,0.5,0.6,0.5c0.2,0,0.4-0.1,0.7-0.2
			c0.3-0.2,0.6-0.4,1-0.8c0.4-0.4,0.7-0.8,1.1-1.4c0.4-0.6,0.7-1.3,1-2.1c0.1-0.2,0.2-0.3,0.3-0.4c0.1,0,0.1-0.1,0.2-0.1
			c0,0,0.1,0,0.1,0c0.1,0,0.2,0.1,0.2,0.2c0,0.1,0,0.3,0,0.5C56,23,55.1,24.4,54,25.5c-1.1,1.1-2.3,1.6-3.6,1.6
			c-0.9,0-1.5-0.2-2-0.7c-0.5-0.4-0.8-1.1-0.8-2c-0.5,0.9-1,1.6-1.6,2c-0.6,0.4-1.2,0.7-2,0.7c-1.5,0-2.5-0.7-3-2.1
			c-0.5-1.4-0.3-3.4,0.4-5.9c0.2-0.8,0.5-1.6,0.8-2.3c0.3-0.8,0.7-1.4,1.2-2c0.4-0.6,1-1.1,1.5-1.4c0.6-0.4,1.2-0.6,1.9-0.6h1
			c-0.7,1.5-1.4,3-2,4.5c-0.6,1.6-1.1,3-1.4,4.3c-0.3,1.3-0.5,2.4-0.6,3.2c0,0.8,0.2,1.3,0.6,1.3c0.3,0,0.6-0.1,1-0.4
			c0.3-0.3,0.6-0.7,1-1.2c0.3-0.5,0.6-1,0.9-1.5c0.3-0.6,0.5-1.1,0.7-1.6c0,0,0-0.1,0.1-0.2l2-6c0.3-0.7,0.7-1.2,1.2-1.7
			c0.6-0.4,1.2-0.6,1.9-0.6H55.2 M55.2,11.1h-1.8c-1.1,0-2,0.3-2.9,1c-0.4,0.3-0.7,0.6-1,0.9c0.1-0.4,0-0.8-0.2-1.1
			c-0.3-0.5-0.8-0.8-1.4-0.8h-1c-1,0-1.9,0.3-2.8,0.8c-0.7,0.5-1.4,1.1-2,1.8c-0.5,0.7-1,1.5-1.4,2.4c-0.4,0.8-0.7,1.7-0.9,2.5
			c-0.9,2.9-1,5.2-0.4,6.9c0.7,2,2.3,3.2,4.5,3.2c1.1,0,2.1-0.3,3-1c0.1-0.1,0.1-0.1,0.2-0.2c0,0,0.1,0.1,0.1,0.1
			c0.8,0.7,1.8,1.1,3.1,1.1c1.7,0,3.3-0.7,4.7-2c1.3-1.2,2.3-2.9,3-4.9c0.2-0.7,0.2-1.2,0-1.6c-0.2-0.6-0.7-1-1.2-1.2
			c-0.2-0.1-0.4-0.1-0.6-0.1c-0.3,0-0.6,0.1-0.9,0.2c-0.3,0.2-0.7,0.5-1,1.1c0.1-0.2,0.2-0.5,0.2-0.7c0.2-0.6,0.4-1.2,0.6-1.8
			c0.5-1.4,1-2.9,1.5-4.5c0.2-0.5,0.1-1-0.2-1.5C56.2,11.4,55.7,11.1,55.2,11.1L55.2,11.1z M46.2,21.6c0.3-1.2,0.7-2.4,1.3-3.8
			c0.2-0.6,0.4-1.1,0.7-1.6l-1.4,4.2c-0.1,0.1-0.1,0.2-0.1,0.4C46.5,21.1,46.4,21.4,46.2,21.6L46.2,21.6z"/>
	</g>
	<g>
		<path class="st2" d="M58,27.9c-0.8,0-1.4-0.2-2-0.5c-0.6-0.3-1-0.8-1.3-1.5c-0.3-0.6-0.4-1.4-0.3-2.3c0.1-0.8,0.3-1.8,0.6-2.9
			l4.7-14.1c0.4-1.4,1.1-2.3,1.9-3c0.8-0.6,1.9-0.9,3.4-0.9h0.8c0.3,0,0.5,0.1,0.7,0.3c0.2,0.2,0.2,0.5,0.1,0.7
			c-1.2,3.5-2.2,6.6-3.1,9.4c-0.4,1.2-0.8,2.4-1.2,3.5C61.9,18,61.5,19,61.2,20c-0.3,0.9-0.6,1.7-0.8,2.3c-0.2,0.5-0.3,0.9-0.3,1
			c-0.3,0.7-0.3,1.1-0.3,1.3c0,0,0.1,0,0.2-0.1c0.2-0.1,0.5-0.3,0.8-0.6c0.3-0.3,0.6-0.7,1-1.3c0.3-0.5,0.7-1.2,1-2
			c0.1-0.4,0.4-0.6,0.7-0.8c0.2-0.1,0.4-0.1,0.6-0.1c0.1,0,0.3,0,0.4,0.1c0.3,0.1,0.6,0.4,0.7,0.7c0.1,0.3,0.1,0.7,0,1
			c-0.7,1.9-1.6,3.4-2.8,4.6C60.9,27.3,59.5,27.9,58,27.9z"/>
		<path class="st1" d="M65.8,3.6c-1.2,3.5-2.2,6.6-3.1,9.4c-0.4,1.2-0.8,2.4-1.2,3.5c-0.4,1.2-0.7,2.2-1.1,3.1
			c-0.3,0.9-0.6,1.7-0.8,2.3c-0.2,0.6-0.3,1-0.3,1c-0.3,0.9-0.4,1.5-0.3,1.8c0.1,0.4,0.3,0.5,0.6,0.5c0.2,0,0.4-0.1,0.7-0.2
			c0.3-0.2,0.6-0.4,1-0.8c0.3-0.4,0.7-0.8,1.1-1.4c0.4-0.6,0.7-1.3,1-2.1c0.1-0.2,0.2-0.3,0.3-0.4c0.1,0,0.1-0.1,0.2-0.1
			c0,0,0.1,0,0.1,0c0.1,0,0.2,0.1,0.2,0.2c0,0.1,0,0.3,0,0.5c-0.6,1.8-1.5,3.2-2.6,4.3c-1.1,1.1-2.3,1.6-3.6,1.6
			c-0.6,0-1.2-0.1-1.6-0.4c-0.4-0.2-0.8-0.6-1-1.1c-0.2-0.5-0.3-1.1-0.2-1.9c0-0.8,0.2-1.7,0.6-2.7l4.7-14c0.4-1.2,0.9-2.1,1.6-2.6
			c0.7-0.5,1.6-0.8,2.9-0.8H65.8 M65.8,2H65c-1.6,0-2.9,0.4-3.8,1.1c-0.9,0.7-1.6,1.8-2.1,3.4l-4.7,14c-0.4,1.2-0.6,2.2-0.7,3.1
			c-0.1,1,0.1,1.9,0.4,2.6c0.3,0.8,0.9,1.5,1.7,1.9c0.7,0.4,1.5,0.5,2.4,0.5c1.7,0,3.3-0.7,4.7-2c1.3-1.2,2.3-2.9,3-4.9
			c0.2-0.7,0.2-1.2,0-1.6c-0.2-0.6-0.7-1-1.2-1.2c-0.2-0.1-0.4-0.1-0.6-0.1c-0.3,0-0.6,0.1-0.9,0.2c-0.3,0.1-0.7,0.4-0.9,0.9
			c0.3-0.9,0.6-1.9,1-2.9c0.4-1.2,0.8-2.3,1.2-3.5c0.9-2.8,2-5.9,3.1-9.4c0.2-0.5,0.1-1-0.2-1.5C66.8,2.3,66.3,2,65.8,2L65.8,2z"/>
	</g>
	<g>
		<path class="st2" d="M65.6,27.9c-0.8,0-1.4-0.2-2-0.5c-0.6-0.3-1-0.8-1.3-1.5c-0.3-0.6-0.4-1.4-0.3-2.3c0.1-0.8,0.3-1.8,0.6-2.9
			l2-6c0.3-0.9,0.8-1.5,1.5-2.1c0.6-0.4,1.2-0.7,1.9-0.8c-0.1-0.1-0.3-0.2-0.4-0.3c-0.6-0.6-0.8-1.3-0.8-2.2c0-0.8,0.3-1.6,0.9-2.2
			c0.6-0.7,1.3-1,2.1-1.1c0.1,0,0.2,0,0.2,0c0.7,0,1.4,0.3,1.9,0.8c0.6,0.6,0.8,1.3,0.8,2.2c0,0.8-0.3,1.6-0.9,2.2
			c-0.3,0.3-0.6,0.6-1,0.8c0.1,0.1,0.1,0.1,0.2,0.2c0.2,0.2,0.2,0.5,0.1,0.7c-0.6,1.6-1.1,3.1-1.5,4.5c-0.2,0.6-0.4,1.2-0.6,1.8
			c-0.2,0.6-0.4,1.2-0.6,1.7c-0.2,0.5-0.3,1-0.5,1.4l-0.3,0.9c-0.3,0.7-0.3,1.1-0.3,1.3c0,0,0.1,0,0.2-0.1c0.2-0.1,0.4-0.3,0.8-0.6
			c0.3-0.3,0.6-0.7,1-1.3c0.3-0.5,0.7-1.2,1-2c0.1-0.4,0.4-0.6,0.7-0.8c0.2-0.1,0.4-0.1,0.6-0.1c0.1,0,0.3,0,0.4,0.1
			c0.3,0.1,0.6,0.4,0.7,0.7c0.1,0.3,0.1,0.7,0,1c-0.7,1.9-1.6,3.4-2.8,4.6C68.5,27.3,67.1,27.9,65.6,27.9z"/>
		<path class="st1" d="M70.1,6.9c0.5,0,0.9,0.2,1.3,0.5c0.4,0.4,0.6,1,0.6,1.6c0,0.6-0.3,1.2-0.7,1.7c-0.5,0.5-1,0.8-1.6,0.8
			c-0.1,0-0.1,0-0.2,0c-0.5,0-0.9-0.2-1.3-0.5c-0.4-0.4-0.6-1-0.6-1.6c0-0.6,0.3-1.2,0.7-1.7c0.5-0.5,1-0.8,1.6-0.8
			C70,6.9,70,6.9,70.1,6.9 M70.4,12.7c-0.6,1.6-1.1,3.1-1.5,4.5c-0.2,0.6-0.4,1.2-0.6,1.8c-0.2,0.6-0.4,1.2-0.6,1.7
			c-0.2,0.5-0.3,1-0.5,1.4c-0.1,0.4-0.2,0.7-0.3,0.9c-0.3,0.9-0.4,1.5-0.3,1.8c0.1,0.4,0.3,0.5,0.6,0.5c0.2,0,0.4-0.1,0.7-0.2
			c0.3-0.2,0.6-0.4,1-0.8c0.4-0.4,0.7-0.8,1.1-1.4c0.4-0.6,0.7-1.3,1-2.1c0.1-0.2,0.2-0.3,0.3-0.4c0.1,0,0.1-0.1,0.2-0.1
			c0,0,0.1,0,0.1,0c0.1,0,0.2,0.1,0.2,0.2c0,0.1,0,0.3,0,0.5c-0.6,1.8-1.5,3.2-2.6,4.3c-1.1,1.1-2.3,1.6-3.6,1.6
			c-0.6,0-1.2-0.1-1.6-0.4c-0.4-0.2-0.8-0.6-1-1.1c-0.2-0.5-0.3-1.1-0.2-1.9c0-0.8,0.2-1.7,0.6-2.7l2-6c0.3-0.7,0.7-1.2,1.2-1.7
			c0.6-0.4,1.2-0.6,1.9-0.6H70.4 M70.1,5.3c-0.1,0-0.2,0-0.3,0c-1,0.1-1.9,0.5-2.6,1.3c-0.7,0.8-1.1,1.7-1.1,2.7
			c0,0.8,0.2,1.5,0.5,2.1c-0.3,0.1-0.6,0.3-0.9,0.5c-0.8,0.6-1.4,1.4-1.8,2.4c0,0,0,0,0,0l-2,6c-0.4,1.2-0.6,2.2-0.7,3.1
			c-0.1,1,0.1,1.9,0.4,2.6c0.3,0.8,0.9,1.5,1.7,1.9c0.7,0.4,1.5,0.5,2.4,0.5c1.7,0,3.3-0.7,4.7-2c1.3-1.2,2.3-2.9,3-4.9
			c0.2-0.7,0.2-1.2,0-1.6c-0.2-0.6-0.7-1-1.2-1.2c-0.2-0.1-0.4-0.1-0.6-0.1c-0.3,0-0.6,0.1-0.9,0.2c-0.3,0.2-0.7,0.5-1,1.1
			c0.1-0.2,0.2-0.5,0.2-0.7c0.2-0.6,0.4-1.2,0.6-1.8c0.5-1.4,1-2.9,1.5-4.5c0.1-0.3,0.1-0.6,0-0.9c0.2-0.1,0.3-0.3,0.5-0.4
			c0.7-0.8,1.1-1.7,1.1-2.7c0-1.1-0.3-2-1-2.7C71.9,5.7,71,5.3,70.1,5.3L70.1,5.3z"/>
	</g>
	<g>
		<path class="st2" d="M77.1,28.1c-1.9,0-3.4-0.4-4.5-1.3c-1.1-0.8-1.9-1.9-2.2-3.2c-0.3-1.2-0.4-2.6-0.1-4c0.3-1.4,0.9-2.7,1.7-3.9
			c0.8-1.2,2-2.2,3.3-3c1.4-0.8,2.9-1.2,4.7-1.2c1.4,0,2.4,0.3,3.1,0.8c0.8,0.6,1.3,1.3,1.4,2.2c0.1,0.8,0,1.7-0.5,2.6
			c-0.4,0.9-1,1.7-1.9,2.4c-0.8,0.7-1.9,1.4-3.1,1.9c-1,0.4-2.1,0.7-3.3,0.9c0,0.2,0.1,0.4,0.2,0.7c0.1,0.4,0.3,0.8,0.5,1.1
			c0.2,0.3,0.5,0.5,0.8,0.7c0.3,0.2,0.7,0.2,1.2,0.2c0.4,0,0.9-0.1,1.3-0.3c0.5-0.2,1-0.4,1.5-0.8c0.5-0.4,1-0.8,1.5-1.4
			c0.5-0.6,0.9-1.2,1.2-2c0.2-0.4,0.4-0.6,0.7-0.8c0.2-0.1,0.4-0.1,0.6-0.1c0.1,0,0.3,0,0.4,0.1c0.4,0.1,0.6,0.4,0.7,0.8
			c0.1,0.3,0.1,0.6-0.1,1c-0.4,1-0.9,1.9-1.5,2.7c-0.6,0.8-1.4,1.5-2.2,2.1c-0.8,0.6-1.7,1-2.7,1.4C79.1,27.9,78.1,28.1,77.1,28.1z
			 M79.6,14.2c-0.4,0-0.8,0.2-1.2,0.5c-0.5,0.4-0.9,0.9-1.2,1.5c-0.4,0.6-0.7,1.4-0.9,2.2c-0.1,0.4-0.2,0.9-0.3,1.3
			c0.3-0.1,0.6-0.2,0.8-0.4c0.6-0.4,1.1-0.8,1.6-1.3c0.4-0.5,0.8-1,1.1-1.5c0.3-0.5,0.5-1,0.5-1.4c0-0.2,0.1-0.6-0.1-0.8
			C79.9,14.3,79.8,14.2,79.6,14.2z"/>
		<path class="st1" d="M80.1,12.4c1.2,0,2.1,0.2,2.7,0.7c0.6,0.4,1,1,1.1,1.6c0.1,0.7,0,1.4-0.4,2.2c-0.4,0.8-0.9,1.5-1.7,2.2
			c-0.8,0.7-1.7,1.3-2.9,1.8c-1.1,0.5-2.4,0.8-3.9,0.9c0,0.6,0.1,1.1,0.3,1.6c0.1,0.5,0.4,1,0.7,1.3c0.3,0.4,0.7,0.7,1.1,0.9
			c0.4,0.2,1,0.3,1.6,0.3c0.5,0,1-0.1,1.6-0.3c0.6-0.2,1.1-0.5,1.7-0.9c0.6-0.4,1.1-0.9,1.6-1.5c0.5-0.6,1-1.3,1.3-2.2
			c0.1-0.2,0.2-0.3,0.3-0.4c0.1,0,0.1-0.1,0.2-0.1c0,0,0.1,0,0.1,0c0.1,0,0.2,0.1,0.2,0.2c0,0.1,0,0.3-0.1,0.5
			c-0.4,0.9-0.8,1.7-1.4,2.5c-0.6,0.7-1.2,1.4-2,1.9c-0.7,0.5-1.6,1-2.4,1.2c-0.9,0.3-1.8,0.4-2.7,0.4c-1.7,0-3-0.4-4-1.1
			c-1-0.7-1.6-1.7-1.9-2.8c-0.3-1.1-0.3-2.3-0.1-3.6c0.3-1.3,0.8-2.5,1.6-3.6c0.8-1.1,1.8-2,3-2.8C77,12.7,78.5,12.4,80.1,12.4
			 M75,20.7c0.8-0.1,1.5-0.3,2.1-0.7c0.7-0.4,1.3-0.9,1.7-1.4c0.5-0.5,0.9-1.1,1.2-1.7c0.3-0.6,0.5-1.2,0.6-1.7
			c0.1-0.5,0-0.9-0.2-1.3c-0.2-0.3-0.5-0.5-1-0.5c-0.6,0-1.2,0.2-1.7,0.7c-0.5,0.4-1,1-1.4,1.7c-0.4,0.7-0.7,1.5-1,2.3
			C75.2,19,75.1,19.9,75,20.7 M80.1,10.8c-1.9,0-3.6,0.4-5.1,1.3c-1.4,0.8-2.6,1.9-3.5,3.2c-0.9,1.3-1.5,2.7-1.8,4.2
			c-0.3,1.5-0.3,3,0.1,4.4c0.4,1.5,1.2,2.7,2.5,3.6c1.3,0.9,2.9,1.4,5,1.4c1.1,0,2.2-0.2,3.2-0.5c1-0.3,2-0.8,2.9-1.5
			c0.9-0.6,1.7-1.4,2.3-2.2c0.7-0.9,1.2-1.8,1.6-2.8c0,0,0,0,0-0.1c0.2-0.5,0.2-1,0.1-1.4c-0.2-0.7-0.6-1.1-1.2-1.4
			c-0.2-0.1-0.4-0.1-0.6-0.1c-0.3,0-0.6,0.1-0.9,0.2c-0.4,0.2-0.8,0.6-1,1.1c-0.3,0.8-0.7,1.4-1.1,1.9c-0.4,0.5-0.9,0.9-1.3,1.3
			c-0.4,0.3-0.8,0.6-1.3,0.7c-0.4,0.1-0.8,0.2-1.1,0.2c-0.3,0-0.6-0.1-0.8-0.2c-0.2-0.1-0.4-0.3-0.6-0.5c-0.1-0.2-0.2-0.3-0.3-0.6
			c0.9-0.2,1.8-0.4,2.6-0.8c1.3-0.6,2.4-1.3,3.3-2c0.9-0.8,1.6-1.7,2.1-2.7c0.5-1.1,0.7-2.1,0.5-3.1c-0.2-1.1-0.8-2-1.7-2.7
			C82.8,11.1,81.6,10.8,80.1,10.8L80.1,10.8z M77.2,18c0.2-0.5,0.4-1,0.7-1.4c0.3-0.5,0.7-0.9,1-1.3c0.1-0.1,0.2-0.1,0.3-0.2
			c-0.1,0.3-0.2,0.6-0.4,1c-0.3,0.5-0.6,0.9-1,1.4C77.6,17.7,77.4,17.9,77.2,18L77.2,18z"/>
	</g>
	<g>
		<path class="st2" d="M87.1,27.9c-0.8,0-1.4-0.2-2-0.4c-0.6-0.3-1.1-0.8-1.4-1.5c-0.3-0.6-0.4-1.4-0.3-2.3c0.1-0.8,0.3-1.8,0.6-2.9
			c0.1-0.4,0.3-0.9,0.5-1.5l0.6-1.8c0.2-0.6,0.4-1.3,0.7-1.9c0.1-0.3,0.2-0.6,0.3-0.8h-0.3c-0.3,0-0.5-0.1-0.7-0.4
			c-0.1-0.2-0.2-0.5-0.1-0.8l0.5-1c0.1-0.3,0.4-0.5,0.7-0.5H87l0.1-0.3c0.3-0.8,0.6-1.5,0.9-2.1c0.4-0.6,0.8-1.1,1.4-1.5
			c0.5-0.4,1.1-0.6,1.8-0.8c0.6-0.1,1.4-0.2,2.2-0.2c0.3,0,0.5,0.1,0.7,0.3c0.2,0.2,0.2,0.5,0.1,0.7c-0.1,0.5-0.3,1-0.5,1.5
			c-0.2,0.4-0.3,1-0.6,1.6c-0.1,0.2-0.2,0.5-0.3,0.8c0,0,1.1-0.1,1.1-0.1c0.3,0,0.5,0.1,0.7,0.4c0.2,0.2,0.2,0.6,0,0.8l-0.7,1.2
			c-0.1,0.3-0.4,0.4-0.7,0.4H92l-2.9,8.6c-0.2,0.7-0.3,1.1-0.3,1.3c0,0,0.1,0,0.2-0.1c0.2-0.1,0.5-0.3,0.8-0.6
			c0.3-0.3,0.6-0.7,1-1.3c0.3-0.5,0.7-1.2,1-2c0.1-0.4,0.4-0.6,0.7-0.8c0.2-0.1,0.4-0.1,0.6-0.1c0.1,0,0.3,0,0.4,0.1
			c0.2,0.1,0.5,0.2,0.7,0.7c0.1,0.3,0.1,0.7,0,1.1c-0.7,1.9-1.6,3.4-2.8,4.6C89.9,27.3,88.5,27.9,87.1,27.9z"/>
		<path class="st1" d="M93.4,8c-0.1,0.4-0.3,0.9-0.5,1.5c-0.2,0.4-0.3,1-0.6,1.6c-0.2,0.6-0.4,1.2-0.7,1.9l2.2-0.2L93.3,14h-1.9
			l-3,9.1c-0.3,0.9-0.4,1.5-0.3,1.8c0.1,0.4,0.3,0.5,0.6,0.5c0.2,0,0.4-0.1,0.7-0.2c0.3-0.2,0.6-0.4,1-0.8c0.3-0.4,0.7-0.8,1.1-1.4
			c0.4-0.6,0.7-1.3,1-2.1c0.1-0.2,0.2-0.3,0.3-0.4c0.1,0,0.1-0.1,0.2-0.1c0,0,0.1,0,0.1,0c0.1,0,0.2,0.1,0.2,0.2
			c0.1,0.1,0.1,0.3,0,0.5c-0.6,1.8-1.5,3.2-2.6,4.3c-1.1,1.1-2.3,1.6-3.5,1.6c-0.6,0-1.2-0.1-1.6-0.4c-0.4-0.2-0.8-0.6-1-1.1
			c-0.2-0.5-0.3-1.1-0.2-1.9c0.1-0.8,0.3-1.7,0.6-2.7c0.1-0.4,0.3-1,0.5-1.5c0.2-0.6,0.4-1.1,0.6-1.8c0.2-0.6,0.4-1.2,0.7-1.9
			c0.2-0.7,0.4-1.3,0.7-1.9h-1.5l0.4-1h1.3l0.3-0.9c0.3-0.8,0.5-1.4,0.8-2c0.3-0.5,0.7-1,1.1-1.3c0.4-0.3,0.9-0.5,1.5-0.7
			C91.9,8.1,92.6,8,93.4,8L93.4,8 M93.4,6.4L93.4,6.4c-0.9,0-1.7,0.1-2.4,0.2c-0.8,0.2-1.5,0.5-2.1,0.9c-0.6,0.4-1.2,1-1.6,1.8
			c-0.3,0.6-0.6,1.3-0.9,2.1h-0.2c-0.6,0-1.2,0.4-1.5,0.9l-0.4,1c-0.2,0.5-0.2,1.1,0.1,1.5c0.2,0.2,0.4,0.4,0.6,0.6
			c-0.2,0.6-0.4,1.3-0.6,1.9c-0.2,0.6-0.4,1.2-0.6,1.8c-0.2,0.6-0.4,1.1-0.5,1.5c-0.4,1.1-0.6,2.2-0.7,3.1c-0.1,1,0,1.9,0.3,2.6
			c0.4,0.8,0.9,1.5,1.7,1.9c0.7,0.4,1.5,0.5,2.4,0.5c1.7,0,3.2-0.7,4.7-2c1.3-1.2,2.3-2.9,3.1-4.9c0.3-0.7,0.1-1.3,0-1.7
			c-0.2-0.6-0.7-0.9-1.2-1.1c-0.2-0.1-0.4-0.1-0.6-0.1c-0.3,0-0.6,0.1-0.9,0.2c-0.3,0.2-0.7,0.4-0.9,1l1.5-4.5h0.8
			c0.6,0,1.1-0.3,1.4-0.8l0.7-1.2c0.3-0.5,0.3-1.2-0.1-1.7c-0.3-0.4-0.8-0.7-1.3-0.7c0.1-0.4,0.3-0.8,0.4-1.1
			c0.2-0.5,0.4-1.1,0.5-1.5C95.1,8,95,7.5,94.7,7C94.4,6.6,94,6.4,93.4,6.4L93.4,6.4z"/>
	</g>
	<g>
		<path class="st2" d="M102.9,27.9c-1.1,0-1.9-0.3-2.6-0.9c-0.3-0.3-0.5-0.6-0.7-1c-0.3,0.3-0.6,0.6-1,0.8c-0.9,0.7-1.9,1-3.1,1
			c-1.3,0-2.3-0.5-3-1.4c-0.7-0.8-1.1-1.9-1.2-3.1c-0.1-1.2,0.1-2.4,0.4-3.8s1-2.6,1.9-3.7c0.9-1.1,2.1-2.1,3.5-2.9
			c1.4-0.8,3.1-1.2,5-1.2c1.4,0,2.5,0.2,3.3,0.6c0.8,0.4,1.5,1,2,1.9c0.1,0.2,0.2,0.4,0.1,0.7c-0.5,1.4-0.9,2.7-1.3,3.8l-0.5,1.5
			c-0.2,0.5-0.3,0.9-0.5,1.3l-0.4,1.1c-0.1,0.3-0.1,0.4-0.2,0.5c-0.3,0.7-0.3,1.1-0.3,1.3c0,0,0.1,0,0.2-0.1
			c0.2-0.1,0.5-0.3,0.8-0.6c0.3-0.3,0.6-0.7,1-1.3c0.3-0.5,0.7-1.2,1-2c0.2-0.5,0.5-0.7,0.7-0.8c0.2-0.1,0.4-0.1,0.6-0.1
			c0.1,0,0.3,0,0.4,0.1c0.2,0.1,0.5,0.3,0.7,0.7c0.1,0.3,0.1,0.7,0,1.1c-0.7,1.9-1.6,3.4-2.8,4.6C105.8,27.3,104.4,27.9,102.9,27.9z
			 M102,14.5c-0.5,0-0.9,0.2-1.4,0.6c-0.6,0.5-1.1,1.2-1.5,2c-0.5,0.8-0.9,1.7-1.2,2.7c-0.3,1-0.6,1.9-0.7,2.7
			C97,23.4,97,24,97,24.5c0,0.1,0,0.1,0,0.2c0.1,0,0.2-0.1,0.3-0.1c0.2-0.1,0.4-0.3,0.6-0.5c0.2-0.3,0.4-0.5,0.6-0.9
			c0.2-0.3,0.4-0.7,0.6-1c0.4-0.9,0.8-1.8,1.2-2.9l1.6-4.7C102,14.5,102,14.5,102,14.5z"/>
		<path class="st1" d="M102.3,12.7c1.2,0,2.2,0.2,2.9,0.5c0.7,0.3,1.3,0.9,1.7,1.6c-0.5,1.4-0.9,2.7-1.3,3.8c-0.2,0.5-0.3,1-0.5,1.5
			c-0.2,0.5-0.3,0.9-0.4,1.3c-0.1,0.4-0.3,0.8-0.4,1c-0.1,0.3-0.2,0.5-0.2,0.6c-0.3,0.9-0.4,1.5-0.3,1.8c0.1,0.4,0.3,0.5,0.6,0.5
			c0.2,0,0.4-0.1,0.7-0.2c0.3-0.2,0.6-0.4,1-0.8c0.3-0.4,0.7-0.8,1.1-1.4c0.4-0.6,0.7-1.3,1-2.1c0.1-0.2,0.2-0.3,0.3-0.4
			c0.1,0,0.2-0.1,0.2-0.1c0,0,0.1,0,0.1,0c0.1,0,0.2,0.1,0.2,0.2c0.1,0.1,0.1,0.3,0,0.5c-0.6,1.8-1.5,3.2-2.6,4.3
			c-1.1,1.1-2.3,1.6-3.5,1.6c-0.9,0-1.6-0.2-2-0.7c-0.5-0.4-0.8-1.1-0.8-2.1c-0.5,0.7-1.2,1.3-1.9,1.9c-0.7,0.6-1.6,0.9-2.6,0.9
			c-1,0-1.8-0.4-2.4-1.1c-0.6-0.7-0.9-1.6-1-2.7c-0.1-1.1,0-2.2,0.4-3.5c0.4-1.2,1-2.4,1.8-3.5c0.8-1.1,1.9-2,3.2-2.7
			C99,13.1,100.5,12.7,102.3,12.7 M97,25.5c0.3,0,0.5-0.1,0.8-0.2c0.3-0.2,0.5-0.4,0.8-0.7c0.2-0.3,0.5-0.6,0.7-1
			c0.2-0.4,0.4-0.7,0.6-1.1c0.4-0.9,0.9-1.9,1.3-3l1.8-5.2c0-0.1-0.2-0.2-0.3-0.4c-0.2-0.1-0.4-0.2-0.7-0.2c-0.7,0-1.3,0.3-1.9,0.9
			c-0.6,0.6-1.2,1.3-1.7,2.2c-0.5,0.9-0.9,1.8-1.3,2.9c-0.4,1-0.6,2-0.7,2.9c-0.1,0.9-0.2,1.6-0.1,2.2C96.3,25.2,96.6,25.5,97,25.5
			 M102.3,11.1c-2.1,0-3.9,0.4-5.4,1.3c-1.5,0.8-2.7,1.8-3.7,3.1c-1,1.2-1.6,2.6-2.1,4c-0.4,1.4-0.6,2.8-0.5,4.1
			c0.1,1.4,0.6,2.6,1.3,3.5c0.9,1.1,2.1,1.7,3.6,1.7c1.3,0,2.5-0.4,3.5-1.2c0.1-0.1,0.2-0.2,0.3-0.2c0.1,0.1,0.2,0.2,0.3,0.4
			c0.8,0.7,1.8,1.1,3.1,1.1c1.7,0,3.2-0.7,4.7-2c1.3-1.2,2.3-2.9,3.1-4.9c0.3-0.7,0.1-1.3,0-1.7c-0.2-0.5-0.6-0.9-1.1-1.1
			c-0.2-0.1-0.4-0.1-0.7-0.1c-0.3,0-0.6,0.1-0.9,0.2c-0.3,0.1-0.7,0.4-1,0.9c0.1-0.3,0.2-0.6,0.3-0.9c0.4-1.1,0.8-2.4,1.3-3.8
			c0.1-0.4,0.1-0.9-0.2-1.3c-0.6-1-1.4-1.7-2.4-2.2C105,11.3,103.8,11.1,102.3,11.1L102.3,11.1z M97.9,22.8c0,0,0-0.1,0-0.1
			c0.1-0.8,0.4-1.6,0.7-2.6c0.3-0.9,0.7-1.8,1.2-2.6c0.3-0.5,0.5-0.9,0.8-1.2L99.7,19c-0.4,1-0.8,2-1.2,2.8
			C98.3,22.1,98.1,22.5,97.9,22.8C97.9,22.8,97.9,22.8,97.9,22.8L97.9,22.8z"/>
	</g>
</g>
<g>
	<g>
		<path class="st2" d="M150.2,32.9c-1.3,0-2.6-0.2-3.8-0.6c-1.4-0.5-2.6-1.2-3.5-2.2c-0.9-1-1.5-2.1-1.9-3.3
			c-0.4-1.2-0.5-2.4-0.5-3.7c0-1.3,0.3-2.4,0.7-3.5c0.5-1.1,1.2-2.2,2.1-3.2c0.9-1,2-1.8,3.2-2.4c1.2-0.7,2.5-1.1,3.9-1.4
			c0.7-0.1,1.5-0.2,2.2-0.2c0.7,0,1.4,0.1,2.1,0.2c0.3,0.1,0.6,0.1,1,0.2c0.4,0.1,0.8,0.2,1.2,0.4c0.4,0.2,0.8,0.3,1.2,0.6
			c0.4,0.3,0.8,0.6,1,0.9c0.4,0.5,0.3,0.9,0.2,1.1c-0.1,0.2-0.3,0.5-0.9,0.5H158c-0.2,0-0.4,0-0.6,0c-1,0-2.1,0.1-3.1,0.3
			c-1.2,0.2-2.3,0.6-3.4,1.1c-1.1,0.5-2,1.1-2.9,1.9c-0.8,0.7-1.6,1.6-2.1,2.5c-0.3,0.4-0.5,0.9-0.8,1.4c-0.2,0.5-0.3,1-0.4,1.5
			c-0.1,0.5-0.1,1,0,1.5c0.1,0.5,0.2,0.9,0.4,1.4c0.4,0.8,1.1,1.4,2,1.7c0.8,0.3,1.6,0.4,2.5,0.4c0.2,0,0.4,0,0.6,0
			c1.1-0.1,2-0.4,2.7-0.9c0.8-0.6,1.5-1.3,2.1-2c0.8-1,1.5-2,2.1-3c0.6-1.1,1.2-2.2,1.8-3.3c0.5-1.1,1.1-2.2,1.6-3.4
			c0.5-1.1,1-2.3,1.6-3.4c0.6-1.1,1.2-2.3,1.8-3.4c0.6-1.1,1.4-2.2,2.3-3.2c0-0.1,0.1-0.1,0.1-0.2c-0.2,0-0.5,0-0.7,0
			c-0.9,0-1.7,0-2.6,0.1c-0.8,0-1.7,0.1-2.5,0.2c-0.8,0.1-1.6,0.3-2.4,0.5c-0.7,0.2-1.3,0.4-1.9,0.6c-0.6,0.2-1.2,0.5-1.8,0.8
			c-0.2,0.1-0.4,0.1-0.5,0.1c-0.4,0-0.7-0.2-0.9-0.5c-0.1-0.2-0.2-0.5-0.2-0.9c0-0.2,0-0.4,0.1-0.7c0-0.1,0-0.2,0-0.2
			c0,0,0-0.1,0-0.1c0.2-0.9,0.7-1.8,1.4-2.5c0.7-0.7,1.6-1.3,2.6-1.7c1-0.4,2-0.6,3.1-0.7c0.2,0,0.3,0,0.5,0c1,0,2.1,0.2,3,0.5
			c1,0.3,2,0.6,3,0.8c0.7,0.2,1.4,0.2,2.1,0.2c0,0,0,0,0,0c0.8,0,1.4-0.1,2-0.3c0.2-0.1,0.5-0.2,0.9-0.3c0.4-0.2,0.7-0.3,0.9-0.3
			c0.6-0.2,1.1-0.3,1.7-0.3c0.1,0,0.2,0,0.3,0c0.5,0,1,0.1,1.5,0.2c0.7,0.2,0.8,0.8,0.8,1c0,0.4-0.2,0.8-0.7,0.9
			c-0.6,0.2-1,0.4-1.4,0.7c-0.4,0.3-0.8,0.6-1.1,0.9c-0.3,0.4-0.6,0.7-0.9,1.1c-0.3,0.4-0.5,0.9-0.8,1.3c-0.6,1-1.1,2-1.7,3.1
			c-0.5,1-1,2.1-1.6,3.2c-1.1,2.3-2.3,4.6-3.5,6.7c-0.6,1-1.3,2.1-1.9,3.1c-0.7,1-1.5,2-2.3,3c-0.9,1-1.9,1.9-3,2.7
			c-1.2,0.8-2.4,1.5-3.8,1.9C152.8,32.7,151.6,32.9,150.2,32.9z"/>
		<path class="st1" d="M160.4,3c1,0,1.9,0.1,2.8,0.4c1,0.3,2,0.6,3.1,0.9c0.7,0.2,1.5,0.3,2.3,0.3c0,0,0.1,0,0.1,0
			c0.8,0,1.5-0.1,2.2-0.4c0.3-0.1,0.6-0.2,0.9-0.4c0.3-0.1,0.6-0.2,0.9-0.3c0.5-0.1,1-0.2,1.5-0.2c0.1,0,0.1,0,0.2,0
			c0.4,0,0.9,0.1,1.3,0.2c0.1,0,0.2,0.1,0.2,0.2c0,0.1-0.1,0.1-0.2,0.2c-0.6,0.2-1.1,0.4-1.5,0.8c-0.5,0.3-0.9,0.7-1.2,1.1
			c-0.4,0.4-0.7,0.8-1,1.3c-0.3,0.4-0.6,0.9-0.8,1.3c-0.6,1-1.2,2.1-1.7,3.1c-0.5,1.1-1.1,2.1-1.6,3.2c-1.1,2.3-2.2,4.5-3.5,6.7
			c-0.6,1-1.2,2-1.9,3c-0.7,1-1.4,2-2.2,2.9c-0.8,0.9-1.8,1.8-2.9,2.6c-1.1,0.8-2.3,1.4-3.6,1.8c-1.1,0.3-2.3,0.5-3.5,0.5
			c-1.3,0-2.4-0.2-3.5-0.6c-1.3-0.4-2.3-1.1-3.1-2c-0.8-0.9-1.4-1.9-1.7-3c-0.3-1.1-0.5-2.2-0.5-3.4c0-1.2,0.3-2.2,0.7-3.2
			c0.4-1.1,1.1-2.1,1.9-3c0.8-0.9,1.8-1.7,3-2.3c1.1-0.6,2.4-1,3.7-1.3c0.7-0.1,1.4-0.2,2.1-0.2c0.7,0,1.3,0.1,2,0.2
			c0.3,0,0.6,0.1,0.9,0.2c0.4,0.1,0.7,0.2,1.1,0.4c0.4,0.1,0.7,0.3,1.1,0.5c0.3,0.2,0.6,0.4,0.8,0.7c0.2,0.2,0.1,0.3-0.1,0.3
			c-0.2,0-0.4,0-0.6,0c-0.2,0-0.4,0-0.6,0c-1.1,0-2.2,0.1-3.3,0.3c-1.3,0.3-2.5,0.7-3.6,1.2c-1.1,0.5-2.2,1.2-3.1,2
			s-1.7,1.7-2.3,2.6c-0.3,0.5-0.6,1-0.8,1.6c-0.2,0.5-0.4,1.1-0.5,1.7c-0.1,0.6-0.1,1.1,0,1.7c0.1,0.6,0.3,1.1,0.5,1.6
			c0.5,1,1.3,1.7,2.4,2.1c0.9,0.3,1.8,0.5,2.8,0.5c0.2,0,0.5,0,0.7,0c1.2-0.1,2.2-0.4,3.1-1.1c0.9-0.7,1.6-1.4,2.3-2.1
			c0.8-1,1.6-2,2.2-3.1c0.6-1.1,1.2-2.2,1.8-3.3c0.6-1.1,1.1-2.3,1.6-3.4c0.5-1.1,1-2.3,1.6-3.4c0.6-1.1,1.2-2.2,1.8-3.3
			c0.6-1.1,1.4-2.1,2.2-3.1c0.5-0.6,0.9-1.1,1.4-1.6c-0.9,0-1.8,0.1-2.6,0.1c-0.9,0-1.7,0-2.6,0.1c-0.9,0-1.7,0.1-2.5,0.2
			c-0.8,0.1-1.7,0.3-2.5,0.5c-0.7,0.2-1.3,0.4-2,0.7c-0.6,0.2-1.2,0.5-1.8,0.8c-0.1,0-0.1,0-0.2,0c-0.1,0-0.1,0-0.2-0.1
			c-0.1-0.1-0.1-0.3-0.1-0.4c0-0.2,0-0.4,0-0.5c0-0.2,0-0.3,0-0.3c0.2-0.8,0.6-1.5,1.2-2.1c0.6-0.6,1.4-1.1,2.3-1.5
			c0.9-0.4,1.8-0.6,2.8-0.6C160.2,3,160.3,3,160.4,3 M160.4,1.4c-0.2,0-0.3,0-0.5,0c-1.2,0.1-2.3,0.3-3.3,0.7
			c-1.1,0.4-2.1,1-2.8,1.8c0,0,0,0,0,0c-0.8,0.9-1.3,1.8-1.6,2.9c0,0.1,0,0.2,0,0.3c0,0,0,0.1,0,0.2c0,0.3-0.1,0.5-0.1,0.8
			c0,0.5,0.1,0.9,0.3,1.3c0.3,0.5,0.9,0.9,1.6,0.9c0.3,0,0.5-0.1,0.8-0.2c0,0,0,0,0.1,0c0.6-0.3,1.2-0.5,1.7-0.8
			c0.6-0.2,1.2-0.4,1.8-0.6c0.8-0.2,1.5-0.4,2.3-0.5c0.8-0.1,1.6-0.2,2.4-0.2c0.5,0,1-0.1,1.6-0.1c-0.5,0.7-1,1.4-1.4,2.2
			c-0.6,1.1-1.3,2.2-1.9,3.4c-0.3,0.7-0.7,1.3-1,2c0.1-0.4,0-0.9-0.4-1.5c-0.3-0.4-0.7-0.8-1.3-1.1c-0.4-0.2-0.9-0.5-1.3-0.6
			c-0.4-0.2-0.9-0.3-1.3-0.4c-0.4-0.1-0.7-0.2-1-0.2c-0.8-0.1-1.5-0.2-2.3-0.2c-0.8,0-1.6,0.1-2.4,0.2c-1.5,0.3-2.9,0.8-4.2,1.5
			c-1.3,0.7-2.4,1.6-3.4,2.6c-1,1.1-1.7,2.2-2.2,3.5c-0.5,1.1-0.7,2.4-0.8,3.8c0,1.3,0.1,2.7,0.5,3.9c0.4,1.3,1.1,2.5,2,3.6
			c1,1.1,2.3,2,3.8,2.5c1.2,0.4,2.6,0.6,4,0.6c1.4,0,2.8-0.2,4-0.6c1.5-0.5,2.9-1.2,4.1-2.1c1.2-0.9,2.2-1.8,3.1-2.8
			c0.9-0.9,1.7-2,2.4-3.1c0.7-1,1.3-2.1,1.9-3.1c1.3-2.2,2.4-4.5,3.5-6.8c0.5-1.1,1-2.1,1.6-3.1c0.5-1,1.1-2.1,1.7-3.1
			c0.2-0.4,0.5-0.8,0.8-1.3c0.2-0.4,0.5-0.7,0.8-1c0.3-0.3,0.6-0.6,1-0.8c0.3-0.2,0.7-0.4,1.1-0.6c0,0,0.1,0,0.1,0
			c0.7-0.3,1.2-0.9,1.2-1.7c0-0.6-0.3-1.4-1.3-1.7c0,0,0,0-0.1,0c-0.6-0.2-1.1-0.2-1.7-0.2c-0.1,0-0.2,0-0.3,0
			c-0.6,0-1.3,0.1-1.9,0.3c-0.3,0.1-0.6,0.2-1,0.4c-0.3,0.1-0.6,0.2-0.8,0.3c-0.5,0.2-1,0.3-1.6,0.3l-0.1,0c-0.7,0-1.3-0.1-1.9-0.2
			c-1-0.2-2-0.5-2.9-0.8C162.7,1.6,161.6,1.4,160.4,1.4L160.4,1.4z M158,17h0.6c0.6,0,1-0.2,1.4-0.6c-0.1,0.2-0.2,0.4-0.3,0.6
			c-0.5,1.1-1,2.2-1.6,3.3c-0.5,1.1-1.1,2.2-1.7,3.2c-0.6,1-1.3,2-2,2.9c-0.5,0.7-1.2,1.3-2,1.8c-0.6,0.5-1.4,0.7-2.3,0.8
			c-0.2,0-0.4,0-0.6,0c-0.8,0-1.5-0.1-2.2-0.4c-0.7-0.3-1.2-0.7-1.5-1.3c-0.2-0.4-0.3-0.7-0.4-1.1c-0.1-0.4,0-0.9,0-1.3
			c0.1-0.4,0.2-0.9,0.4-1.3c0.2-0.5,0.4-0.9,0.7-1.3c0.5-0.8,1.2-1.6,2-2.3c0.8-0.7,1.7-1.3,2.7-1.8c1-0.5,2.1-0.8,3.2-1.1
			c1-0.2,1.9-0.3,2.9-0.3C157.6,17,157.7,17,158,17C157.9,17,158,17,158,17L158,17z"/>
	</g>
	<g>
		<path class="st2" d="M180.7,27.9c-1.2,0-2.2-0.3-3-0.8c-0.4-0.3-0.7-0.6-0.9-1c-0.4,0.4-0.8,0.7-1.2,1c-0.8,0.5-1.8,0.8-2.9,0.8
			c-2.8,0-4-1.4-4.5-2.6c-0.7-1.6-0.5-3.7,0.5-6.5c0.3-0.8,0.7-1.6,1.1-2.4c0.4-0.8,1-1.6,1.6-2.2c0.6-0.7,1.3-1.2,2.1-1.6
			c0.8-0.4,1.7-0.6,2.7-0.6h1.3c0.3,0,0.6,0.2,0.7,0.4c0.1,0.3,0.1,0.6,0,0.8c-0.9,1.4-1.7,2.9-2.4,4.5c-0.7,1.5-1.3,2.9-1.7,4.2
			c-0.4,1.2-0.6,2.2-0.7,3c0,0.2,0,0.3,0,0.4c0.2,0,0.4-0.1,0.6-0.3c0.3-0.3,0.7-0.6,1-1c0.4-0.4,0.7-0.9,1.1-1.5
			c0.3-0.5,0.6-1,0.8-1.5c0-0.1,0.1-0.2,0.1-0.3l2.5-5.9c0.4-0.9,1-1.5,1.8-2c0.8-0.5,1.8-0.8,2.8-0.8h2.3c0.3,0,0.5,0.1,0.7,0.4
			c0.1,0.2,0.2,0.5,0.1,0.8c-0.7,1.6-1.3,3.1-1.9,4.5c-0.3,0.6-0.5,1.2-0.8,1.8c-0.2,0.6-0.5,1.2-0.7,1.7c-0.2,0.5-0.4,1-0.6,1.4
			l-0.4,0.9c-0.3,0.8-0.4,1.1-0.4,1.3c0.1,0,0.3,0,0.6-0.2c0.3-0.1,0.6-0.3,1-0.6c0.4-0.3,0.8-0.7,1.2-1.3c0.4-0.5,0.8-1.2,1.2-2
			c0.2-0.5,0.5-0.7,0.8-0.8c0.2-0.1,0.4-0.1,0.6-0.1c0.1,0,0.2,0,0.4,0c0.4,0.1,0.6,0.3,0.8,0.7c0.1,0.2,0.2,0.6,0,1.1
			c-0.9,1.9-2,3.4-3.5,4.6C184.1,27.3,182.5,27.9,180.7,27.9z"/>
		<path class="st1" d="M186.7,12.7c-0.7,1.6-1.3,3.1-1.9,4.5c-0.3,0.6-0.5,1.2-0.8,1.8c-0.2,0.6-0.5,1.2-0.7,1.7
			c-0.2,0.5-0.4,1-0.6,1.4c-0.2,0.4-0.3,0.7-0.4,0.9c-0.4,0.9-0.5,1.5-0.4,1.8c0.1,0.4,0.4,0.5,0.8,0.5c0.2,0,0.5-0.1,0.9-0.2
			c0.4-0.2,0.8-0.4,1.2-0.8c0.4-0.4,0.9-0.8,1.4-1.4c0.5-0.6,0.9-1.3,1.3-2.1c0.1-0.2,0.2-0.3,0.3-0.4c0.1,0,0.2-0.1,0.3-0.1
			c0.1,0,0.1,0,0.1,0c0.1,0,0.2,0.1,0.3,0.2c0.1,0.1,0,0.3,0,0.5c-0.8,1.8-1.9,3.2-3.3,4.3c-1.4,1.1-2.8,1.6-4.4,1.6
			c-1.1,0-1.9-0.2-2.5-0.7c-0.6-0.4-1-1.1-1-2c-0.6,0.9-1.3,1.6-2,2c-0.7,0.4-1.5,0.7-2.5,0.7c-1.9,0-3.1-0.7-3.7-2.1
			c-0.6-1.4-0.4-3.4,0.5-5.9c0.3-0.8,0.6-1.6,1.1-2.3c0.4-0.8,0.9-1.4,1.5-2c0.6-0.6,1.2-1.1,1.9-1.4c0.7-0.4,1.5-0.6,2.4-0.6h1.3
			c-0.9,1.5-1.7,3-2.4,4.5c-0.7,1.6-1.3,3-1.7,4.3c-0.4,1.3-0.7,2.4-0.7,3.2c0,0.8,0.2,1.3,0.7,1.3c0.4,0,0.8-0.1,1.2-0.4
			c0.4-0.3,0.8-0.7,1.2-1.2c0.4-0.5,0.8-1,1.1-1.5c0.4-0.6,0.7-1.1,0.9-1.6c0,0,0-0.1,0.1-0.2l2.5-6c0.3-0.7,0.8-1.2,1.5-1.7
			c0.7-0.4,1.5-0.6,2.4-0.6H186.7 M186.7,11.1h-2.3c-1.2,0-2.3,0.3-3.2,0.9c-1,0.6-1.7,1.4-2.2,2.4c0,0,0,0,0,0.1l-2.5,5.9
			c-0.1,0.1-0.1,0.2-0.2,0.4c-0.2,0.4-0.5,0.9-0.8,1.3c-0.3,0.5-0.7,1-1,1.4c0,0,0,0,0,0c0.1-0.4,0.2-0.9,0.4-1.4
			c0.4-1.2,1-2.6,1.7-4.1c0.7-1.5,1.5-3,2.3-4.4c0.3-0.5,0.3-1.1,0-1.6c-0.3-0.5-0.8-0.8-1.4-0.8h-1.3c-1.1,0-2.2,0.2-3.1,0.7
			c-0.9,0.4-1.7,1-2.3,1.8c-0.7,0.7-1.2,1.5-1.7,2.4c-0.5,0.8-0.8,1.7-1.1,2.5c-1.1,3-1.3,5.3-0.5,7.1c0.6,1.4,2,3.1,5.2,3.1
			c1.2,0,2.4-0.3,3.3-0.9c0.2-0.1,0.5-0.3,0.7-0.5c0.2,0.2,0.3,0.3,0.5,0.4c0.9,0.6,2,1,3.4,1c1.9,0,3.8-0.7,5.4-1.9
			c1.6-1.2,2.8-2.9,3.7-4.9c0.3-0.6,0.3-1.2,0.1-1.8c-0.3-0.6-0.7-1-1.3-1.2c-0.2-0.1-0.4-0.1-0.6-0.1c-0.3,0-0.6,0.1-0.9,0.2
			c-0.4,0.1-0.9,0.5-1.2,1.2c-0.3,0.7-0.7,1.3-1.1,1.8c-0.3,0.3-0.5,0.6-0.7,0.8c0,0,0-0.1,0.1-0.1c0.2-0.4,0.4-0.9,0.6-1.4
			c0.2-0.5,0.5-1.1,0.7-1.7c0.2-0.6,0.5-1.2,0.7-1.7c0.6-1.4,1.2-2.9,1.9-4.5c0.2-0.5,0.2-1.1-0.1-1.5
			C187.7,11.4,187.2,11.1,186.7,11.1L186.7,11.1z"/>
	</g>
	<g>
		<path class="st2" d="M190.1,27.9c-0.9,0-1.7-0.1-2.3-0.4c-0.7-0.3-1.3-0.8-1.6-1.5c-0.3-0.6-0.5-1.4-0.4-2.3
			c0.1-0.8,0.3-1.8,0.8-3l5.9-14.1c0.5-1.4,1.3-2.3,2.3-2.9c1-0.6,2.3-0.9,4-0.9h1c0.3,0,0.5,0.1,0.7,0.4c0.1,0.2,0.2,0.5,0.1,0.8
			c-1.5,3.5-2.8,6.6-3.9,9.4c-0.5,1.2-1,2.4-1.5,3.5c-0.5,1.2-0.9,2.2-1.3,3.1c-0.4,0.9-0.7,1.7-1,2.3c-0.2,0.5-0.4,0.9-0.4,1
			c-0.4,0.8-0.4,1.2-0.4,1.3c0.1,0,0.3-0.1,0.6-0.2c0.3-0.1,0.7-0.3,1-0.6c0.4-0.3,0.8-0.7,1.2-1.3c0.4-0.5,0.8-1.2,1.2-2
			c0.2-0.5,0.5-0.7,0.8-0.8c0.2-0.1,0.4-0.1,0.6-0.1c0.1,0,0.2,0,0.4,0c0.4,0.1,0.6,0.3,0.8,0.7c0.1,0.2,0.2,0.6,0,1.1
			c-0.9,1.9-2,3.4-3.5,4.6C193.5,27.3,191.9,27.9,190.1,27.9z"/>
		<path class="st1" d="M199.8,3.6c-1.5,3.5-2.8,6.6-3.9,9.4c-0.5,1.2-1,2.4-1.5,3.5c-0.5,1.2-0.9,2.2-1.3,3.1
			c-0.4,0.9-0.7,1.7-1,2.3c-0.3,0.6-0.4,1-0.4,1c-0.4,0.9-0.5,1.5-0.4,1.8c0.1,0.4,0.3,0.5,0.7,0.5c0.2,0,0.5-0.1,0.9-0.2
			c0.4-0.2,0.8-0.4,1.2-0.8c0.4-0.4,0.9-0.8,1.3-1.4c0.5-0.6,0.9-1.3,1.3-2.1c0.1-0.2,0.2-0.3,0.3-0.4c0.1,0,0.2-0.1,0.3-0.1
			c0.1,0,0.1,0,0.1,0c0.1,0,0.2,0.1,0.3,0.2c0.1,0.1,0,0.3,0,0.5c-0.8,1.8-1.9,3.2-3.3,4.3c-1.4,1.1-2.8,1.6-4.4,1.6
			c-0.8,0-1.4-0.1-2-0.4c-0.5-0.2-0.9-0.6-1.2-1.1c-0.3-0.5-0.4-1.1-0.3-1.9c0.1-0.8,0.3-1.7,0.7-2.7l5.9-14c0.5-1.2,1.1-2.1,2-2.6
			c0.8-0.5,2-0.8,3.6-0.8H199.8 M199.8,2h-1c-1.9,0-3.3,0.3-4.4,1c-1.1,0.7-2,1.8-2.6,3.3l-5.9,14c-0.5,1.2-0.8,2.3-0.9,3.2
			c-0.1,1.1,0.1,2,0.5,2.8c0.4,0.8,1.1,1.5,2,1.8c0.7,0.3,1.6,0.5,2.6,0.5c1.9,0,3.8-0.7,5.4-1.9c1.6-1.2,2.8-2.9,3.7-4.9
			c0.3-0.6,0.3-1.2,0.1-1.8c-0.3-0.6-0.7-1-1.3-1.2c-0.2-0.1-0.4-0.1-0.6-0.1c-0.3,0-0.6,0.1-0.9,0.2c-0.4,0.1-0.9,0.5-1.2,1.2
			c-0.3,0.7-0.7,1.3-1.1,1.8c-0.2,0.3-0.5,0.6-0.7,0.8c0-0.1,0.1-0.1,0.1-0.2c0.3-0.6,0.6-1.4,1-2.3c0.4-0.9,0.8-2,1.3-3.1
			c0.5-1.2,1-2.3,1.5-3.5c1.1-2.8,2.4-5.9,3.9-9.4c0.2-0.5,0.2-1.1-0.1-1.5C200.9,2.3,200.4,2,199.8,2L199.8,2z"/>
	</g>
	<g>
		<path class="st2" d="M199.6,27.9c-0.9,0-1.7-0.1-2.3-0.4c-0.7-0.3-1.3-0.8-1.6-1.5c-0.3-0.6-0.5-1.4-0.4-2.3
			c0.1-0.9,0.3-1.8,0.8-3l2.5-6c0.4-0.9,1-1.5,1.8-2c0.7-0.4,1.4-0.7,2.2-0.7c-0.1-0.1-0.3-0.2-0.4-0.3c-0.7-0.6-1-1.4-1-2.3
			c0-0.9,0.4-1.6,1.1-2.3c0.7-0.6,1.5-1,2.4-1c0.1,0,0.2,0,0.3,0c0.8,0,1.5,0.2,2.1,0.7c0.7,0.6,1,1.4,1,2.3c0,0.9-0.4,1.6-1.1,2.3
			c-0.3,0.3-0.7,0.5-1.1,0.7c0.1,0.1,0.1,0.1,0.2,0.2c0.1,0.2,0.2,0.5,0.1,0.8c-0.7,1.6-1.3,3.1-1.9,4.5c-0.3,0.6-0.5,1.2-0.7,1.8
			c-0.2,0.6-0.5,1.2-0.7,1.7c-0.2,0.5-0.4,1-0.6,1.4s-0.3,0.7-0.4,0.9c-0.3,0.8-0.4,1.1-0.4,1.3c0.1,0,0.3,0,0.6-0.2
			c0.3-0.1,0.6-0.3,1-0.6c0.4-0.3,0.8-0.7,1.2-1.3c0.4-0.5,0.8-1.2,1.2-2c0.2-0.5,0.5-0.7,0.8-0.8c0.2-0.1,0.4-0.1,0.6-0.1
			c0.1,0,0.2,0,0.4,0c0.4,0.1,0.6,0.3,0.8,0.7c0.1,0.2,0.2,0.6,0,1.1c-0.9,1.9-2,3.4-3.5,4.6C203,27.3,201.3,27.9,199.6,27.9z"/>
		<path class="st1" d="M205.1,6.9c0.6,0,1.1,0.2,1.6,0.5c0.5,0.4,0.7,1,0.7,1.6c0,0.6-0.3,1.2-0.9,1.7c-0.6,0.5-1.2,0.8-1.9,0.8
			c-0.1,0-0.2,0-0.2,0c-0.6,0-1.1-0.2-1.6-0.5c-0.5-0.4-0.7-1-0.7-1.6c0-0.6,0.3-1.2,0.9-1.7c0.6-0.5,1.2-0.8,1.9-0.8
			C205,6.9,205.1,6.9,205.1,6.9 M205.5,12.7c-0.7,1.6-1.3,3.1-1.9,4.5c-0.3,0.6-0.5,1.2-0.8,1.8c-0.2,0.6-0.5,1.2-0.7,1.7
			c-0.2,0.5-0.4,1-0.6,1.4s-0.3,0.7-0.4,0.9c-0.4,0.9-0.5,1.5-0.4,1.8c0.1,0.4,0.4,0.5,0.8,0.5c0.2,0,0.5-0.1,0.9-0.2
			c0.4-0.2,0.8-0.4,1.2-0.8c0.4-0.4,0.9-0.8,1.4-1.4c0.5-0.6,0.9-1.3,1.3-2.1c0.1-0.2,0.2-0.3,0.3-0.4c0.1,0,0.2-0.1,0.3-0.1
			c0.1,0,0.1,0,0.1,0c0.1,0,0.2,0.1,0.3,0.2c0.1,0.1,0,0.3,0,0.5c-0.8,1.8-1.9,3.2-3.3,4.3c-1.4,1.1-2.8,1.6-4.4,1.6
			c-0.8,0-1.4-0.1-2-0.4c-0.5-0.2-0.9-0.6-1.2-1.1c-0.3-0.5-0.4-1.1-0.3-1.9c0.1-0.8,0.3-1.7,0.7-2.7l2.5-6c0.3-0.7,0.8-1.2,1.5-1.7
			c0.7-0.4,1.5-0.6,2.4-0.6H205.5 M205.1,5.3c-0.1,0-0.2,0-0.3,0c-1.1,0.1-2,0.5-2.9,1.2c-0.9,0.8-1.4,1.8-1.4,2.8
			c0,0.8,0.2,1.5,0.6,2.1c-0.4,0.1-0.7,0.3-1,0.5c-1,0.6-1.7,1.4-2.2,2.4c0,0,0,0,0,0.1l-2.5,6c-0.5,1.2-0.8,2.3-0.8,3.2
			c-0.1,1.1,0.1,2,0.5,2.8c0.4,0.8,1.1,1.5,2,1.8c0.7,0.3,1.6,0.5,2.6,0.5c1.9,0,3.8-0.7,5.4-1.9c1.6-1.2,2.8-2.9,3.7-4.9
			c0.3-0.6,0.3-1.2,0.1-1.8c-0.3-0.6-0.7-1-1.3-1.2c-0.2-0.1-0.4-0.1-0.6-0.1c-0.3,0-0.6,0.1-0.9,0.2c-0.4,0.2-0.9,0.5-1.2,1.2
			c-0.3,0.7-0.7,1.3-1.1,1.8c-0.3,0.3-0.5,0.6-0.7,0.8c0,0,0-0.1,0.1-0.1c0.2-0.4,0.4-0.9,0.6-1.4c0.2-0.5,0.5-1.1,0.7-1.7
			c0.2-0.6,0.5-1.2,0.7-1.8c0.6-1.4,1.2-2.9,1.9-4.5c0.1-0.3,0.2-0.7,0.1-1c0.2-0.1,0.3-0.2,0.5-0.4c0.9-0.8,1.4-1.8,1.4-2.8
			c0.1-1.1-0.4-2.1-1.2-2.9C207,5.6,206.1,5.3,205.1,5.3L205.1,5.3z"/>
	</g>
	<g>
		<path class="st2" d="M212.8,28.1c-0.3,0-0.6,0-0.9,0c-2-0.1-3.6-0.6-4.6-1.5c-1.1-0.9-1.7-2.1-1.9-3.4c-0.2-1.3,0-2.6,0.6-4
			c0.6-1.4,1.4-2.6,2.5-3.7c1.1-1.1,2.5-2,4.1-2.7c1.4-0.6,2.9-0.9,4.5-0.9c0.3,0,0.6,0,0.9,0c2,0.1,3.6,0.7,4.7,1.6
			c1.1,0.9,1.7,2.1,1.9,3.4c0.2,1.3,0,2.6-0.6,4c-0.6,1.4-1.4,2.6-2.6,3.7c-1.1,1.1-2.5,2-4.1,2.7C215.9,27.8,214.4,28.1,212.8,28.1
			z M216.2,14.5c-0.6,0-1.1,0.3-1.6,0.8c-0.6,0.6-1,1.3-1.4,2.2c-0.4,0.9-0.7,1.8-0.9,2.9c-0.2,1-0.3,1.9-0.2,2.7
			c0.1,0.8,0.3,1.4,0.6,1.9c0.2,0.3,0.5,0.4,0.9,0.4l0.1,0c0.6-0.1,1.1-0.3,1.6-0.8c0.6-0.6,1-1.3,1.4-2.2c0.4-0.9,0.7-1.8,0.9-2.8
			c0.2-1,0.3-1.9,0.2-2.8c-0.1-0.8-0.3-1.4-0.6-1.8c-0.2-0.3-0.5-0.5-0.9-0.5L216.2,14.5z"/>
		<path class="st1" d="M217.2,12.6c0.3,0,0.6,0,0.8,0c1.9,0.1,3.3,0.6,4.2,1.4c0.9,0.8,1.5,1.8,1.6,2.9c0.2,1.1,0,2.3-0.6,3.6
			c-0.5,1.3-1.3,2.4-2.4,3.5c-1.1,1-2.4,1.9-3.9,2.5c-1.3,0.6-2.7,0.8-4.2,0.8c-0.3,0-0.6,0-0.8,0c-1.8-0.1-3.2-0.5-4.1-1.3
			c-0.9-0.8-1.5-1.8-1.6-2.9c-0.2-1.1,0-2.3,0.5-3.6c0.5-1.3,1.3-2.4,2.4-3.5c1-1,2.3-1.9,3.9-2.5C214.3,12.9,215.7,12.6,217.2,12.6
			 M213.6,26.2c0.1,0,0.1,0,0.2,0c0.8-0.1,1.5-0.4,2.1-1.1c0.6-0.7,1.2-1.4,1.6-2.4s0.8-1.9,1-3c0.2-1.1,0.3-2.1,0.2-3
			c-0.1-0.9-0.3-1.7-0.7-2.2c-0.4-0.5-0.9-0.8-1.6-0.8c-0.1,0-0.1,0-0.2,0c-0.8,0-1.5,0.4-2.1,1c-0.6,0.7-1.2,1.4-1.6,2.4
			c-0.4,0.9-0.8,2-1,3c-0.2,1.1-0.3,2.1-0.2,3c0.1,0.9,0.3,1.7,0.7,2.2C212.4,25.9,212.9,26.2,213.6,26.2 M217.2,11L217.2,11
			c-1.7,0-3.4,0.3-4.8,1c-1.7,0.7-3.2,1.7-4.4,2.9c-1.2,1.2-2.1,2.5-2.7,4c-0.6,1.5-0.9,3-0.6,4.4c0.2,1.5,1,2.8,2.2,3.9
			c1.2,1,2.9,1.6,5.1,1.7c0.3,0,0.6,0,0.9,0c1.7,0,3.4-0.3,4.8-1c1.7-0.7,3.2-1.7,4.4-2.9c1.2-1.2,2.1-2.5,2.7-4
			c0.6-1.5,0.9-3,0.7-4.4c-0.2-1.5-0.9-2.8-2.2-3.9c-1.2-1-2.9-1.6-5.1-1.7C217.8,11,217.5,11,217.2,11L217.2,11z M213.6,24.6
			L213.6,24.6c-0.2,0-0.2,0-0.3-0.1c-0.2-0.4-0.4-0.9-0.4-1.5c-0.1-0.8,0-1.6,0.2-2.5c0.2-0.9,0.5-1.9,0.9-2.7
			c0.4-0.8,0.8-1.4,1.3-1.9c0.5-0.5,0.8-0.5,1-0.6l0.1,0c0.2,0,0.2,0,0.3,0.1c0.2,0.3,0.4,0.8,0.4,1.4c0.1,0.8,0,1.6-0.2,2.5
			c-0.2,0.9-0.5,1.8-0.9,2.7c-0.4,0.8-0.8,1.4-1.3,1.9C214.2,24.5,213.8,24.5,213.6,24.6L213.6,24.6z"/>
	</g>
</g>
</svg>
